<svg width="27" height="27" viewBox="0 0 27 27" fill="none" xmlns="http://www.w3.org/2000/svg">
<path d="M5.49219 15.0547C6.80469 16.3672 8.39844 17.0234 10.2734 17.0234C12.1484 17.0234 13.7422 16.3672 15.0547 15.0547C16.3672 13.7422 17.0234 12.1484 17.0234 10.2734C17.0234 8.39844 16.3672 6.80469 15.0547 5.49219C13.7422 4.17969 12.1484 3.52344 10.2734 3.52344C8.39844 3.52344 6.80469 4.17969 5.49219 5.49219C4.17969 6.80469 3.52344 8.39844 3.52344 10.2734C3.52344 12.1484 4.17969 13.7422 5.49219 15.0547ZM19.2734 17.0234L26.7266 24.4766L24.4766 26.7266L17.0234 19.2734V18.0781L16.6016 17.6562C14.8203 19.2031 12.7109 19.9766 10.2734 19.9766C7.55469 19.9766 5.23438 19.0391 3.3125 17.1641C1.4375 15.2891 0.5 12.9922 0.5 10.2734C0.5 7.55469 1.4375 5.25781 3.3125 3.38281C5.23438 1.46094 7.55469 0.5 10.2734 0.5C12.9922 0.5 15.2891 1.46094 17.1641 3.38281C19.0391 5.25781 19.9766 7.55469 19.9766 10.2734C19.9766 11.2578 19.7422 12.3828 19.2734 13.6484C18.8047 14.8672 18.2656 15.8516 17.6562 16.6016L18.0781 17.0234H19.2734Z" fill="#555555"/>
</svg>
