<svg width="22" height="23" viewBox="0 0 22 23" fill="none" xmlns="http://www.w3.org/2000/svg">
<path d="M4.30524 12.4043C5.39899 13.498 6.72711 14.0449 8.28961 14.0449C9.85211 14.0449 11.1802 13.498 12.274 12.4043C13.3677 11.3105 13.9146 9.98242 13.9146 8.41992C13.9146 6.85742 13.3677 5.5293 12.274 4.43555C11.1802 3.3418 9.85211 2.79492 8.28961 2.79492C6.72711 2.79492 5.39899 3.3418 4.30524 4.43555C3.21149 5.5293 2.66461 6.85742 2.66461 8.41992C2.66461 9.98242 3.21149 11.3105 4.30524 12.4043ZM15.7896 14.0449L22.0005 20.2559L20.1255 22.1309L13.9146 15.9199V14.9238L13.563 14.5723C12.0787 15.8613 10.3209 16.5059 8.28961 16.5059C6.02399 16.5059 4.09039 15.7246 2.48883 14.1621C0.926331 12.5996 0.145081 10.6855 0.145081 8.41992C0.145081 6.1543 0.926331 4.24023 2.48883 2.67773C4.09039 1.07617 6.02399 0.275391 8.28961 0.275391C10.5552 0.275391 12.4693 1.07617 14.0318 2.67773C15.5943 4.24023 16.3755 6.1543 16.3755 8.41992C16.3755 9.24023 16.1802 10.1777 15.7896 11.2324C15.399 12.248 14.9498 13.0684 14.442 13.6934L14.7935 14.0449H15.7896Z" fill="#1850A3"/>
</svg>
