<svg width="43" height="49" viewBox="0 0 43 49" fill="none" xmlns="http://www.w3.org/2000/svg">
<path d="M30.6309 25.8633V21.2441H23.7559V14.3691H19.2441V21.2441H12.3691V25.8633H19.2441V32.7383H23.7559V25.8633H30.6309ZM37.291 34.5645L42.125 39.3984V41.8691H0.875V39.3984L5.70898 34.5645V21.2441C5.70898 17.8066 6.89062 14.584 9.25391 11.5762C11.6172 8.56836 14.4818 6.67057 17.8477 5.88281V4.27148C17.8477 3.26888 18.2057 2.40951 18.9219 1.69336C19.638 0.977214 20.4974 0.619141 21.5 0.619141C22.5026 0.619141 23.362 0.977214 24.0781 1.69336C24.7943 2.40951 25.1523 3.26888 25.1523 4.27148V5.88281C28.6615 6.67057 31.5618 8.53255 33.8535 11.4688C36.1452 14.3333 37.291 17.5918 37.291 21.2441V34.5645ZM16.9883 44.125H26.0117C26.0117 45.3424 25.5462 46.4167 24.6152 47.3477C23.7559 48.2786 22.7174 48.7441 21.5 48.7441C20.2826 48.7441 19.2083 48.2786 18.2773 47.3477C17.418 46.4167 16.9883 45.3424 16.9883 44.125Z" fill="#999999"/>
</svg>
