<svg width="19" height="20" viewBox="0 0 19 20" fill="none" xmlns="http://www.w3.org/2000/svg">
<path d="M16.7754 0.625C17.3288 0.625 17.8171 0.836589 18.2402 1.25977C18.6634 1.68294 18.875 2.17122 18.875 2.72461V17.2754C18.875 17.8288 18.6634 18.3171 18.2402 18.7402C17.8171 19.1634 17.3288 19.375 16.7754 19.375H2.22461C1.63867 19.375 1.13411 19.1797 0.710938 18.7891C0.320312 18.3659 0.125 17.8613 0.125 17.2754V13.125H2.22461V17.2754H16.7754V2.72461H2.22461V6.875H0.125V2.72461C0.125 2.13867 0.320312 1.65039 0.710938 1.25977C1.13411 0.836589 1.63867 0.625 2.22461 0.625H16.7754ZM7.49805 13.7598L10.1836 11.0254H0.125V8.97461H10.1836L7.49805 6.24023L8.96289 4.77539L14.1875 10L8.96289 15.2246L7.49805 13.7598Z" fill="#666666"/>
</svg>
