<svg width="321" height="251" viewBox="0 0 321 251" fill="none" xmlns="http://www.w3.org/2000/svg">
<rect x="0.544067" y="0.5" width="320" height="250" fill="#CCCCCC"/>
<path d="M149.997 119.5L139.591 133H181.497L167.997 115L157.591 128.5L149.997 119.5ZM187.544 135.953C187.544 137.547 186.935 138.953 185.716 140.172C184.497 141.391 183.091 142 181.497 142H139.591C137.997 142 136.591 141.391 135.372 140.172C134.153 138.953 133.544 137.547 133.544 135.953V94.0469C133.544 92.4531 134.153 91.0469 135.372 89.8281C136.591 88.6094 137.997 88 139.591 88H181.497C183.091 88 184.497 88.6094 185.716 89.8281C186.935 91.0469 187.544 92.4531 187.544 94.0469V135.953Z" fill="#F4F4F4"/>
<path d="M129.563 155.203V168H127.858L121.415 158.13V168H119.719V155.203H121.415L127.884 165.1V155.203H129.563ZM142.421 161.197V162.006C142.421 162.967 142.301 163.828 142.061 164.59C141.82 165.352 141.475 165.999 141.024 166.532C140.572 167.065 140.03 167.473 139.398 167.754C138.771 168.035 138.068 168.176 137.288 168.176C136.532 168.176 135.838 168.035 135.205 167.754C134.578 167.473 134.033 167.065 133.57 166.532C133.113 165.999 132.759 165.352 132.507 164.59C132.255 163.828 132.129 162.967 132.129 162.006V161.197C132.129 160.236 132.252 159.378 132.498 158.622C132.75 157.86 133.105 157.213 133.562 156.68C134.019 156.141 134.561 155.73 135.188 155.449C135.82 155.168 136.515 155.027 137.271 155.027C138.05 155.027 138.753 155.168 139.38 155.449C140.013 155.73 140.555 156.141 141.006 156.68C141.463 157.213 141.812 157.86 142.052 158.622C142.298 159.378 142.421 160.236 142.421 161.197ZM140.742 162.006V161.18C140.742 160.418 140.663 159.744 140.505 159.158C140.353 158.572 140.127 158.08 139.828 157.682C139.529 157.283 139.163 156.981 138.73 156.776C138.302 156.571 137.816 156.469 137.271 156.469C136.743 156.469 136.266 156.571 135.838 156.776C135.416 156.981 135.053 157.283 134.748 157.682C134.449 158.08 134.218 158.572 134.054 159.158C133.89 159.744 133.808 160.418 133.808 161.18V162.006C133.808 162.773 133.89 163.453 134.054 164.045C134.218 164.631 134.452 165.126 134.757 165.53C135.068 165.929 135.434 166.23 135.856 166.436C136.283 166.641 136.761 166.743 137.288 166.743C137.839 166.743 138.328 166.641 138.756 166.436C139.184 166.23 139.544 165.929 139.837 165.53C140.136 165.126 140.361 164.631 140.514 164.045C140.666 163.453 140.742 162.773 140.742 162.006ZM151.245 155.203V168H149.549V155.203H151.245ZM154.866 155.203H156.51L160.702 165.636L164.886 155.203H166.538L161.335 168H160.052L154.866 155.203ZM154.33 155.203H155.78L156.018 163.008V168H154.33V155.203ZM165.615 155.203H167.066V168H165.378V163.008L165.615 155.203ZM174.941 156.337L170.704 168H168.973L173.851 155.203H174.967L174.941 156.337ZM178.491 168L174.246 156.337L174.22 155.203H175.336L180.232 168H178.491ZM178.272 163.263V164.651H171.082V163.263H178.272ZM191.297 161.628V166.312C191.139 166.547 190.887 166.811 190.541 167.104C190.195 167.391 189.718 167.643 189.109 167.859C188.505 168.07 187.726 168.176 186.771 168.176C185.991 168.176 185.274 168.041 184.617 167.771C183.967 167.496 183.401 167.098 182.921 166.576C182.446 166.049 182.077 165.41 181.814 164.66C181.556 163.904 181.427 163.049 181.427 162.094V161.101C181.427 160.146 181.538 159.293 181.761 158.543C181.989 157.793 182.323 157.157 182.763 156.636C183.202 156.108 183.741 155.71 184.38 155.44C185.019 155.165 185.751 155.027 186.577 155.027C187.556 155.027 188.373 155.197 189.029 155.537C189.692 155.871 190.207 156.334 190.576 156.926C190.951 157.518 191.192 158.191 191.297 158.947H189.601C189.525 158.484 189.372 158.062 189.144 157.682C188.921 157.301 188.602 156.996 188.186 156.768C187.77 156.533 187.234 156.416 186.577 156.416C185.985 156.416 185.473 156.524 185.039 156.741C184.606 156.958 184.248 157.269 183.967 157.673C183.686 158.077 183.475 158.566 183.334 159.141C183.199 159.715 183.132 160.362 183.132 161.083V162.094C183.132 162.832 183.217 163.491 183.387 164.071C183.563 164.651 183.812 165.146 184.134 165.557C184.456 165.961 184.84 166.269 185.285 166.479C185.736 166.69 186.234 166.796 186.779 166.796C187.383 166.796 187.872 166.746 188.247 166.646C188.622 166.541 188.915 166.418 189.126 166.277C189.337 166.131 189.498 165.993 189.609 165.864V162.999H186.648V161.628H191.297ZM202.239 166.62V168H195.463V166.62H202.239ZM195.806 155.203V168H194.109V155.203H195.806ZM201.343 160.705V162.085H195.463V160.705H201.343ZM202.151 155.203V156.592H195.463V155.203H202.151Z" fill="#F4F4F4"/>
</svg>
