<svg width="69" height="69" viewBox="0 0 69 69" fill="none" xmlns="http://www.w3.org/2000/svg">
<path d="M34.5 66.8438C52.363 66.8438 66.8438 52.363 66.8438 34.5C66.8438 16.637 52.363 2.15625 34.5 2.15625C16.637 2.15625 2.15625 16.637 2.15625 34.5C2.15625 52.363 16.637 66.8438 34.5 66.8438Z" fill="#FFD8C9"/>
<path opacity="0.3" d="M34.5 60.375C48.7904 60.375 60.375 48.7904 60.375 34.5C60.375 20.2096 48.7904 8.625 34.5 8.625C20.2096 8.625 8.625 20.2096 8.625 34.5C8.625 48.7904 20.2096 60.375 34.5 60.375Z" fill="white"/>
<path d="M46.349 37.5945C48.2633 37.5945 49.8152 36.0426 49.8152 34.1283C49.8152 32.214 48.2633 30.6621 46.349 30.6621C44.4347 30.6621 42.8828 32.214 42.8828 34.1283C42.8828 36.0426 44.4347 37.5945 46.349 37.5945Z" fill="#FBC0AA"/>
<path d="M33.9609 41.373V48.7852" stroke="#FBC0AA" stroke-width="12" stroke-linecap="round" stroke-linejoin="round"/>
<path d="M34.5 16.727C37.2539 16.727 39.4863 14.4946 39.4863 11.7407C39.4863 8.98685 37.2539 6.75439 34.5 6.75439C31.7461 6.75439 29.5137 8.98685 29.5137 11.7407C29.5137 14.4946 31.7461 16.727 34.5 16.727Z" fill="white"/>
<path d="M43.7393 19.3306C46.4931 19.3306 48.7256 17.0981 48.7256 14.3442C48.7256 11.5904 46.4931 9.35791 43.7393 9.35791C40.9854 9.35791 38.7529 11.5904 38.7529 14.3442C38.7529 17.0981 40.9854 19.3306 43.7393 19.3306Z" fill="white"/>
<path d="M50.5967 25.9937C53.3506 25.9937 55.583 23.7612 55.583 21.0073C55.583 18.2535 53.3506 16.021 50.5967 16.021C47.8428 16.021 45.6104 18.2535 45.6104 21.0073C45.6104 23.7612 47.8428 25.9937 50.5967 25.9937Z" fill="white"/>
<path d="M25.2607 19.3306C28.0146 19.3306 30.2471 17.0981 30.2471 14.3442C30.2471 11.5904 28.0146 9.35791 25.2607 9.35791C22.5069 9.35791 20.2744 11.5904 20.2744 14.3442C20.2744 17.0981 22.5069 19.3306 25.2607 19.3306Z" fill="white"/>
<path d="M18.4033 25.9937C21.1572 25.9937 23.3896 23.7612 23.3896 21.0073C23.3896 18.2535 21.1572 16.021 18.4033 16.021C15.6494 16.021 13.417 18.2535 13.417 21.0073C13.417 23.7612 15.6494 25.9937 18.4033 25.9937Z" fill="white"/>
<path d="M21.5736 37.5945C23.4879 37.5945 25.0398 36.0426 25.0398 34.1283C25.0398 32.214 23.4879 30.6621 21.5736 30.6621C19.6593 30.6621 18.1074 32.214 18.1074 34.1283C18.1074 36.0426 19.6593 37.5945 21.5736 37.5945Z" fill="#FBC0AA"/>
<path d="M34.5 11.7407C29.2102 11.7407 24.137 13.8421 20.3965 17.5826C16.6561 21.323 14.5547 26.3962 14.5547 31.686V59.9706C20.2442 64.4359 27.2675 66.8628 34.5 66.8628C41.7325 66.8628 48.7558 64.4359 54.4453 59.9706V31.6753C54.4425 26.3873 52.3398 21.3169 48.5997 17.5788C44.8595 13.8406 39.788 11.7407 34.5 11.7407V11.7407Z" fill="#00ADFE"/>
<path d="M34.5 13.897C29.782 13.897 25.2573 15.7712 21.9212 19.1073C18.5851 22.4434 16.7109 26.9681 16.7109 31.686V57.6203C16.719 59.0492 16.9 60.4719 17.25 61.8574C22.413 65.1171 28.394 66.8473 34.5 66.8473C40.606 66.8473 46.587 65.1171 51.75 61.8574C52.1 60.4719 52.281 59.0492 52.2891 57.6203V31.6753C52.2862 26.9592 50.4107 22.4372 47.075 19.1035C43.7392 15.7697 39.2161 13.897 34.5 13.897V13.897Z" fill="white"/>
<path d="M46.8875 37.4435C48.7185 37.4435 50.2027 35.9592 50.2027 34.1282C50.2027 32.2973 48.7185 30.813 46.8875 30.813C45.0565 30.813 43.5723 32.2973 43.5723 34.1282C43.5723 35.9592 45.0565 37.4435 46.8875 37.4435Z" fill="#FBC0AA"/>
<path d="M22.1121 37.4435C23.9431 37.4435 25.4273 35.9592 25.4273 34.1282C25.4273 32.2973 23.9431 30.813 22.1121 30.813C20.2812 30.813 18.7969 32.2973 18.7969 34.1282C18.7969 35.9592 20.2812 37.4435 22.1121 37.4435Z" fill="#FBC0AA"/>
<path d="M34.5 47.3512C31.2117 47.3512 28.0581 46.045 25.733 43.7198C23.4078 41.3947 22.1016 38.2411 22.1016 34.9528V31.6753C22.1016 28.387 23.4078 25.2334 25.733 22.9083C28.0581 20.5831 31.2117 19.2769 34.5 19.2769C37.7883 19.2769 40.9419 20.5831 43.267 22.9083C45.5922 25.2334 46.8984 28.387 46.8984 31.6753V34.969C46.8942 38.2544 45.586 41.4039 43.2613 43.7255C40.9366 46.0472 37.7855 47.3512 34.5 47.3512V47.3512Z" fill="#FFD8C9"/>
<path d="M28.5757 44.8662C32.1453 44.8662 35.039 41.9724 35.039 38.4028C35.039 34.8332 32.1453 31.9395 28.5757 31.9395C25.006 31.9395 22.1123 34.8332 22.1123 38.4028C22.1123 41.9724 25.006 44.8662 28.5757 44.8662Z" fill="#FFD8C9"/>
<path opacity="0.2" d="M27.4975 40.9741C28.6854 40.9741 29.6484 40.3997 29.6484 39.6912C29.6484 38.9826 28.6854 38.4082 27.4975 38.4082C26.3097 38.4082 25.3467 38.9826 25.3467 39.6912C25.3467 40.3997 26.3097 40.9741 27.4975 40.9741Z" fill="#F85565"/>
<path d="M40.4243 44.8662C43.9939 44.8662 46.8877 41.9724 46.8877 38.4028C46.8877 34.8332 43.9939 31.9395 40.4243 31.9395C36.8547 31.9395 33.9609 34.8332 33.9609 38.4028C33.9609 41.9724 36.8547 44.8662 40.4243 44.8662Z" fill="#FFD8C9"/>
<path opacity="0.2" d="M41.5024 40.9741C42.6903 40.9741 43.6533 40.3997 43.6533 39.6912C43.6533 38.9826 42.6903 38.4082 41.5024 38.4082C40.3145 38.4082 39.3516 38.9826 39.3516 39.6912C39.3516 40.3997 40.3145 40.9741 41.5024 40.9741Z" fill="#F85565"/>
<path d="M34.5 38.8125V39.3516" stroke="#FBC0AA" stroke-width="4" stroke-linecap="round" stroke-linejoin="round"/>
<path d="M38.8125 35.5781C38.8125 36.007 38.9829 36.4184 39.2862 36.7217C39.5894 37.0249 40.0008 37.1953 40.4297 37.1953C40.8586 37.1953 41.2699 37.0249 41.5732 36.7217C41.8765 36.4184 42.0469 36.007 42.0469 35.5781" stroke="#515570" stroke-width="2" stroke-linecap="round" stroke-linejoin="round"/>
<path d="M26.9531 35.5781C26.9531 36.007 27.1235 36.4184 27.4268 36.7217C27.7301 37.0249 28.1414 37.1953 28.5703 37.1953C28.9992 37.1953 29.4106 37.0249 29.7138 36.7217C30.0171 36.4184 30.1875 36.007 30.1875 35.5781" stroke="#515570" stroke-width="2" stroke-linecap="round" stroke-linejoin="round"/>
<path d="M32.6134 31.4329C33.8966 31.4329 34.9368 30.3926 34.9368 29.1095C34.9368 27.8263 33.8966 26.7861 32.6134 26.7861C31.3302 26.7861 30.29 27.8263 30.29 29.1095C30.29 30.3926 31.3302 31.4329 32.6134 31.4329Z" fill="#F2BC0F"/>
<path d="M36.3868 32.511C37.67 32.511 38.7102 31.4708 38.7102 30.1876C38.7102 28.9045 37.67 27.8643 36.3868 27.8643C35.1037 27.8643 34.0635 28.9045 34.0635 30.1876C34.0635 31.4708 35.1037 32.511 36.3868 32.511Z" fill="#F2BC0F"/>
<path d="M38.5431 30.3547C39.8262 30.3547 40.8664 29.3145 40.8664 28.0314C40.8664 26.7482 39.8262 25.708 38.5431 25.708C37.2599 25.708 36.2197 26.7482 36.2197 28.0314C36.2197 29.3145 37.2599 30.3547 38.5431 30.3547Z" fill="#F2BC0F"/>
<path d="M46.047 24.6943C38.3781 23.751 30.6225 23.751 22.9536 24.6943C22.7107 24.7222 22.4845 24.8319 22.3121 25.0052C22.1397 25.1786 22.0313 25.4054 22.0048 25.6485L21.7191 28.2468C21.7014 28.4114 21.7218 28.5778 21.7787 28.7333C21.8357 28.8887 21.9277 29.029 22.0476 29.1431C22.1675 29.2573 22.312 29.3423 22.4701 29.3916C22.6281 29.4409 22.7954 29.4531 22.9589 29.4273C30.6107 28.2845 38.3898 28.2845 46.0416 29.4273C46.2051 29.4531 46.3724 29.4409 46.5305 29.3916C46.6885 29.3423 46.8331 29.2573 46.953 29.1431C47.0729 29.029 47.1649 28.8887 47.2218 28.7333C47.2788 28.5778 47.2992 28.4114 47.2814 28.2468L46.9957 25.6485C46.9692 25.4054 46.8609 25.1786 46.6885 25.0052C46.5161 24.8319 46.2899 24.7222 46.047 24.6943V24.6943Z" fill="#FF8475"/>
<path d="M46.0033 24.6891C44.7999 22.7173 43.1099 21.0879 41.0954 19.9573C39.081 18.8267 36.8097 18.2329 34.4997 18.2329C32.1897 18.2329 29.9184 18.8267 27.9039 19.9573C25.8895 21.0879 24.1995 22.7173 22.9961 24.6891C30.6368 23.7566 38.3626 23.7566 46.0033 24.6891V24.6891Z" fill="#F85565"/>
<path d="M38.8124 43.6642C38.812 43.2859 38.7121 42.9143 38.5227 42.5869C38.3333 42.2594 38.061 41.9875 37.7333 41.7985C37.4056 41.6095 37.0339 41.5101 36.6556 41.5102C36.2773 41.5103 35.9056 41.6099 35.578 41.7991V41.7991C35.2529 41.996 34.88 42.1002 34.4999 42.1002C34.1198 42.1002 33.7469 41.996 33.4218 41.7991V41.7991C33.1766 41.6358 32.9006 41.5245 32.6107 41.472C32.3209 41.4195 32.0234 41.427 31.7365 41.4939C31.4497 41.5609 31.1796 41.6859 30.9429 41.8612C30.7062 42.0366 30.508 42.2586 30.3604 42.5135C30.2129 42.7684 30.1191 43.0509 30.0849 43.3434C30.0507 43.636 30.0768 43.9325 30.1616 44.2146C30.2464 44.4967 30.3881 44.7584 30.578 44.9836C30.7678 45.2088 31.0018 45.3927 31.2655 45.524C32.2474 46.096 33.3635 46.3974 34.4999 46.3974C35.6363 46.3974 36.7523 46.096 37.7343 45.524C38.0609 45.3354 38.3324 45.0644 38.5216 44.738C38.7108 44.4117 38.8111 44.0414 38.8124 43.6642Z" fill="#F85565"/>
<path d="M34.5 46.8984C35.6909 46.8984 36.6562 45.9331 36.6562 44.7422C36.6562 43.5513 35.6909 42.5859 34.5 42.5859C33.3091 42.5859 32.3438 43.5513 32.3438 44.7422C32.3438 45.9331 33.3091 46.8984 34.5 46.8984Z" fill="#F8DC25"/>
<path d="M34.5 50.0413C35.9886 50.0413 37.1953 48.8756 37.1953 47.4377C37.1953 45.9997 35.9886 44.834 34.5 44.834C33.0114 44.834 31.8047 45.9997 31.8047 47.4377C31.8047 48.8756 33.0114 50.0413 34.5 50.0413Z" stroke="#00ADFE" stroke-width="2" stroke-miterlimit="10"/>
<path d="M16.7109 40.4297V61.507C21.9907 64.9882 28.1759 66.8438 34.5 66.8438C40.8241 66.8438 47.0093 64.9882 52.2891 61.507V60.968L51.9656 60.8925C26.5758 55.5234 18.0101 42.6452 16.7109 40.4297Z" fill="#00ADFE"/>
<path d="M17.0344 60.9141L16.7109 60.9895V61.5286C21.9907 65.0098 28.1759 66.8653 34.5 66.8653C40.8241 66.8653 47.0093 65.0098 52.2891 61.5286L52.3969 40.4297C51.0977 42.6452 42.4242 55.5234 17.0344 60.9141Z" fill="#00ADFE"/>
<path opacity="0.2" d="M16.7109 40.4297V61.507C21.9907 64.9882 28.1759 66.8438 34.5 66.8438C40.8241 66.8438 47.0093 64.9882 52.2891 61.507V60.968L51.9656 60.8925C26.5758 55.5234 18.0101 42.6452 16.7109 40.4297Z" fill="white"/>
<path d="M33.1955 66.8114C22.0423 61.0596 17.6166 54.3698 16.7109 52.8281V61.507C21.6172 64.7496 27.3189 66.5843 33.1955 66.8114V66.8114Z" fill="#00ADFE"/>
<path d="M35.8047 66.8114C41.6813 66.5843 47.3829 64.7496 52.2892 61.507V52.8281C51.3836 54.3698 46.9579 61.0596 35.8047 66.8114Z" fill="#00ADFE"/>
<path opacity="0.4" d="M35.8047 66.8114C41.6813 66.5843 47.3829 64.7496 52.2892 61.507V52.8281C51.3836 54.3698 46.9579 61.0596 35.8047 66.8114Z" fill="white"/>
<path d="M33.1955 66.8114C22.0423 61.0596 17.6166 54.3698 16.7109 52.8281V61.507C21.6172 64.7496 27.3189 66.5843 33.1955 66.8114V66.8114Z" fill="#00ADFE"/>
<path opacity="0.6" d="M33.1955 66.8114C22.0423 61.0596 17.6166 54.3698 16.7109 52.8281V61.507C21.6172 64.7496 27.3189 66.5843 33.1955 66.8114V66.8114Z" fill="white"/>
</svg>
