<svg width="64" height="64" viewBox="0 0 64 64" fill="none" xmlns="http://www.w3.org/2000/svg">
<path d="M23.1493 28.5712L23.8693 28.2112C27.0393 26.6272 30.9583 26.6262 34.1313 28.2112L34.8453 28.5692C35.4093 28.8512 36.0403 29.0002 36.6693 29.0002H36.9293V27.0002H36.6693C36.3493 27.0002 36.0273 26.9242 35.7413 26.7812L35.0273 26.4232C31.2993 24.5622 26.6993 24.5622 22.9763 26.4222L22.2543 26.7832C21.9713 26.9252 21.6513 27.0002 21.3313 27.0002H21.0713V29.0002H21.3313C21.9613 29.0002 22.5903 28.8522 23.1493 28.5712Z" fill="black"/>
<path d="M45.143 25.308L44.984 25.263C44.988 25.151 45 25.041 45 24.929C45 22.773 44.16 20.746 42.636 19.222C39.646 16.232 38 12.257 38 8.029V1H20V8.029C20 12.257 18.354 16.232 15.364 19.221C13.84 20.746 13 22.773 13 24.929C13 26.337 13.364 27.66 14 28.813V33.528C14 36.529 14.691 39.533 16 42.233V48.395C16 50.988 17.288 53.394 19.445 54.833L19.697 55H22V44.692C22 43.203 22.265 41.749 22.748 40.383C24.848 43.127 26 46.456 26 49.97V63H44V49.971C44 45.743 45.646 41.768 48.636 38.779C50.16 37.254 51 35.227 51 33.071C51 29.483 48.592 26.291 45.143 25.308ZM16.508 20.934L22.531 21.006L25.956 15.869L28.434 20H34V18H29.566L27.552 14.643L34.243 12.97L33.758 11.03L25.383 13.124L21.47 18.994L18.243 18.955C20.67 15.841 22 12.041 22 8.029V3H36V8.029C36 12.791 37.854 17.268 41.222 20.635C42.369 21.783 43 23.307 43 24.929C43 28.276 40.276 31 36.929 31H36.67C35.732 31 34.793 30.778 33.955 30.359L33.236 30C31.927 29.346 30.463 29 29 29C27.537 29 26.072 29.346 24.764 30L24.046 30.359C23.208 30.778 22.269 31 21.331 31H21.072C17.724 31 15 28.276 15 24.929C15 23.442 15.536 22.041 16.508 20.934ZM20 44.692V52.747C18.737 51.664 18 50.082 18 48.394V41.763L17.895 41.552C16.655 39.075 16 36.3 16 33.528V31.2C16.874 31.908 17.899 32.431 19.017 32.726C19.012 32.841 19 32.956 19 33.071C19 35.191 19.816 37.184 21.293 38.7C21.115 39.021 21.088 39.086 21.071 39.128C20.36 40.906 20 42.778 20 44.692ZM47.222 37.364C43.854 40.731 42 45.208 42 49.971V61H28V49.971C28 45.209 26.146 40.732 22.778 37.365C21.631 36.217 21 34.693 21 33.071C21 33.046 21.003 33.021 21.004 32.996C21.027 32.996 21.049 32.999 21.072 32.999H21.331C22.578 32.999 23.827 32.704 24.941 32.147L25.659 31.788C27.723 30.756 30.278 30.756 32.343 31.788L33.061 32.147C34.174 32.705 35.422 33 36.669 33H36.928C40.57 33 43.653 30.574 44.654 27.254C47.215 28.012 49 30.393 49 33.071C49 34.693 48.369 36.217 47.222 37.364Z" fill="black"/>
<path d="M38.7138 36.2368C35.9188 37.3548 32.6748 37.2198 29.9838 35.8738L28.4468 35.1048L27.5518 36.8938L29.0888 37.6628C30.6128 38.4248 32.2968 38.8528 33.9988 38.9558V43.4998L29.9988 46.4998V52.9998H31.9988V47.4998L34.9048 45.3198L39.2918 49.7068L40.7058 48.2928L35.9998 43.5858V38.9368C37.1838 38.8208 38.3428 38.5398 39.4578 38.0938L42.3718 36.9278L41.6288 35.0708L38.7138 36.2368Z" fill="black"/>
</svg>
