<svg width="69" height="69" viewBox="0 0 69 69" fill="none" xmlns="http://www.w3.org/2000/svg">
<path d="M58.0058 26.4572C59.084 24.9222 60.8561 21.2916 58.0058 16.7365C57.4313 15.7907 56.6441 14.9919 55.7067 14.4037C55.5005 13.3256 54.6906 10.73 51.4724 8.48616C48.3809 6.33395 43.8689 6.67491 43.0496 6.75981C42.3475 6.53616 41.6197 6.40301 40.8839 6.3636C38.5699 6.25444 36.791 6.88784 35.5229 8.25706C35.1052 8.72469 34.7604 9.25261 34.5 9.82303C34.2397 9.25229 33.8944 8.7243 33.4758 8.25706C32.209 6.88784 30.3951 6.25444 28.1175 6.3636C27.3818 6.40368 26.6541 6.53681 25.9518 6.75981C25.1365 6.67491 20.6192 6.33395 17.5196 8.4902C14.2987 10.7354 13.4887 13.3418 13.2839 14.4091C12.3499 14.9983 11.5657 15.7965 10.9929 16.7406C8.14527 21.2956 9.92282 24.9262 10.9929 26.4625C9.6789 27.5865 7.2356 30.2198 7.88517 33.8288C8.3272 36.2816 9.75032 38.1669 11.7502 39.0335C12.4591 39.6089 16.2959 42.3501 24.739 42.4336V49.2218H21.7472C21.524 48.1355 20.9056 47.1707 20.0118 46.5143C19.118 45.8579 18.0123 45.5566 16.9091 45.6687C15.8058 45.7809 14.7834 46.2985 14.0399 47.1214C13.2965 47.9442 12.8849 49.0137 12.8849 50.1227C12.8849 51.2316 13.2965 52.3011 14.0399 53.124C14.7834 53.9468 15.8058 54.4645 16.9091 54.5766C18.0123 54.6888 19.118 54.3875 20.0118 53.7311C20.9056 53.0746 21.524 52.1099 21.7472 51.0236H25.6432C25.7622 51.0243 25.8802 51.0014 25.9903 50.9562C26.1004 50.9111 26.2005 50.8445 26.2847 50.7604C26.3689 50.6763 26.4356 50.5763 26.481 50.4663C26.5263 50.3563 26.5494 50.2383 26.5489 50.1193V42.4134H26.5866C26.6189 42.4134 26.6459 42.3959 26.6769 42.3918C26.9594 42.442 27.2447 42.4744 27.5313 42.4889C30.5689 42.4889 32.4179 41.5698 33.5553 40.2167V53.8024C32.4717 54.0379 31.5141 54.6672 30.8679 55.5684C30.2217 56.4695 29.9329 57.5784 30.0575 58.6803C30.1821 59.7822 30.7112 60.7986 31.5423 61.5327C32.3734 62.2668 33.4474 62.6663 34.5562 62.6539C35.6651 62.6414 36.7298 62.2179 37.5443 61.4654C38.3587 60.7129 38.8649 59.6848 38.9648 58.5804C39.0646 57.476 38.7511 56.3739 38.0848 55.4874C37.4186 54.601 36.4471 53.9934 35.3585 53.7822V40.0887C36.4851 41.5105 38.3489 42.4889 41.4782 42.4889C41.7656 42.4744 42.0519 42.442 42.3353 42.3918C42.3663 42.3918 42.3932 42.4121 42.4256 42.4134H42.4512V50.1193C42.4512 50.2376 42.4745 50.3548 42.5198 50.4641C42.5652 50.5734 42.6316 50.6727 42.7153 50.7563C42.7991 50.84 42.8985 50.9062 43.0079 50.9514C43.1172 50.9966 43.2344 51.0197 43.3528 51.0195H47.2475C47.4707 52.1058 48.089 53.0706 48.9829 53.727C49.8767 54.3834 50.9823 54.6847 52.0856 54.5726C53.1889 54.4604 54.2113 53.9428 54.9547 53.1199C55.6982 52.2971 56.1097 51.2276 56.1097 50.1186C56.1097 49.0097 55.6982 47.9402 54.9547 47.1173C54.2113 46.2945 53.1889 45.7768 52.0856 45.6647C50.9823 45.5525 49.8767 45.8538 48.9829 46.5102C48.089 47.1667 47.4707 48.1314 47.2475 49.2177H44.2584V42.4296C52.6961 42.346 56.5328 39.6076 57.2458 39.0308C59.247 38.1656 60.6688 36.2775 61.1108 33.8248C61.7631 30.2158 59.3198 27.5824 58.0058 26.4572ZM17.3619 52.7931C16.8327 52.7933 16.3153 52.6366 15.8752 52.3428C15.435 52.0489 15.092 51.6312 14.8893 51.1423C14.6867 50.6534 14.6336 50.1154 14.7368 49.5964C14.84 49.0774 15.0948 48.6006 15.469 48.2264C15.8432 47.8522 16.3199 47.5974 16.839 47.4942C17.358 47.391 17.896 47.4441 18.3849 47.6467C18.8737 47.8494 19.2915 48.1925 19.5854 48.6326C19.8792 49.0727 20.0359 49.5901 20.0356 50.1193C20.0346 50.8281 19.7525 51.5076 19.2513 52.0087C18.7501 52.5099 18.0707 52.792 17.3619 52.7931V52.7931ZM51.6368 47.4442C52.166 47.4439 52.6833 47.6006 53.1234 47.8944C53.5635 48.1882 53.9066 48.6059 54.1092 49.0947C54.3119 49.5834 54.3651 50.1214 54.262 50.6404C54.159 51.1594 53.9043 51.6362 53.5302 52.0104C53.1562 52.3847 52.6795 52.6396 52.1605 52.7429C51.6416 52.8462 51.1036 52.7933 50.6148 52.5909C50.1259 52.3885 49.708 52.0456 49.414 51.6056C49.12 51.1657 48.9631 50.6484 48.9631 50.1193C48.9634 49.4102 49.2452 48.7302 49.7465 48.2286C50.2478 47.727 50.9277 47.4449 51.6368 47.4442V47.4442ZM53.5478 13.5385C51.4832 13.0776 49.2919 13.4711 47.606 14.0776C47.6451 12.6235 47.4321 10.4672 46.1236 8.78399C46.0535 8.6937 45.9605 8.62901 45.8864 8.54411C47.3378 8.6627 49.0938 9.01848 50.4468 9.96184C52.2365 11.2138 53.1085 12.548 53.5478 13.5385V13.5385ZM18.5559 9.96454C19.9036 9.02118 21.6555 8.67079 23.1137 8.55085C23.0396 8.6344 22.9479 8.69774 22.8792 8.78803C21.5693 10.4713 21.3563 12.6262 21.3968 14.0803C19.7122 13.4711 17.5196 13.079 15.4523 13.5412C15.8902 12.5493 16.7622 11.2152 18.5559 9.96454ZM27.5259 40.6911C25.9195 40.6911 24.7982 40.0914 24.3697 39.0025C23.9546 37.9473 24.2632 36.5767 25.088 35.8072C25.8171 35.1334 26.7874 35.0512 27.8911 35.5808C28.1066 35.6844 28.3545 35.6982 28.5802 35.6191C28.8059 35.54 28.9909 35.3745 29.0946 35.159C29.1982 34.9434 29.212 34.6956 29.1329 34.4699C29.0538 34.2442 28.8883 34.0592 28.6728 33.9555C28.1043 33.6886 27.4909 33.5305 26.8642 33.4892C27.1337 33.0112 27.3214 32.4915 27.4194 31.9515C27.4371 31.8346 27.4316 31.7152 27.4032 31.6004C27.3748 31.4855 27.324 31.3774 27.2538 31.2822C27.1836 31.187 27.0953 31.1065 26.994 31.0454C26.8927 30.9842 26.7804 30.9437 26.6634 30.926C26.5464 30.9083 26.4271 30.9138 26.3123 30.9422C26.1974 30.9706 26.0893 31.0214 25.994 31.0916C25.8988 31.1618 25.8183 31.2501 25.7572 31.3514C25.6961 31.4527 25.6555 31.565 25.6378 31.682C25.4909 32.651 24.4249 33.9353 24.0314 34.349C24.0233 34.3585 24.0207 34.3706 24.0112 34.3814C23.964 34.4218 23.9061 34.4407 23.8589 34.4838C22.5005 35.7466 22.0113 37.923 22.6919 39.6588C22.8361 39.9901 23.0228 40.3013 23.2471 40.5846C20.0599 40.4121 17.6826 39.8313 16.0115 39.2235C16.9848 38.9003 17.855 38.3246 18.533 37.5551C18.6788 37.3748 18.7494 37.1451 18.7301 36.914C18.7108 36.6829 18.603 36.4682 18.4292 36.3146C18.2555 36.161 18.0291 36.0804 17.7974 36.0895C17.5657 36.0987 17.3464 36.1969 17.1853 36.3638C16.6795 36.9397 16.0201 37.3597 15.2843 37.5745C14.5485 37.7893 13.7667 37.79 13.0305 37.5767C11.2961 37.0942 10.0401 35.57 9.66138 33.5014C9.16814 30.7656 11.195 28.6579 12.2111 27.7927C12.7408 28.2536 13.5588 28.8802 14.4685 29.2293C14.5722 29.2689 14.6822 29.2894 14.7933 29.2899C15.0035 29.2895 15.2071 29.2157 15.3687 29.0811C15.5302 28.9465 15.6397 28.7596 15.6781 28.5529C15.7164 28.3461 15.6813 28.1325 15.5788 27.9488C15.4763 27.7652 15.3128 27.6232 15.1167 27.5474C13.9927 27.1175 12.9375 26.0097 12.9241 25.9936C12.9106 25.9774 12.9133 25.9936 12.9092 25.9828C12.907 25.9784 12.9043 25.9744 12.9011 25.9707C12.7664 25.8359 9.51853 22.495 12.5198 17.692C15.4738 12.9644 21.7539 16.1786 22.0221 16.3174C22.173 16.3964 22.3432 16.431 22.5129 16.4172C22.6827 16.4035 22.8451 16.3419 22.9813 16.2397C23.1175 16.1374 23.222 15.9987 23.2826 15.8395C23.3433 15.6804 23.3576 15.5073 23.3239 15.3403C23.3239 15.3066 22.669 11.9914 24.301 9.89311C25.1271 8.83251 26.4397 8.25167 28.2092 8.16407C29.9126 8.06973 31.2616 8.51985 32.1551 9.47669C33.2871 10.6977 33.5567 12.5332 33.5904 13.769C33.5694 13.8346 33.5558 13.9024 33.5499 13.9711C33.5499 15.6045 33.0944 16.7298 32.2333 17.2257C31.4624 17.6731 30.4395 17.5613 29.8695 17.2257C28.9841 16.7136 28.4787 16.1691 28.4086 15.653C28.3345 15.0991 28.7738 14.6301 28.7967 14.6072C28.9646 14.4393 29.0594 14.2119 29.0606 13.9745C29.0618 13.7371 28.9693 13.5088 28.8032 13.3392C28.6372 13.1695 28.4108 13.0722 28.1735 13.0684C27.9361 13.0646 27.7068 13.1546 27.5353 13.3189C27.4221 13.4294 26.4424 14.428 26.6176 15.8619C26.7523 16.9791 27.5461 17.9629 28.9665 18.7849C29.6127 19.1392 30.3388 19.322 31.0756 19.3159C31.7975 19.3204 32.5078 19.1345 33.1348 18.7769C33.2793 18.6928 33.418 18.5991 33.5499 18.4965V27.0003C33.3517 26.7753 33.1397 26.5629 32.9152 26.3642C31.0015 24.7133 28.2442 24.0139 24.6945 24.2888C23.5722 24.359 22.4828 24.6958 21.5167 25.2712C21.4682 25.2568 21.4187 25.2464 21.3685 25.2402C21.3456 25.2402 19.1367 25.185 17.7567 22.8913C17.0263 21.6784 17.7972 19.9264 17.8039 19.9075C17.8698 19.6972 17.8564 19.47 17.7662 19.2689C17.6759 19.0677 17.5151 18.9066 17.3142 18.816C17.1132 18.7254 16.886 18.7116 16.6755 18.7771C16.4651 18.8427 16.2859 18.983 16.1719 19.1717C16.1247 19.2782 14.9954 21.801 16.2191 23.8319C17.0291 25.223 18.3252 26.2652 19.8577 26.7577C18.3605 28.6444 17.971 31.174 18.0586 32.8073C18.0717 33.037 18.172 33.253 18.3392 33.411C18.5063 33.5691 18.7275 33.6574 18.9575 33.6577H19.002C19.1203 33.6513 19.2361 33.6217 19.3429 33.5704C19.4497 33.5192 19.5454 33.4474 19.6244 33.3591C19.7034 33.2709 19.7642 33.1679 19.8033 33.0561C19.8424 32.9443 19.8591 32.8258 19.8524 32.7076C19.8375 32.4556 19.5693 26.5084 24.8387 26.0973C32.9125 25.4707 33.5216 30.7157 33.5567 31.0365V32.4044C33.5567 37.4069 33.1308 40.6871 27.5259 40.6871V40.6911ZM37.1751 58.1756C37.1746 58.7046 37.0172 59.2215 36.723 59.6611C36.4287 60.1006 36.0107 60.4431 35.5219 60.6451C35.033 60.8472 34.4952 60.8998 33.9765 60.7963C33.4577 60.6927 32.9813 60.4377 32.6075 60.0635C32.2336 59.6893 31.9791 59.2126 31.8761 58.6938C31.7731 58.1749 31.8263 57.6372 32.0288 57.1486C32.2314 56.6599 32.5742 56.2423 33.0141 55.9484C33.454 55.6546 33.9711 55.4978 34.5 55.4978C35.209 55.4985 35.8889 55.7804 36.3903 56.2816C36.8918 56.7829 37.174 57.4625 37.1751 58.1715V58.1756ZM59.3373 33.5135C58.9654 35.5808 57.708 37.1036 55.9749 37.5874C55.2384 37.8001 54.4567 37.799 53.7208 37.5842C52.9849 37.3695 52.3253 36.9499 51.8188 36.3746C51.6577 36.2077 51.4384 36.1095 51.2067 36.1003C50.9749 36.0911 50.7486 36.1718 50.5749 36.3254C50.4011 36.479 50.2933 36.6937 50.274 36.9248C50.2547 37.1559 50.3253 37.3856 50.4711 37.5659C51.1497 38.3269 52.0165 38.8962 52.9845 39.2168C51.312 39.8232 48.9348 40.404 45.753 40.5765C45.9771 40.2939 46.1633 39.9831 46.3068 39.6521C46.9887 37.9163 46.4996 35.7439 45.1398 34.4771C45.0939 34.4339 45.036 34.4151 44.9888 34.3746C44.9794 34.3639 44.9767 34.3517 44.9673 34.3423C44.5697 33.9286 43.5078 32.6442 43.3622 31.6753C43.3237 31.4405 43.1951 31.2299 43.0039 31.0883C42.8127 30.9466 42.5739 30.885 42.338 30.9165C42.1016 30.9521 41.889 31.0802 41.7469 31.2725C41.6049 31.4648 41.5451 31.7057 41.5806 31.9421C41.6782 32.482 41.8654 33.0017 42.1345 33.4798C41.5082 33.5204 40.8951 33.6786 40.3273 33.9461C40.1109 34.049 39.9442 34.2337 39.864 34.4595C39.7837 34.6853 39.7965 34.9338 39.8994 35.1502C40.0023 35.3666 40.187 35.5333 40.4129 35.6135C40.6387 35.6938 40.8871 35.681 41.1035 35.5781C42.2059 35.0485 43.1776 35.1253 43.9053 35.8045C44.7314 36.57 45.04 37.9446 44.6236 38.9998C44.1964 40.0887 43.0752 40.6884 41.4674 40.6884C35.8652 40.6884 35.4461 37.4082 35.4461 32.4057V31.0446C35.6349 29.7609 36.2792 28.588 37.2614 27.7401C38.7977 26.414 41.1116 25.8628 44.1533 26.0973C49.3997 26.5016 49.1531 32.4569 49.1396 32.7103C49.1279 32.9482 49.2109 33.1811 49.3706 33.3579C49.5302 33.5348 49.7534 33.6411 49.9913 33.6536H50.0412C50.2711 33.6533 50.4921 33.565 50.659 33.4069C50.8259 33.2488 50.926 33.0328 50.9387 32.8033C51.029 31.1699 50.6369 28.6377 49.1383 26.7536C50.6709 26.2613 51.9671 25.2191 52.7769 23.8279C54.0006 21.797 52.8713 19.2741 52.8241 19.1677C52.7242 18.951 52.5426 18.7827 52.3188 18.6997C52.0951 18.6167 51.8477 18.6258 51.6306 18.7249C51.4136 18.8241 51.2447 19.0052 51.161 19.2287C51.0773 19.4521 51.0856 19.6996 51.184 19.917C51.1921 19.9345 51.9603 21.6918 51.2325 22.898C49.8687 25.158 47.7057 25.2443 47.6195 25.247C47.5686 25.2528 47.5185 25.2636 47.4699 25.2793C46.5041 24.7028 45.4146 24.3655 44.2921 24.2955C40.7505 24.0192 37.9931 24.72 36.0795 26.3709C35.8537 26.5697 35.6408 26.7826 35.442 27.0083V18.4992C35.5761 18.6027 35.7165 18.6977 35.8625 18.7836C36.4896 19.1412 37.1999 19.3272 37.9217 19.3227C38.659 19.3285 39.3855 19.1457 40.0321 18.7917C41.4512 17.9696 42.2396 16.9858 42.3798 15.8686C42.555 14.4347 41.5712 13.4428 41.462 13.3256C41.2905 13.1589 41.0597 13.0671 40.8205 13.0705C40.5813 13.0739 40.3532 13.1722 40.1865 13.3438C40.0197 13.5153 39.928 13.7461 39.9314 13.9853C39.9348 14.2245 40.0331 14.4526 40.2046 14.6193C40.2046 14.6193 40.6575 15.0964 40.5887 15.6476C40.5254 16.1678 40.02 16.7149 39.1292 17.2324C38.5565 17.5626 37.5349 17.6731 36.7641 17.2324C35.9029 16.7365 35.4474 15.6153 35.4474 13.9779C35.4419 13.9058 35.4274 13.8347 35.4043 13.7663C35.442 12.5534 35.7048 10.7111 36.8463 9.48477C37.7357 8.52659 39.0834 8.07647 40.7909 8.17081C42.5536 8.25706 43.8649 8.84464 44.6883 9.89311C46.3176 11.9779 45.6802 15.3147 45.6734 15.3484C45.6406 15.5152 45.6556 15.6878 45.7165 15.8464C45.7774 16.0051 45.8819 16.1433 46.0179 16.2452C46.1539 16.3471 46.3158 16.4086 46.4852 16.4226C46.6546 16.4365 46.8244 16.4024 46.9753 16.3241C47.2448 16.1894 53.5208 12.9658 56.4776 17.6987C59.4775 22.5018 56.235 25.8372 56.0976 25.9733C56.0976 25.9733 56.0976 25.9855 56.0868 25.9895C56.076 25.9936 56.0773 25.9895 56.0733 26.0003C55.7809 26.3116 54.82 27.1943 53.8793 27.5568C53.6832 27.6327 53.5197 27.7747 53.4172 27.9583C53.3147 28.1419 53.2796 28.3556 53.3179 28.5623C53.3563 28.7691 53.4658 28.9559 53.6273 29.0905C53.7889 29.2251 53.9925 29.299 54.2028 29.2994C54.3138 29.2988 54.4238 29.2783 54.5275 29.2387C55.4332 28.8897 56.2552 28.263 56.7835 27.8021C57.8037 28.6606 59.836 30.7683 59.3373 33.5054V33.5135Z" fill="black"/>
</svg>
