<svg width="69" height="69" viewBox="0 0 69 69" fill="none" xmlns="http://www.w3.org/2000/svg">
<path d="M24.7855 50.8636L22.8982 54.0581C22.7087 54.3789 22.454 54.6563 22.1505 54.8724C21.8471 55.0885 21.5016 55.2384 21.1364 55.3125L19.4035 55.6642C18.8355 55.7795 18.2454 55.7061 17.7229 55.4552C17.2004 55.2043 16.7742 54.7896 16.509 54.2743L14.9622 51.2691L11.4363 52.6085L13.4768 55.8215C13.8506 56.41 14.0352 57.0988 14.0059 57.7954C13.9766 58.492 13.7349 59.1629 13.3131 59.718L10.7314 63.1164L14.0459 64.7381L17.2095 60.2371C17.5331 59.7766 18.0209 59.4576 18.5725 59.346L21.8476 58.6825C22.2731 58.5964 22.7147 58.6381 23.1166 58.8024C23.5185 58.9667 23.8628 59.2463 24.1061 59.6059L26.5292 63.187L30.266 61.8476L27.1425 57.527C26.8122 57.07 26.6203 56.5276 26.5898 55.9646C26.5593 55.4015 26.6914 54.8416 26.9704 54.3516L28.2083 52.1775C28.3912 51.8561 28.5913 51.5449 28.8078 51.2452C27.719 50.8551 26.3526 50.7555 24.7855 50.8636Z" fill="#FFA9CC"/>
<path d="M31.4639 42.9478L25.9642 44.2172C25.9642 44.2172 26.4799 45.2883 26.2023 47.2349C26.0357 48.3449 25.6528 49.4115 25.0753 50.374L24.7861 50.8637L28.8086 51.2452C29.4193 50.393 30.1682 49.6491 31.0243 49.0441C31.7931 48.5051 32.6787 48.0529 33.5098 48.0253L31.4639 42.9478Z" fill="#464965"/>
<path d="M46.4795 42.2212C46.4795 42.2212 48.9264 45.945 45.8967 49.0173C42.867 52.0896 37.849 51.0061 36.0977 48.307L46.4795 42.2212Z" fill="#464965"/>
<path d="M18.3795 29.8551C18.3795 29.8551 14.9784 26.5612 17.5381 22.5224C20.0978 18.4837 25.8993 20.8159 25.8993 20.8159L18.3795 29.8551Z" fill="#464965"/>
<path d="M57.5587 54.237L53.1535 53.7617C52.2886 53.6684 51.4595 53.3655 50.7381 52.8793C50.0167 52.3932 49.4247 51.7385 49.0135 50.9719L48.1382 49.3398C47.4482 50.4256 46.8323 51.9446 46.2669 53.7678L46.3363 53.8961C46.9487 55.0279 47.1326 56.3425 46.8544 57.5989L45.5586 63.4495L49.1352 64.3569L50.0949 60.2711C50.2994 59.4008 50.8104 58.6332 51.5345 58.1089C52.2586 57.5845 53.1472 57.3384 54.0379 57.4157L57.1741 57.6878L57.5587 54.237Z" fill="#FFA9CC"/>
<path d="M51.3604 13.6782L53.9594 11.5355C54.3754 11.1926 54.7181 10.7696 54.9673 10.2916C55.2165 9.81359 55.3671 9.29036 55.41 8.75301L55.7695 4.26172H58.9883V7.6135C58.9883 8.27191 59.2305 8.90732 59.6688 9.39867C60.1071 9.89002 60.7108 10.203 61.3649 10.2779L65.4739 10.7485V14.6606L59.5397 13.4736C58.9232 13.3502 58.2864 13.3732 57.6803 13.5405C57.0743 13.7078 56.516 14.015 56.0501 14.4372L52.5108 17.6437C52.3387 17.7995 52.175 17.9623 52.0195 18.1321C51.6079 16.6823 51.3864 15.1851 51.3604 13.6782V13.6782Z" fill="#FFA9CC"/>
<path d="M4.40084 21.6984L8.68493 20.5674C9.52603 20.3454 10.4086 20.3318 11.2561 20.5279C12.1036 20.724 12.8905 21.1238 13.5486 21.6927L15.5025 23.382C15.8275 21.8066 15.8906 20.1884 15.6894 18.5925L15.0035 18.004C14.0269 17.166 13.3851 16.004 13.1959 14.7312L12.3145 8.80469L8.64982 9.23573L9.21379 13.3942C9.33411 14.2801 9.13136 15.1797 8.64268 15.9284C8.15399 16.677 7.41204 17.2247 6.55263 17.4711L3.52637 18.3381L4.40084 21.6984Z" fill="#FFA9CC"/>
<path d="M15.502 23.3821L20.1087 27.3648L22.5771 24.5035L15.6889 18.5933L15.502 23.3821Z" fill="#464965"/>
<path d="M50.2118 24.3852C50.0026 23.2745 50.0574 22.1302 50.3717 21.0447C50.6861 19.9591 51.2513 18.9626 52.0217 18.1356L51.3599 13.6782L45.1221 18.8203L45.9639 23.3764L50.2721 24.6638C50.2502 24.5702 50.2301 24.4773 50.2118 24.3852Z" fill="#464965"/>
<path d="M46.2668 53.7679L48.1381 49.3399L44.914 43.3296L41.5859 45.1191L46.2668 53.7679Z" fill="#464965"/>
<path d="M61.9523 32.6493V36.4623H56.6431C55.301 36.4591 53.9637 36.6217 52.6614 36.9463C51.5798 37.2185 50.3648 37.6037 49.5723 38.0964V30.8169C49.5723 30.8169 52.0977 33.4911 61.9523 32.6493Z" fill="#FFA9CC"/>
<path d="M33.9318 4.26172H37.745V9.57046C37.7419 10.9125 37.9044 12.2499 38.2288 13.5522C38.5012 14.6338 38.8862 15.8488 39.3791 16.6415H32.0996C32.0996 16.6415 34.7728 14.1159 33.9318 4.26172Z" fill="#FFA9CC"/>
<path d="M18.1454 35.4429C18.1454 35.4429 17.8019 36.8515 16.0933 37.948C15.2117 38.5058 14.1627 38.7377 13.1281 38.6035L6.19605 37.743L5.85938 40.7725L16.2341 41.9364C17.1315 42.037 18.0206 42.2004 18.8951 42.4255C20.2619 42.7774 22.1732 43.3484 23.0264 43.9703L22.6335 37.3503L18.1454 35.4429Z" fill="#FFA9CC"/>
<path d="M52.4874 27.8146C52.4871 26.3924 52.0222 25.0091 51.1634 23.8754C50.3046 22.7416 49.0989 21.9195 47.7299 21.534L47.448 20.0856C47.0813 18.9282 46.3992 17.8958 45.4783 17.1046C44.5573 16.3133 43.4341 15.7944 42.2346 15.6061L39.6015 15.7332C38.9658 15.0568 38.1814 14.5376 37.3104 14.2169C36.4393 13.8962 35.5056 13.7827 34.5831 13.8853C33.6606 13.988 32.7746 14.304 31.9954 14.8083C31.2162 15.3127 30.5651 15.9915 30.0937 16.7911C29.1536 16.4515 28.1397 16.3699 27.1574 16.5548C26.1751 16.7397 25.2603 17.1844 24.508 17.8426C23.7557 18.5008 23.1935 19.3484 22.8798 20.2975C22.5661 21.2465 22.5123 22.2623 22.7241 23.2391C22.6442 23.2351 22.5639 23.233 22.483 23.2328C21.7027 23.2328 20.9354 23.432 20.2536 23.8116C19.5719 24.1912 18.9985 24.7386 18.5876 25.4019C18.1767 26.0652 17.942 26.8224 17.9057 27.6018C17.8694 28.3813 18.0328 29.157 18.3803 29.8556C17.5573 30.3909 16.9279 31.1764 16.5852 32.0964C16.2424 33.0164 16.2042 34.0222 16.4764 34.9655C16.7485 35.9088 17.3165 36.7397 18.0967 37.3358C18.8768 37.9318 19.8278 38.2614 20.8095 38.2761L20.4625 40.0011C20.4602 40.0628 20.4591 40.1247 20.4592 40.187C20.4591 41.1268 20.705 42.0504 21.1726 42.8657C21.6401 43.681 22.3129 44.3598 23.1242 44.8344C23.9354 45.309 24.8568 45.5629 25.7966 45.571C26.7365 45.579 27.6621 45.3408 28.4813 44.8802L29.0721 46.2263C29.5475 47.0444 30.1955 47.7491 30.971 48.2913C31.7465 48.8334 32.6309 49.2001 33.5626 49.3656C34.4942 49.5311 35.4508 49.4916 36.3656 49.2498C37.2804 49.008 38.1315 48.5698 38.8597 47.9655C40.3244 48.4148 41.9064 48.2764 43.2708 47.5796C44.6352 46.8828 45.6748 45.6823 46.1694 44.2324C46.1694 44.2324 46.4797 42.2592 46.4789 42.2212C47.4554 42.0264 48.3666 41.5872 49.1272 40.9446C49.8879 40.3021 50.4733 39.4772 50.8287 38.5471C51.1841 37.6169 51.298 36.6119 51.1596 35.6258C51.0211 34.6397 50.635 33.7048 50.0373 32.9085C50.8022 32.2981 51.4197 31.5231 51.8439 30.6413C52.2681 29.7594 52.488 28.7932 52.4874 27.8146Z" fill="url(#paint0_linear_768_707)"/>
<path d="M45.0748 28.6757C44.4036 27.0238 42.0968 26.8985 41.3131 28.5002C41.1075 28.9127 40.9959 29.3656 40.9863 29.8264C40.9909 30.4714 41.2294 31.0929 41.6577 31.5753C42.7941 32.9553 45.0265 32.3901 45.3059 30.6241C45.4106 29.9658 45.3306 29.2913 45.0748 28.6757V28.6757Z" fill="#464965"/>
<path d="M30.1574 37.7973C30.2751 37.5379 30.3152 37.25 30.2729 36.9684C30.2306 36.6867 30.1076 36.4233 29.9189 36.21C29.7302 35.9967 29.4837 35.8426 29.2093 35.7663C28.9349 35.69 28.6443 35.6948 28.3725 35.78C28.0585 35.8803 27.7705 36.0488 27.5291 36.2734C27.2006 36.5973 27.0007 37.0295 26.9666 37.4896C26.9311 37.7726 26.9783 38.0598 27.1025 38.3166C27.2267 38.5733 27.4226 38.7886 27.6665 38.9364C27.9104 39.0842 28.1919 39.1582 28.477 39.1495C28.7621 39.1408 29.0386 39.0497 29.273 38.8873C29.663 38.6128 29.9691 38.2354 30.1574 37.7973Z" fill="#464965"/>
<path d="M30.4487 25.4549C30.9569 25.4549 31.369 25.0429 31.369 24.5346C31.369 24.0263 30.9569 23.6143 30.4487 23.6143C29.9404 23.6143 29.5283 24.0263 29.5283 24.5346C29.5283 25.0429 29.9404 25.4549 30.4487 25.4549Z" fill="#464965"/>
<path d="M35.7387 39.3421C36.247 39.3421 36.659 38.9301 36.659 38.4218C36.659 37.9135 36.247 37.5015 35.7387 37.5015C35.2304 37.5015 34.8184 37.9135 34.8184 38.4218C34.8184 38.9301 35.2304 39.3421 35.7387 39.3421Z" fill="#464965"/>
<path d="M57.2354 56.9798L54.0994 56.7078C53.0396 56.6207 51.9836 56.9157 51.1223 57.5394C50.2611 58.1631 49.6514 59.0744 49.4035 60.1085L48.4436 64.1941C48.4223 64.2849 48.4191 64.3791 48.4341 64.4711C48.4492 64.5632 48.4822 64.6514 48.5313 64.7307C48.5805 64.8099 48.6448 64.8788 48.7205 64.9332C48.7962 64.9877 48.882 65.0267 48.9728 65.048C49.0636 65.0693 49.1577 65.0725 49.2498 65.0575C49.3418 65.0424 49.43 65.0094 49.5093 64.9603C49.5886 64.9111 49.6574 64.8468 49.7119 64.7711C49.7663 64.6954 49.8053 64.6096 49.8267 64.5188L50.7864 60.433C50.9544 59.7303 51.3685 59.111 51.9537 58.6872C52.5389 58.2634 53.2565 58.0632 53.9766 58.1227L57.1126 58.3949C57.2056 58.4029 57.2992 58.3926 57.3882 58.3645C57.4771 58.3364 57.5597 58.291 57.6311 58.231C57.7025 58.171 57.7614 58.0975 57.8044 58.0147C57.8474 57.9319 57.8737 57.8415 57.8818 57.7485C57.8899 57.6556 57.8795 57.562 57.8514 57.473C57.8233 57.384 57.7779 57.3015 57.7179 57.2301C57.6579 57.1587 57.5844 57.0998 57.5016 57.0567C57.4188 57.0137 57.3284 56.9874 57.2354 56.9794V56.9798Z" fill="#464965"/>
<path d="M65.6137 13.9646L59.6793 12.7774C58.954 12.6336 58.205 12.6613 57.4922 12.8581C56.7794 13.0549 56.1225 13.4154 55.5736 13.911L52.5238 16.6751L52.1222 13.9709L54.4116 12.0835C54.8999 11.6791 55.3025 11.1812 55.5957 10.619C55.8889 10.0568 56.0667 9.4416 56.1187 8.80968L56.4779 4.31818C56.4854 4.2252 56.4744 4.13166 56.4457 4.04291C56.417 3.95416 56.3711 3.87193 56.3106 3.80092C56.2501 3.72991 56.1762 3.67152 56.0931 3.62906C56.0101 3.58661 55.9195 3.56093 55.8265 3.5535C55.7335 3.54606 55.64 3.55701 55.5512 3.58573C55.4625 3.61444 55.3802 3.66036 55.3092 3.72085C55.2382 3.78134 55.1798 3.85523 55.1374 3.93829C55.0949 4.02135 55.0692 4.11196 55.0618 4.20494L54.7024 8.69643C54.666 9.13867 54.5416 9.56917 54.3365 9.96264C54.1313 10.3561 53.8496 10.7046 53.5079 10.9876L46.3083 16.9229C45.472 16.0887 44.4434 15.4728 43.3131 15.1295C42.1828 14.7863 40.9854 14.7261 39.8264 14.9543C39.6337 14.7742 39.4304 14.6058 39.2176 14.45C39.1139 14.119 39.0128 13.76 38.9172 13.3791C38.607 12.1335 38.4517 10.8544 38.4547 9.5707V4.26197C38.4547 4.07358 38.3799 3.89292 38.2467 3.75971C38.1135 3.62651 37.9328 3.55167 37.7444 3.55167C37.556 3.55167 37.3754 3.62651 37.2422 3.75971C37.109 3.89292 37.0341 4.07358 37.0341 4.26197V9.5707C37.0322 10.9045 37.1866 12.234 37.494 13.5319C36.4748 13.161 35.3794 13.0494 34.3064 13.2072C34.8326 10.8032 34.9448 7.78015 34.639 4.20027C34.6229 4.01256 34.5328 3.83896 34.3887 3.71764C34.2445 3.59633 34.0581 3.53725 33.8704 3.5534C33.6827 3.56954 33.5091 3.6596 33.3877 3.80374C33.2664 3.94789 33.2073 4.13433 33.2235 4.32204C33.6261 9.03433 33.1955 11.964 32.7385 13.6332C31.5565 14.1122 30.5348 14.9169 29.7922 15.9538C28.3543 15.5776 26.8297 15.7213 25.4874 16.3595C24.145 16.9976 23.0712 18.0893 22.4552 19.442C21.0379 19.417 19.8097 19.7103 18.7938 20.3201L15.4655 17.4651C14.6186 16.7384 14.0621 15.7308 13.898 14.627L13.0172 8.70029C12.9895 8.51395 12.8889 8.34626 12.7376 8.2341C12.5862 8.12194 12.3965 8.0745 12.2101 8.10222C12.0238 8.12994 11.8561 8.23055 11.744 8.38191C11.6318 8.53327 11.5844 8.72298 11.6121 8.90932L12.4935 14.8364C12.7078 16.2783 13.4348 17.5945 14.5411 18.5438L14.9673 18.909L14.8512 21.8797L14.0139 21.1558C13.2685 20.511 12.377 20.0578 11.4167 19.8357C10.4565 19.6135 9.45651 19.629 8.50363 19.8809L4.21954 21.0117C4.03808 21.0604 3.88331 21.179 3.7891 21.3416C3.69489 21.5041 3.66893 21.6974 3.7169 21.8791C3.76486 22.0607 3.88284 22.216 4.04502 22.3108C4.20719 22.4057 4.40035 22.4325 4.5822 22.3852L8.86629 21.2542C9.59567 21.0616 10.361 21.0498 11.096 21.2199C11.831 21.39 12.5134 21.7368 13.084 22.2302L15.9455 24.7036C15.5851 27.0078 16.6623 28.8436 17.3547 29.7504C16.3916 30.6066 15.7758 31.7862 15.6238 33.0659C15.4718 34.3456 15.7942 35.6366 16.53 36.6946C16.2806 36.9415 16.0057 37.1614 15.7101 37.3505C14.968 37.8183 14.0859 38.0121 13.2161 37.8985L6.28406 37.038C6.09711 37.0148 5.90858 37.0668 5.75996 37.1825C5.61134 37.2983 5.5148 37.4684 5.49158 37.6553C5.46835 37.8423 5.52035 38.0308 5.63612 38.1794C5.7519 38.3281 5.92197 38.4246 6.10892 38.4478L13.0412 39.3083C13.2592 39.3353 13.4786 39.3489 13.6983 39.3489C14.6825 39.3522 15.6469 39.0733 16.4774 38.5452C16.8399 38.3123 17.1779 38.0434 17.4864 37.7426C18.1756 38.3244 19.0022 38.7202 19.8876 38.8921C19.6648 39.9215 19.7116 40.991 20.0236 41.9971C19.7192 41.9098 19.4058 41.8231 19.0728 41.7373C18.1661 41.5042 17.2443 41.3347 16.314 41.2299L5.93926 40.0661C5.75204 40.0451 5.56413 40.0993 5.41688 40.2168C5.26963 40.3343 5.1751 40.5055 5.15408 40.6928C5.13307 40.88 5.18728 41.0679 5.30481 41.2151C5.42234 41.3624 5.59354 41.4569 5.78077 41.4779L16.1557 42.6418C17.0199 42.7388 17.8762 42.8961 18.7185 43.1126C19.554 43.3277 20.2929 43.5473 20.9151 43.7651C21.4526 44.5061 22.1502 45.1165 22.956 45.5508C23.7619 45.9851 24.6553 46.2322 25.5698 46.2736C25.5631 46.5615 25.5394 46.8488 25.4989 47.1339C25.3465 48.152 24.9948 49.13 24.4639 50.012L22.2872 53.6984C22.1481 53.9335 21.9614 54.1367 21.7389 54.295C21.5164 54.4534 21.2633 54.5633 20.9957 54.6178L19.2632 54.9693C18.8468 55.053 18.4145 54.9989 18.0317 54.8152C17.6488 54.6314 17.3363 54.3279 17.1412 53.9507L15.5944 50.9443C15.5068 50.7795 15.3578 50.6558 15.1796 50.6C15.0015 50.5442 14.8085 50.5607 14.6425 50.6461C14.4765 50.7314 14.3507 50.8787 14.2924 51.056C14.2342 51.2334 14.248 51.4266 14.3311 51.5937L15.8779 54.5991C16.1633 55.1495 16.5943 55.611 17.1239 55.9332C17.6535 56.2555 18.2615 56.4262 18.8814 56.4268C19.1045 56.4267 19.327 56.4043 19.5457 56.36L21.2782 56.0083C21.7407 55.9143 22.1784 55.7243 22.5629 55.4505C22.9475 55.1768 23.2703 54.8254 23.5105 54.4191L25.6865 50.7355C26.3121 49.6934 26.7259 48.538 26.9041 47.3356C26.9593 46.95 26.9883 46.5611 26.991 46.1716C27.636 46.0481 28.2568 45.8211 28.8292 45.4992C28.8327 45.4972 28.8355 45.4943 28.8389 45.4923C28.8424 45.4903 28.8503 45.4868 28.856 45.4834C29.3355 45.1559 29.7725 44.7703 30.1571 44.3353C30.8065 44.572 31.4924 44.6927 32.1836 44.6919C32.3115 44.6919 32.4414 44.6878 32.5733 44.6795C32.667 44.6745 32.7587 44.651 32.8432 44.6103C32.9278 44.5696 33.0034 44.5126 33.0658 44.4425C33.1282 44.3724 33.176 44.2907 33.2066 44.202C33.2372 44.1133 33.25 44.0194 33.2441 43.9258C33.2382 43.8322 33.2139 43.7406 33.1724 43.6565C33.131 43.5723 33.0733 43.4972 33.0026 43.4355C32.932 43.3737 32.8498 43.3266 32.7609 43.2968C32.6719 43.267 32.578 43.2551 32.4844 43.2618C29.5906 43.4444 27.9827 40.914 27.9097 40.7969C27.81 40.6386 27.652 40.526 27.4698 40.4835C27.2877 40.441 27.0961 40.4721 26.9367 40.57C26.7774 40.6679 26.6631 40.8248 26.6186 41.0064C26.5742 41.1881 26.6032 41.38 26.6993 41.5404C27.2583 42.385 27.9825 43.1077 28.8282 43.665C28.609 43.8862 28.3714 44.0883 28.1179 44.2692C27.3051 44.7244 26.3746 44.9259 25.4463 44.8479C24.518 44.7699 23.6342 44.4158 22.9088 43.8313C22.1833 43.2469 21.6494 42.4587 21.3757 41.5682C21.1019 40.6777 21.1009 39.7257 21.3727 38.8346C22.1236 38.5363 23.7689 37.6438 25.0933 35.2328C25.5951 34.2836 26.3023 33.4582 27.1633 32.8166C28.0212 32.1879 28.998 31.7403 30.0344 31.501C31.0707 31.2616 32.1449 31.2356 33.1916 31.4244C33.0654 32.7584 33.1813 34.1041 33.5338 35.3968C33.5581 35.4869 33.5999 35.5714 33.6569 35.6453C33.7138 35.7193 33.7848 35.7813 33.8657 35.8278C33.9466 35.8744 34.0359 35.9045 34.1284 35.9166C34.221 35.9286 34.315 35.9223 34.4051 35.898C34.4952 35.8737 34.5797 35.8318 34.6536 35.7749C34.7276 35.718 34.7896 35.647 34.8362 35.5661C34.8827 35.4852 34.9128 35.3959 34.9249 35.3033C34.9369 35.2108 34.9306 35.1168 34.9063 35.0266C33.5817 30.1191 36.6023 26.3937 36.6435 26.3438C36.7643 26.1993 36.8229 26.0127 36.8062 25.8251C36.7895 25.6374 36.699 25.4641 36.5545 25.3432C36.4829 25.2833 36.4003 25.2382 36.3113 25.2102C36.2223 25.1823 36.1287 25.1722 36.0357 25.1805C35.8481 25.1971 35.6748 25.2877 35.5539 25.4322C34.5129 26.7864 33.7832 28.3534 33.4169 30.0217C32.1861 29.8016 30.9234 29.8338 29.7054 30.1163C28.4874 30.3989 27.3396 30.926 26.3314 31.6655C25.2997 32.43 24.4516 33.415 23.8486 34.5487C22.5963 36.8283 21.1 37.4392 20.7306 37.5597C19.9095 37.5289 19.1195 37.2373 18.4752 36.7273C17.8309 36.2173 17.3657 35.5153 17.1472 34.7232C16.9286 33.9311 16.9679 33.0899 17.2595 32.3217C17.5511 31.5534 18.0797 30.898 18.7688 30.4503C18.9147 30.3551 19.0205 30.2097 19.0661 30.0416C19.1117 29.8736 19.0941 29.6946 19.0164 29.5387C18.7483 29.0037 18.6093 28.4133 18.6105 27.8149C18.6117 26.9199 18.9226 26.0528 19.4902 25.3608C20.0579 24.6688 20.8475 24.1945 21.725 24.0183C21.3686 25.0446 21.2094 26.129 21.2556 27.2144C21.2601 27.3998 21.3369 27.5761 21.4696 27.7057C21.6023 27.8352 21.7805 27.9077 21.9659 27.9077H21.9834C22.0766 27.9054 22.1685 27.8848 22.2538 27.8471C22.3391 27.8093 22.4162 27.7551 22.4805 27.6876C22.5449 27.6201 22.5953 27.5406 22.6289 27.4536C22.6625 27.3666 22.6787 27.2738 22.6764 27.1805C22.5794 23.114 24.9954 22.2436 25.1132 22.2036C25.2927 22.1466 25.4423 22.0206 25.5289 21.8533C25.6156 21.6861 25.6322 21.4912 25.5752 21.3117C25.5182 21.1321 25.3923 20.9826 25.225 20.8959C25.0577 20.8092 24.8629 20.7926 24.6833 20.8496C24.1831 21.0317 23.7218 21.3067 23.3236 21.6601C23.3844 20.9118 23.6168 20.1875 24.0028 19.5435C24.3888 18.8995 24.918 18.3531 25.5494 17.9468C26.1808 17.5404 26.8973 17.2851 27.6434 17.2005C28.3894 17.116 29.1449 17.2045 29.8512 17.4592C30.0068 17.5153 30.177 17.5154 30.3326 17.4595C30.4882 17.4036 30.6194 17.2951 30.7036 17.1528C31.1715 16.3647 31.8357 15.7115 32.6316 15.2568C33.4274 14.8022 34.3275 14.5618 35.244 14.559C36.3732 14.5547 37.4732 14.9173 38.3786 15.5922C37.5815 16.1052 36.9316 16.8169 36.4931 17.6573C36.2176 18.2444 35.8047 18.7564 35.2894 19.1501C34.8585 19.4965 34.333 19.7046 33.7818 19.7474C33.5934 19.7501 33.4138 19.8275 33.2825 19.9626C33.1512 20.0977 33.0789 20.2795 33.0816 20.4678C33.0843 20.6562 33.1617 20.8358 33.2969 20.9671C33.432 21.0984 33.6137 21.1707 33.8021 21.168H33.8224C34.6601 21.1193 35.463 20.8163 36.1239 20.2994C36.824 19.7725 37.3863 19.0842 37.7629 18.2931C38.3654 17.0893 39.5918 16.5105 39.8187 16.4119C40.566 16.2255 41.3428 16.1895 42.1041 16.306C42.8654 16.4224 43.596 16.6889 44.2534 17.0901C44.9108 17.4912 45.482 18.019 45.9338 18.6427C46.3855 19.2665 46.7088 19.9738 46.8849 20.7235C46.1606 20.6805 45.1816 20.7116 44.4397 21.0673C43.9127 20.6258 43.3137 20.2782 42.669 20.0396C42.5804 20.0106 42.4869 19.9993 42.3938 20.0064C42.3008 20.0134 42.2101 20.0388 42.1269 20.0809C42.0437 20.123 41.9696 20.1812 41.9088 20.2519C41.8481 20.3227 41.8019 20.4048 41.7728 20.4934C41.7438 20.582 41.7324 20.6755 41.7395 20.7685C41.7466 20.8616 41.7719 20.9523 41.8141 21.0355C41.8562 21.1187 41.9143 21.1928 41.9851 21.2536C42.0559 21.3143 42.1379 21.3605 42.2266 21.3896C42.8942 21.6489 43.4934 22.058 43.978 22.5854C44.4627 23.1128 44.8198 23.7444 45.0219 24.4315C45.1096 24.7452 45.6082 25.0237 45.8972 24.924C46.0763 24.8697 46.2275 24.7483 46.3193 24.5852C46.411 24.4221 46.4363 24.2298 46.3897 24.0485C46.2064 23.3867 45.9076 22.7624 45.5071 22.2044C46.1895 22.1005 46.8842 22.108 47.5641 22.2267C48.5893 22.5204 49.514 23.0905 50.2368 23.8746C50.9597 24.6587 51.4529 25.6265 51.6624 26.6722C51.872 27.7178 51.7898 28.801 51.4249 29.803C51.06 30.8051 50.4264 31.6874 49.5935 32.3535C49.4495 32.4689 49.3561 32.6359 49.333 32.8191C49.31 33.0023 49.3592 33.1872 49.4702 33.3347C50.1463 34.2299 50.5104 35.322 50.507 36.4438C50.5055 37.6357 50.0936 38.7908 49.3406 39.7148C48.5876 40.6388 47.5394 41.2753 46.3723 41.5173C45.0675 41.6452 44.0285 41.3955 43.2837 40.7703C42.1472 39.8165 42.0163 38.2625 42.0139 38.2286C42.0078 38.1356 41.9835 38.0446 41.9423 37.9609C41.9011 37.8772 41.8438 37.8024 41.7737 37.7409C41.7036 37.6793 41.6221 37.6322 41.5337 37.6022C41.4454 37.5721 41.352 37.5598 41.259 37.5658C41.1659 37.5719 41.0749 37.5962 40.9912 37.6374C40.9075 37.6786 40.8327 37.7359 40.7712 37.806C40.7097 37.8761 40.6625 37.9577 40.6325 38.046C40.6024 38.1343 40.5901 38.2277 40.5961 38.3208C40.6018 38.4087 40.7504 40.4872 42.3561 41.8461C43.2405 42.5947 44.3715 42.972 45.7261 42.972H45.7314C45.6381 43.7228 45.3815 44.444 44.9797 45.0851C44.5779 45.7261 44.0406 46.2714 43.4056 46.6827C42.7706 47.0939 42.0532 47.3611 41.3039 47.4655C40.5545 47.5699 39.7915 47.5089 39.0682 47.2869C38.9554 47.2523 38.8358 47.2462 38.7201 47.2693C38.6045 47.2925 38.4964 47.3441 38.4056 47.4194C37.2567 48.373 35.7844 48.8468 34.295 48.7422C32.8057 48.6376 31.414 47.9627 30.4097 46.8579C30.3469 46.7889 30.2712 46.7329 30.1868 46.6932C30.1024 46.6535 30.011 46.6308 29.9178 46.6264C29.8246 46.622 29.7315 46.636 29.6437 46.6676C29.556 46.6992 29.4753 46.7477 29.4063 46.8105C29.3373 46.8733 29.2813 46.949 29.2416 47.0334C29.2019 47.1178 29.1792 47.2092 29.1748 47.3024C29.1704 47.3956 29.1844 47.4887 29.2159 47.5765C29.2475 47.6643 29.2961 47.745 29.3589 47.814C29.6503 48.133 29.97 48.425 30.3139 48.6866C29.2051 49.5403 28.2787 50.6076 27.5894 51.8255L26.3515 53.9996C26.006 54.6084 25.8426 55.3036 25.8804 56.0025C25.9183 56.7015 26.156 57.3749 26.5652 57.9428L29.6907 62.2638C29.801 62.4165 29.9675 62.5191 30.1535 62.549C30.3395 62.579 30.5298 62.5338 30.6825 62.4235C30.8352 62.3132 30.9378 62.1467 30.9677 61.9607C30.9977 61.7747 30.9525 61.5844 30.8422 61.4317L27.7185 57.1109C27.4687 56.7641 27.3236 56.3529 27.3005 55.9262C27.2773 55.4994 27.3771 55.075 27.588 54.7032L28.826 52.5291C29.4709 51.3821 30.3606 50.3913 31.4317 49.627C31.4997 49.5795 31.5677 49.5333 31.6347 49.4888C33.185 50.2218 34.9466 50.3752 36.6002 49.9213C37.9553 51.007 39.6409 51.5966 41.3773 51.5923C42.279 51.5936 43.1729 51.4247 44.0121 51.0945L45.7119 54.2352C46.243 55.2166 46.4026 56.3566 46.1614 57.4462L44.8656 63.297C44.8442 63.3885 44.8411 63.4834 44.8566 63.5761C44.8721 63.6688 44.9059 63.7575 44.9559 63.8371C45.006 63.9167 45.0713 63.9855 45.1482 64.0396C45.225 64.0938 45.3119 64.1321 45.4037 64.1524C45.4955 64.1728 45.5904 64.1747 45.6829 64.158C45.7754 64.1414 45.8637 64.1066 45.9427 64.0555C46.0216 64.0045 46.0897 63.9383 46.1429 63.8608C46.196 63.7833 46.2333 63.696 46.2525 63.604L47.5483 57.7534C47.8484 56.3967 47.6732 54.9781 47.0521 53.7352L48.2148 50.9843L48.3883 51.3076C48.8537 52.1762 49.5241 52.9181 50.3414 53.4688C51.1586 54.0195 52.0978 54.3624 53.0776 54.4678L57.4827 54.9431C57.576 54.9543 57.6706 54.9469 57.761 54.9212C57.8514 54.8956 57.9359 54.8523 58.0094 54.7938C58.083 54.7353 58.1442 54.6628 58.1895 54.5804C58.2349 54.4981 58.2634 54.4076 58.2735 54.3142C58.2836 54.2207 58.275 54.1262 58.2484 54.0361C58.2217 53.946 58.1773 53.8621 58.118 53.7892C58.0586 53.7163 57.9854 53.656 57.9025 53.6116C57.8197 53.5673 57.7288 53.5398 57.6353 53.5308L53.23 53.0555C52.48 52.9748 51.7609 52.7123 51.1353 52.2907C50.5097 51.8691 49.9964 51.3012 49.64 50.6363L47.8284 47.2589C48.4615 45.403 47.9469 43.6583 47.5118 42.6686C48.5583 42.2991 49.4952 41.6724 50.2361 40.8461C50.9771 40.0199 51.4984 39.0205 51.752 37.9401C52.0857 37.8353 52.4481 37.7333 52.8355 37.6356C54.0811 37.3256 55.3601 37.1702 56.6437 37.1731H61.9531C62.1414 37.1731 62.3221 37.0983 62.4553 36.9651C62.5885 36.8319 62.6634 36.6512 62.6634 36.4629C62.6634 36.2745 62.5885 36.0938 62.4553 35.9606C62.3221 35.8274 62.1414 35.7526 61.9531 35.7526H56.6439C55.2434 35.7497 53.8479 35.9194 52.4889 36.2579C52.2955 36.3066 52.1092 36.3569 51.9268 36.4077C51.9239 35.2161 51.5954 34.0481 50.9768 33.0297C51.1268 32.8858 51.2684 32.735 51.4044 32.5802C52.815 33.0672 55.0198 33.5235 58.3381 33.5235C59.4374 33.5235 60.6591 33.4733 62.0135 33.3574C62.107 33.3502 62.1982 33.3245 62.2817 33.2818C62.3652 33.2391 62.4394 33.1804 62.5001 33.1089C62.5607 33.0374 62.6066 32.9546 62.6352 32.8652C62.6637 32.7759 62.6742 32.6818 62.6662 32.5884C62.6581 32.495 62.6317 32.4041 62.5883 32.3209C62.545 32.2378 62.4856 32.164 62.4136 32.104C62.3416 32.0439 62.2584 31.9986 62.1689 31.9709C62.0793 31.9431 61.9851 31.9333 61.8918 31.9421C57.0591 32.3549 54.0583 31.9121 52.2657 31.3676C53.0707 29.9394 53.3661 28.2798 53.1032 26.6615C52.8403 25.0432 52.0349 23.5625 50.8191 22.4625C50.9774 20.8104 51.7518 19.2784 52.9883 18.1714L56.5276 14.9635C56.912 14.6169 57.3718 14.3648 57.8707 14.2271C58.3695 14.0894 58.8936 14.0699 59.4013 14.1702L65.3357 15.3574C65.4278 15.3774 65.523 15.379 65.6158 15.3618C65.7085 15.3447 65.7969 15.3093 65.8758 15.2577C65.9547 15.2061 66.0225 15.1392 66.0753 15.0611C66.1281 14.983 66.1648 14.8951 66.1833 14.8027C66.2018 14.7102 66.2017 14.615 66.183 14.5226C66.1644 14.4302 66.1274 14.3424 66.0745 14.2644C66.0215 14.1864 65.9536 14.1197 65.8746 14.0682C65.7956 14.0167 65.7071 13.9815 65.6143 13.9646H65.6137ZM22.0004 20.8662C21.9251 21.2575 21.8871 21.6551 21.8868 22.0536C21.8868 22.22 21.8935 22.3871 21.9071 22.5535C21.7608 22.5693 21.6165 22.5922 21.4738 22.62L19.9517 21.3133C20.5992 21.033 21.295 20.8811 22.0004 20.8662V20.8662ZM18.1717 24.7505L16.2257 23.0683L16.342 20.0891L19.9398 23.1761C19.2399 23.5617 18.6356 24.0998 18.1717 24.7505V24.7505ZM38.1673 49.2887C38.463 49.1278 38.7469 48.9463 39.0171 48.7455C40.2219 49.041 41.4856 48.9909 42.6633 48.601L43.3285 49.8304C42.4797 50.1153 41.5795 50.2144 40.689 50.1209C39.7985 50.0275 38.9385 49.7437 38.1673 49.2887V49.2887ZM46.1886 52.1299L43.9585 48.0092C44.6533 47.5954 45.2668 47.0582 45.7687 46.424L47.3517 49.3762L46.1886 52.1299ZM48.3836 20.9967C48.2253 19.9271 47.8269 18.9072 47.2183 18.0135L50.8426 15.0256L51.2709 17.9092C50.3908 18.9452 49.7894 20.1884 49.5235 21.5215C49.1596 21.3136 48.7782 21.1381 48.3836 20.9969V20.9967Z" fill="#464965"/>
<path d="M58.9886 3.63379C58.8002 3.63379 58.6196 3.70862 58.4864 3.84183C58.3532 3.97504 58.2783 4.1557 58.2783 4.34408V7.61347C58.278 8.44637 58.5842 9.25026 59.1387 9.87181C59.6931 10.4934 60.457 10.8891 61.2845 10.9835L65.3935 11.4541C65.4204 11.4573 65.4475 11.4588 65.4746 11.4588C65.6562 11.459 65.8309 11.3896 65.9629 11.265C66.0949 11.1403 66.1742 10.9699 66.1844 10.7886C66.1947 10.6074 66.1352 10.4291 66.0181 10.2904C65.901 10.1516 65.7352 10.063 65.5548 10.0427L61.4458 9.57205C60.9649 9.51721 60.5209 9.28724 60.1986 8.92601C59.8764 8.56478 59.6983 8.09756 59.6985 7.61347V4.34408C59.6985 4.15577 59.6237 3.97517 59.4906 3.84197C59.3575 3.70878 59.1769 3.6339 58.9886 3.63379V3.63379Z" fill="#464965"/>
<path d="M6.7482 18.1539C7.76907 17.8563 8.64979 17.2033 9.23115 16.313C9.8125 15.4226 10.0561 14.3536 9.91794 13.2993L9.35376 9.14045C9.3265 8.95547 9.22741 8.7887 9.07798 8.67632C8.92855 8.56394 8.74084 8.51501 8.55556 8.54014C8.37029 8.56528 8.20239 8.66245 8.08831 8.81059C7.97422 8.95872 7.92315 9.14586 7.94616 9.33141L8.51054 13.4905C8.60432 14.2068 8.43876 14.933 8.04378 15.5379C7.6488 16.1427 7.05047 16.5863 6.35693 16.7885L3.33087 17.6561C3.24052 17.6811 3.15602 17.7239 3.08226 17.7818C3.0085 17.8397 2.94693 17.9116 2.90111 17.9934C2.85529 18.0752 2.82613 18.1653 2.8153 18.2585C2.80447 18.3516 2.81219 18.446 2.83802 18.5361C2.86385 18.6263 2.90727 18.7104 2.96579 18.7837C3.0243 18.857 3.09674 18.9179 3.17894 18.9631C3.26113 19.0082 3.35145 19.0366 3.44468 19.0467C3.53791 19.0567 3.63221 19.0482 3.72214 19.0216L6.7482 18.1539Z" fill="#464965"/>
<path d="M24.694 59.2079C24.3727 58.7316 23.9174 58.3613 23.3855 58.1438C22.8537 57.9263 22.2693 57.8715 21.7063 57.9862L18.4313 58.6498C17.701 58.7965 17.0553 59.2187 16.6281 59.8289L13.4651 64.3302C13.4104 64.4064 13.3714 64.4928 13.3503 64.5842C13.3291 64.6756 13.3263 64.7703 13.342 64.8628C13.3577 64.9553 13.3916 65.0438 13.4416 65.1232C13.4917 65.2025 13.557 65.2712 13.6338 65.3251C13.7105 65.3791 13.7972 65.4173 13.8889 65.4376C13.9805 65.4579 14.0752 65.4598 14.1676 65.4433C14.2599 65.4267 14.3481 65.392 14.427 65.3412C14.5059 65.2904 14.5739 65.2245 14.6271 65.1472L17.7904 60.6456C18.0089 60.3332 18.3394 60.1171 18.7132 60.0422L21.9882 59.379C22.2764 59.32 22.5756 59.3478 22.8479 59.4591C23.1202 59.5704 23.3533 59.7601 23.5176 60.0041L25.9405 63.585C25.9928 63.6623 26.0597 63.7285 26.1376 63.7799C26.2154 63.8313 26.3026 63.8669 26.3942 63.8846C26.4858 63.9023 26.58 63.9018 26.6714 63.8831C26.7628 63.8644 26.8496 63.8279 26.9269 63.7756C27.0042 63.7234 27.0704 63.6564 27.1218 63.5786C27.1732 63.5007 27.2088 63.4135 27.2265 63.3219C27.2442 63.2303 27.2437 63.1361 27.225 63.0447C27.2063 62.9533 27.1698 62.8665 27.1176 62.7892L24.694 59.2079Z" fill="#464965"/>
<path d="M14.0771 55.441L12.0365 52.228C11.9347 52.0706 11.7749 51.9598 11.5918 51.9197C11.4087 51.8797 11.2172 51.9136 11.0591 52.0141C10.9009 52.1146 10.7888 52.2736 10.7473 52.4563C10.7058 52.6391 10.7383 52.8309 10.8375 52.9898L12.8781 56.2026C13.1726 56.6693 13.318 57.2147 13.2948 57.7661C13.2717 58.3175 13.0811 58.8488 12.7484 59.2891L10.1664 62.6866C10.1084 62.7607 10.0658 62.8456 10.0409 62.9364C10.016 63.0271 10.0094 63.1219 10.0215 63.2152C10.0336 63.3085 10.064 63.3985 10.1112 63.4799C10.1583 63.5614 10.2211 63.6326 10.2961 63.6896C10.371 63.7465 10.4564 63.788 10.5475 63.8116C10.6386 63.8353 10.7334 63.8406 10.8266 63.8273C10.9197 63.8139 11.0093 63.7822 11.0901 63.734C11.1709 63.6857 11.2413 63.6219 11.2972 63.5462L13.8792 60.149C14.3867 59.4773 14.6775 58.667 14.7128 57.8259C14.7482 56.9848 14.5264 56.1529 14.0771 55.441Z" fill="#464965"/>
<defs>
<linearGradient id="paint0_linear_768_707" x1="34.3922" y1="16.6214" x2="34.3922" y2="54.1519" gradientUnits="userSpaceOnUse">
<stop stop-color="#FF7094"/>
<stop offset="1" stop-color="#F14F89"/>
</linearGradient>
</defs>
</svg>
