<svg width="69" height="69" viewBox="0 0 69 69" fill="none" xmlns="http://www.w3.org/2000/svg">
<path d="M62.1401 42.1304C61.8283 40.8227 61.6709 39.483 61.6711 38.1387V34.8706C61.6711 23.4007 53.9113 22.1191 53.9113 22.1191C48.5813 20.9722 41.4293 18.2109 41.4293 18.2109L40.9563 10.377H28.043L27.57 18.2041C27.57 18.2041 20.418 20.9709 15.088 22.1123C15.088 22.1123 7.3282 23.394 7.3282 34.8639V38.1387C7.32813 39.4817 7.17073 40.82 6.85922 42.1264C6.50538 43.6358 6.0699 45.1249 5.55469 46.5871C7.34125 50.8541 10.0485 54.6737 13.4829 57.7727C13.5409 54.7903 14.0705 50.6624 16.2349 47.6855C16.8825 49.1614 17.6142 50.599 18.4262 51.9912C18.7695 52.5706 18.979 53.2193 19.0393 53.8901C19.1741 55.4291 19.4207 58.4721 19.511 62.0501C24.1118 64.5486 29.2642 65.8573 34.4996 65.8573C39.7351 65.8573 44.8875 64.5486 49.4883 62.0501C49.5786 58.4708 49.8198 55.4291 49.96 53.8901C50.0207 53.2192 50.2307 52.5705 50.5745 51.9912C51.3857 50.5988 52.1169 49.1612 52.7644 47.6855C54.9288 50.6624 55.4597 54.7903 55.5163 57.7727C58.9509 54.6735 61.6585 50.854 63.446 46.5871C62.9305 45.1262 62.4946 43.6385 62.1401 42.1304Z" fill="#FFE2D4"/>
<path d="M27.3695 53.5021C28.255 54.6368 30.3263 56.1974 34.5 54.5802V51.583C34.5 51.583 32.1995 54.1341 27.7617 52.8768C27.6822 52.8568 27.5985 52.8626 27.5225 52.8932C27.4465 52.9238 27.3821 52.9776 27.3386 53.047C27.2951 53.1164 27.2746 53.1978 27.2802 53.2796C27.2857 53.3613 27.317 53.4392 27.3695 53.5021V53.5021Z" fill="#EFB9AB"/>
<path d="M27.3692 59.6336C28.2546 60.74 30.3219 62.2615 34.4997 60.678V57.7671C34.4997 57.7671 32.1992 60.2549 27.7614 59.0285C27.6842 59.0085 27.6026 59.0133 27.5283 59.0423C27.454 59.0712 27.3906 59.1228 27.3473 59.1897C27.3039 59.2567 27.2827 59.3355 27.2866 59.4152C27.2905 59.4949 27.3195 59.5713 27.3692 59.6336V59.6336Z" fill="#EFB9AB"/>
<path d="M40.9563 10.377H28.0431L27.8477 13.6113C28.95 14.3202 30.7222 15.4401 32.3852 16.4023C33.028 16.7738 33.7573 16.9693 34.4997 16.9693C35.2421 16.9693 35.9714 16.7738 36.6142 16.4023C38.2772 15.4401 40.0493 14.3202 41.1517 13.6113L40.9563 10.377Z" fill="#EFB9AB"/>
<path d="M41.6318 53.5021C40.745 54.6368 38.6737 56.1974 34.5 54.5802V51.583C34.5 51.583 36.8004 54.1341 41.2383 52.8768C41.3179 52.8564 41.4018 52.8619 41.4781 52.8923C41.5544 52.9228 41.619 52.9766 41.6628 53.0461C41.7065 53.1156 41.7271 53.1972 41.7215 53.2791C41.7159 53.3611 41.6845 53.4391 41.6318 53.5021V53.5021Z" fill="#EFB9AB"/>
<path d="M41.6318 59.6336C40.745 60.74 38.6777 62.2615 34.5 60.678V57.7671C34.5 57.7671 36.8004 60.2549 41.2383 59.0285C41.3154 59.009 41.3967 59.0141 41.4708 59.0432C41.5449 59.0722 41.608 59.1237 41.6514 59.1904C41.6947 59.257 41.7162 59.3356 41.7127 59.4151C41.7092 59.4946 41.6809 59.571 41.6318 59.6336V59.6336Z" fill="#EFB9AB"/>
<path d="M37.7748 24.0649C36.9743 24.0528 36.1864 24.2647 35.4999 24.6768C35.2011 24.867 34.8542 24.968 34.5 24.968C34.1458 24.968 33.7989 24.867 33.5 24.6768C32.8141 24.2648 32.0266 24.0529 31.2265 24.0649C24.8925 25.2024 20.3213 24.0649 20.3213 24.0649C22.9627 25.8951 30.4354 25.9193 30.4354 25.9193C32.3626 25.8937 33.0405 27.7737 33.0405 27.7737L33.3639 28.1227C33.5087 28.2796 33.6843 28.4048 33.8799 28.4905C34.0754 28.5761 34.2865 28.6203 34.5 28.6203C34.7134 28.6203 34.9246 28.5761 35.1201 28.4905C35.3156 28.4048 35.4913 28.2796 35.6361 28.1227L35.9595 27.7737C35.9595 27.7737 36.6333 25.887 38.5645 25.9193C38.5645 25.9193 46.0373 25.8951 48.68 24.0649C48.68 24.0649 44.102 25.201 37.7748 24.0649Z" fill="#EFB9AB"/>
<path d="M55.6383 46.2244C54.9495 45.2634 54.4467 44.1819 54.1559 43.0359C54.7678 42.1653 55.5332 40.9174 55.9227 39.6465C55.9966 39.4024 56.0107 39.144 55.9638 38.8933C55.9169 38.6426 55.8103 38.4068 55.6532 38.2059L55.0211 37.3973C54.7259 38.1437 54.3773 38.868 53.978 39.5643C51.245 41.1626 46.7142 40.7705 46.7142 40.7705C36.5124 40.7705 34.5004 35.2896 34.5004 35.2896C34.5004 35.2896 32.4883 40.7705 22.2865 40.7705C22.2865 40.7705 17.6102 41.1748 14.8933 39.4875C14.8933 39.4875 14.9122 39.5495 14.9391 39.6627C14.5151 38.9366 14.1471 38.1793 13.8381 37.3973L13.206 38.2059C13.0486 38.4066 12.9418 38.6424 12.8949 38.8932C12.848 39.144 12.8622 39.4024 12.9365 39.6465C13.3408 40.9942 14.179 42.3081 14.8057 43.1801C14.51 44.2728 14.0212 45.3038 13.3624 46.2244C11.9675 48.2041 10.8247 51.5612 10.0781 54.1756C11.1166 55.4651 12.2553 56.6705 13.4837 57.7806C13.5416 54.7982 14.0712 50.6704 16.2356 47.6934C16.8833 49.1693 17.6149 50.6069 18.4269 51.9991C18.7702 52.5785 18.9797 53.2272 19.04 53.898C19.1748 55.437 19.4214 58.48 19.5117 62.058C19.8405 62.2377 20.173 62.4107 20.509 62.5769L20.5791 62.6106C20.907 62.7723 21.2376 62.9286 21.5709 63.0796V56.0718C21.5711 55.9677 21.5925 55.8648 21.6338 55.7694C21.6751 55.6739 21.7355 55.5878 21.8111 55.5164C21.8868 55.445 21.9762 55.3898 22.074 55.3542C22.1717 55.3185 22.2757 55.3031 22.3795 55.309C22.9865 55.3324 23.5944 55.3076 24.1975 55.2349C22.5399 54.3683 21.7987 53.1312 21.4672 52.1838C21.4227 52.0548 21.4137 51.9162 21.4409 51.7825C21.4681 51.6488 21.5306 51.5249 21.622 51.4235C21.7133 51.3221 21.8301 51.2471 21.9602 51.2061C22.0904 51.1651 22.2291 51.1598 22.362 51.1905C24.0439 51.5665 25.0897 50.9736 25.0897 50.9736L21.4281 48.8847C22.0278 46.1624 25.5829 45.8228 25.5829 45.8228C28.0801 45.9428 31.0813 45.6234 34.499 44.4118C37.9167 45.6247 40.9179 45.9428 43.4151 45.8228C43.4151 45.8228 46.9702 46.1624 47.5699 48.8847L43.911 50.9682C43.911 50.9682 44.9582 51.5612 46.64 51.1852C46.7729 51.1547 46.9114 51.1603 47.0414 51.2014C47.1713 51.2425 47.2879 51.3176 47.379 51.4189C47.4702 51.5202 47.5325 51.644 47.5597 51.7776C47.5869 51.9111 47.5778 52.0495 47.5335 52.1784C47.202 53.1217 46.4554 54.3629 44.8032 55.2295C45.4063 55.3022 46.0142 55.327 46.6212 55.3036C46.725 55.2979 46.8289 55.3134 46.9265 55.3492C47.0242 55.3849 47.1135 55.4401 47.1891 55.5115C47.2648 55.5828 47.3251 55.6688 47.3665 55.7642C47.4078 55.8596 47.4294 55.9624 47.4298 56.0664V63.0742C47.7626 62.9232 48.0915 62.7669 48.4189 62.6052L48.4904 62.5715C48.8264 62.4044 49.1584 62.2319 49.4863 62.054C49.5766 58.4746 49.8178 55.433 49.958 53.8939C50.0187 53.2231 50.2287 52.5743 50.5725 51.9951C51.3837 50.6026 52.1149 49.165 52.7624 47.6893C54.9268 50.6663 55.4578 54.7942 55.5144 57.7765C56.7435 56.6678 57.8831 55.4638 58.9226 54.1756C58.176 51.5544 57.0332 48.1974 55.6383 46.2244Z" fill="#EFB9AB"/>
<path d="M34.5 3.13722C31.4791 3.135 28.4738 3.56939 25.5771 4.42692C25.9699 6.16777 26.4543 7.88663 27.0286 9.57632C27.2568 10.2596 27.6932 10.8543 28.2765 11.2771C29.8452 12.4077 31.8572 13.2487 33.1631 13.7258C34.026 14.041 34.9726 14.041 35.8355 13.7258C37.14 13.25 39.1534 12.4091 40.7235 11.2784C41.3073 10.855 41.7438 10.2593 41.9714 9.57497C42.5456 7.88575 43.0301 6.16733 43.4228 4.42692C40.5262 3.5693 37.5209 3.1349 34.5 3.13722V3.13722Z" fill="#FFE2D4"/>
<path d="M19.7336 30.0152C19.839 30.2178 19.9999 30.3862 20.1975 30.5007C20.3951 30.6153 20.6212 30.6712 20.8494 30.662C22.2496 30.6054 25.3573 30.5434 28.1901 30.9316C28.3131 30.9481 28.4383 30.9381 28.5571 30.9023C28.676 30.8664 28.7858 30.8055 28.8791 30.7236C28.9724 30.6418 29.0472 30.5409 29.0982 30.4278C29.1493 30.3146 29.1756 30.1919 29.1752 30.0677V30.0677C29.1756 29.8688 29.1079 29.6757 28.9833 29.5205C28.8588 29.3653 28.685 29.2574 28.4906 29.2147C27.1201 28.9155 23.9086 28.2915 20.8157 28.2578C20.6089 28.2581 20.4056 28.3112 20.2252 28.4122C20.0447 28.5132 19.893 28.6586 19.7846 28.8347C19.6762 29.0108 19.6146 29.2117 19.6056 29.4183C19.5967 29.6249 19.6407 29.8304 19.7336 30.0152V30.0152Z" fill="#FFF9F8"/>
<path d="M14.0155 25.4143C14.4231 25.157 14.7326 24.7705 14.8948 24.3167C15.057 23.8628 15.0625 23.3677 14.9104 22.9104L14.6893 22.2163C13.4279 22.5734 9.53725 24.103 7.9834 29.6661L8.59928 29.8602C9.10139 30.0178 9.64367 29.9876 10.1251 29.7751C10.6066 29.5627 10.9945 29.1824 11.2164 28.7053C12.0129 26.9681 13.1247 25.9736 14.0155 25.4143Z" fill="#FFF9F8"/>
<path d="M32.8448 49.4224L32.838 50.1541C32.8375 50.2563 32.8004 50.3549 32.7334 50.4321C32.6664 50.5092 32.5739 50.5598 32.4728 50.5746L31.4755 50.7229C31.3892 50.7358 31.3009 50.7221 31.2226 50.6835C31.1442 50.6449 31.0796 50.5833 31.0372 50.5069C30.9948 50.4306 30.9768 50.3431 30.9855 50.2562C30.9943 50.1693 31.0294 50.0871 31.0861 50.0207C31.4051 49.6422 31.78 49.3145 32.1979 49.0491C32.2633 49.0103 32.3378 48.9897 32.4138 48.9893C32.4899 48.9888 32.5646 49.0086 32.6304 49.0466C32.6963 49.0846 32.7508 49.1394 32.7885 49.2055C32.8261 49.2715 32.8456 49.3463 32.8448 49.4224V49.4224Z" fill="#FFF9F8"/>
<path d="M32.3082 56.9209L32.3015 57.6527C32.301 57.7548 32.2638 57.8534 32.1968 57.9306C32.1298 58.0077 32.0374 58.0583 31.9363 58.0731L30.939 58.2214C30.8525 58.2347 30.7641 58.2212 30.6855 58.1827C30.6069 58.1443 30.542 58.0827 30.4994 58.0062C30.4569 57.9298 30.4387 57.8421 30.4474 57.7551C30.4562 57.668 30.4913 57.5857 30.5482 57.5192C30.868 57.141 31.2434 56.8134 31.6614 56.5476C31.7268 56.5089 31.8013 56.4882 31.8773 56.4878C31.9533 56.4874 32.0281 56.5072 32.0939 56.5452C32.1597 56.5832 32.2143 56.638 32.252 56.704C32.2896 56.77 32.309 56.8449 32.3082 56.9209Z" fill="#FFF9F8"/>
<path d="M49.3577 30.0152C49.2522 30.2178 49.0913 30.3862 48.8937 30.5007C48.6961 30.6153 48.47 30.6712 48.2418 30.662C46.8416 30.6054 43.7339 30.5434 40.9012 30.9316C40.7781 30.9481 40.653 30.9381 40.5341 30.9023C40.4153 30.8664 40.3055 30.8055 40.2122 30.7236C40.1188 30.6418 40.0441 30.5409 39.993 30.4278C39.9419 30.3146 39.9157 30.1919 39.916 30.0677V30.0677C39.9157 29.8688 39.9834 29.6757 40.1079 29.5205C40.2325 29.3653 40.4063 29.2574 40.6006 29.2147C41.9712 28.9155 45.1827 28.2915 48.2823 28.2578C48.4885 28.2592 48.6909 28.3132 48.8705 28.4147C49.05 28.5161 49.2008 28.6617 49.3084 28.8376C49.4161 29.0135 49.4771 29.2139 49.4857 29.42C49.4943 29.626 49.4503 29.8309 49.3577 30.0152V30.0152Z" fill="#FFF9F8"/>
<path d="M55.0749 25.4142C54.6666 25.1575 54.3562 24.7713 54.1932 24.3174C54.0303 23.8634 54.0242 23.368 54.176 22.9102L54.401 22.2148C55.6624 22.572 59.5531 24.1016 61.107 29.6647L60.4911 29.8588C59.988 30.0172 59.4443 29.987 58.9619 29.7736C58.4795 29.5603 58.0913 29.1786 57.8699 28.6998C57.0788 26.968 55.967 25.9735 55.0749 25.4142Z" fill="#FFF9F8"/>
<path d="M36.252 49.4224L36.2587 50.1541C36.2592 50.2563 36.2964 50.3549 36.3634 50.4321C36.4304 50.5092 36.5228 50.5598 36.6239 50.5746L37.6212 50.7229C37.7075 50.7358 37.7958 50.7221 37.8741 50.6835C37.9525 50.6449 38.0172 50.5833 38.0595 50.5069C38.1019 50.4306 38.1199 50.3431 38.1112 50.2562C38.1024 50.1693 38.0674 50.0871 38.0107 50.0207C37.6916 49.6422 37.3167 49.3145 36.8988 49.0491C36.8334 49.0103 36.7589 48.9897 36.6829 48.9893C36.6069 48.9888 36.5321 49.0086 36.4663 49.0466C36.4005 49.0846 36.3459 49.1394 36.3083 49.2055C36.2706 49.2715 36.2512 49.3463 36.252 49.4224V49.4224Z" fill="#FFF9F8"/>
<path d="M36.7832 56.9209L36.79 57.6527C36.7905 57.7548 36.8276 57.8534 36.8946 57.9306C36.9616 58.0077 37.0541 58.0583 37.1552 58.0731L38.1524 58.2214C38.2389 58.2347 38.3274 58.2212 38.406 58.1827C38.4846 58.1443 38.5495 58.0827 38.592 58.0062C38.6346 57.9298 38.6527 57.8421 38.644 57.7551C38.6353 57.668 38.6001 57.5857 38.5433 57.5192C38.2234 57.141 37.8481 56.8134 37.4301 56.5476C37.3647 56.5089 37.2902 56.4882 37.2142 56.4878C37.1381 56.4874 37.0634 56.5072 36.9976 56.5452C36.9317 56.5832 36.8772 56.638 36.8395 56.704C36.8018 56.77 36.7824 56.8449 36.7832 56.9209V56.9209Z" fill="#FFF9F8"/>
<path d="M22.0418 39.9313C21.8385 39.9233 21.64 39.9946 21.4882 40.1301C21.3363 40.2656 21.243 40.4548 21.2278 40.6577C21.2126 40.8606 21.2767 41.0615 21.4067 41.2181C21.5367 41.3747 21.7223 41.4748 21.9246 41.4972L22.531 41.5431H22.5903C22.7956 41.5463 22.9939 41.4689 23.1427 41.3276C23.2916 41.1863 23.3791 40.9922 23.3865 40.7871C23.3939 40.582 23.3206 40.3822 23.1823 40.2305C23.0441 40.0788 22.8519 39.9873 22.6469 39.9757L22.0418 39.9313Z" fill="#4D4D4D"/>
<path d="M25.8749 50.2501C25.873 50.1465 25.8504 50.0443 25.8086 49.9496C25.7667 49.8548 25.7063 49.7693 25.631 49.6982C25.5557 49.627 25.467 49.5716 25.37 49.5352C25.2731 49.4987 25.1698 49.482 25.0663 49.486C22.0232 49.5668 20.8737 46.6154 20.8238 46.4834C20.7504 46.2907 20.604 46.1348 20.4164 46.0492C20.2288 45.9637 20.015 45.9554 19.8214 46.0263C19.6278 46.0972 19.4699 46.2414 19.3818 46.4278C19.2937 46.6143 19.2826 46.8279 19.3508 47.0224C19.8656 48.4321 21.6917 51.056 24.9463 51.056H25.1067C25.2101 51.0537 25.3121 51.031 25.4067 50.9893C25.5013 50.9475 25.5868 50.8875 25.6581 50.8126C25.7295 50.7377 25.7854 50.6495 25.8226 50.5529C25.8598 50.4564 25.8775 50.3535 25.8749 50.2501V50.2501Z" fill="#4D4D4D"/>
<path d="M22.6815 52.227C22.5759 52.0613 22.4119 51.9412 22.222 51.8904C22.0321 51.8397 21.8301 51.8619 21.6559 51.9528C21.4816 52.0436 21.3477 52.1965 21.2806 52.3813C21.2135 52.566 21.2181 52.7692 21.2934 52.9507C21.974 54.2606 23.0818 55.1272 24.4146 55.3913C24.4651 55.4019 24.5166 55.4073 24.5682 55.4075C24.7634 55.4076 24.9517 55.335 25.0963 55.2039C25.2409 55.0728 25.3316 54.8926 25.3506 54.6983C25.3696 54.504 25.3156 54.3096 25.1991 54.153C25.0827 53.9963 24.912 53.8887 24.7205 53.8509C23.6168 53.6367 23.0036 52.8483 22.6815 52.227Z" fill="#4D4D4D"/>
<path d="M32.8137 45.4657C31.6871 45.804 30.6911 46.5708 29.9311 47.6799C29.5723 48.2205 29.0942 48.6714 28.5335 48.9979C28.3827 49.0836 28.2644 49.2167 28.1972 49.3766C28.1299 49.5365 28.1175 49.7142 28.1618 49.8819C28.2061 50.0496 28.3047 50.198 28.4421 50.3038C28.5796 50.4096 28.7482 50.4669 28.9217 50.4669C29.0574 50.4675 29.1908 50.4321 29.3084 50.3645C30.0766 49.919 30.7329 49.3042 31.2275 48.5667C31.7895 47.7446 32.4768 47.2069 33.2665 46.9697C33.3681 46.9424 33.4631 46.895 33.546 46.8303C33.6288 46.7656 33.6979 46.6849 33.749 46.593C33.8002 46.5012 33.8323 46.4 33.8436 46.2954C33.8549 46.1909 33.8451 46.0852 33.8148 45.9845C33.7845 45.8838 33.7343 45.7902 33.6672 45.7093C33.6 45.6284 33.5173 45.5618 33.424 45.5134C33.3306 45.465 33.2285 45.4359 33.1237 45.4277C33.0188 45.4195 32.9134 45.4324 32.8137 45.4657V45.4657Z" fill="#4D4D4D"/>
<path d="M27.9922 54.952C28.0502 55.0059 29.1566 56.0152 31.0366 56.0152C31.5547 56.013 32.0702 55.9405 32.5689 55.7996C32.672 55.7757 32.7693 55.7311 32.8548 55.6687C32.9404 55.6062 33.0124 55.527 33.0665 55.436C33.1207 55.345 33.1559 55.244 33.17 55.139C33.1841 55.034 33.1769 54.9273 33.1487 54.8252C33.1205 54.7231 33.072 54.6278 33.006 54.5449C32.94 54.462 32.858 54.3934 32.7648 54.343C32.6716 54.2927 32.5692 54.2617 32.4637 54.2519C32.3583 54.2422 32.2519 54.2538 32.1511 54.2862C30.2388 54.8131 29.1189 53.8523 29.0596 53.7997C28.9056 53.6656 28.7054 53.5966 28.5015 53.6076C28.2976 53.6185 28.1059 53.7084 27.9671 53.8582C27.8283 54.008 27.7533 54.206 27.758 54.4102C27.7627 54.6143 27.8467 54.8087 27.9922 54.952V54.952Z" fill="#4D4D4D"/>
<path d="M27.9922 60.9139C28.0502 60.9664 29.1566 61.9758 31.0366 61.9758C31.5547 61.9741 32.0702 61.902 32.5689 61.7615C32.669 61.7347 32.7629 61.6884 32.8451 61.6251C32.9272 61.5619 32.996 61.483 33.0476 61.393C33.0991 61.3031 33.1323 61.2038 33.1453 61.1009C33.1583 60.998 33.1508 60.8936 33.1232 60.7937C33.0956 60.6937 33.0486 60.6002 32.9847 60.5185C32.9208 60.4369 32.8414 60.3686 32.751 60.3178C32.6607 60.267 32.5611 60.2345 32.4582 60.2223C32.3552 60.2101 32.2508 60.2184 32.1511 60.2468C30.2388 60.7751 29.1189 59.8142 29.0596 59.7616C28.9056 59.6275 28.7054 59.5586 28.5015 59.5695C28.2976 59.5804 28.1059 59.6703 27.9671 59.8201C27.8283 59.9699 27.7533 60.1679 27.758 60.3721C27.7627 60.5763 27.8467 60.7706 27.9922 60.9139V60.9139Z" fill="#4D4D4D"/>
<path d="M30.1727 25.0665C25.8777 25.3993 20.6299 23.6083 20.5774 23.5841C20.3843 23.5293 20.1777 23.5504 19.9997 23.6431C19.8218 23.7359 19.6861 23.8931 19.6204 24.0827C19.5548 24.2723 19.5641 24.4799 19.6466 24.6628C19.729 24.8457 19.8783 24.9901 20.0639 25.0665C20.2903 25.1446 25.6674 26.9815 30.2939 26.6244C30.5073 26.607 30.722 26.6339 30.9245 26.7035C31.1269 26.7731 31.3128 26.8838 31.4705 27.0287C31.6423 27.1816 31.7965 27.3534 31.93 27.5408C32.0022 27.6464 32.0991 27.7328 32.2123 27.7925C32.3256 27.8521 32.4516 27.8832 32.5796 27.8831C32.7372 27.8843 32.8915 27.8373 33.0216 27.7483C33.1069 27.6903 33.18 27.616 33.2366 27.5297C33.2931 27.4433 33.3321 27.3467 33.3513 27.2453C33.3704 27.1439 33.3694 27.0397 33.3482 26.9387C33.327 26.8377 33.2861 26.7419 33.2278 26.6567C33.0275 26.3714 32.7956 26.1096 32.5364 25.8764C32.2193 25.5862 31.8456 25.3645 31.4389 25.2252C31.0322 25.0858 30.6012 25.0318 30.1727 25.0665V25.0665Z" fill="#4D4D4D"/>
<path d="M52.5358 42.6522C54.0567 41.2112 55.2289 39.4422 55.9629 37.4799C56.0198 37.2843 55.9986 37.0743 55.9036 36.8941C55.8087 36.7138 55.6475 36.5776 55.4539 36.5139C55.2604 36.4503 55.0498 36.4643 54.8664 36.553C54.6831 36.6417 54.5413 36.7981 54.4711 36.9893C53.8121 38.7 52.782 40.2433 51.455 41.508C50.7479 42.1741 49.8592 42.6154 48.9012 42.7762C46.3245 43.2236 41.3543 43.6818 37.062 41.7412C36.9675 41.6949 36.8647 41.668 36.7596 41.6622C36.6545 41.6564 36.5494 41.6718 36.4504 41.7074C36.3513 41.7431 36.2605 41.7982 36.1832 41.8696C36.1059 41.941 36.0437 42.0272 36.0004 42.1231C35.9571 42.219 35.9334 42.3226 35.9309 42.4278C35.9284 42.533 35.947 42.6377 35.9857 42.7355C36.0244 42.8334 36.0823 42.9225 36.1561 42.9975C36.2299 43.0726 36.318 43.132 36.4152 43.1724C39.0822 44.3785 41.95 44.7424 44.4364 44.7424C46.0229 44.7384 47.6061 44.6005 49.1694 44.33C49.7481 44.2287 50.3106 44.0502 50.8418 43.799C50.9539 45.2911 51.3738 46.7438 52.0749 48.0657C52.0896 48.0929 52.1063 48.1191 52.1248 48.1439C52.1243 48.147 52.1243 48.1502 52.1248 48.1533C54.0385 50.7853 54.5829 54.4415 54.7015 57.0478C54.7109 57.2496 54.7976 57.44 54.9436 57.5796C55.0897 57.7191 55.2838 57.797 55.4858 57.7971H55.5236C55.7317 57.7874 55.9274 57.6955 56.0678 57.5416C56.2083 57.3878 56.282 57.1845 56.2729 56.9764C56.1448 54.1773 55.5465 50.2381 53.4428 47.2935C52.4455 45.4391 52.3647 43.5201 52.3822 42.7923C52.432 42.7425 52.4846 42.6993 52.5358 42.6522Z" fill="#4D4D4D"/>
<path d="M46.4688 41.5429L47.0753 41.497C47.1807 41.4929 47.2843 41.4676 47.3798 41.4226C47.4752 41.3776 47.5607 41.3138 47.6309 41.2351C47.7012 41.1563 47.7549 41.0642 47.7888 40.9643C47.8227 40.8643 47.8361 40.7585 47.8282 40.6533C47.8203 40.548 47.7913 40.4455 47.7429 40.3517C47.6945 40.2579 47.6277 40.1748 47.5465 40.1074C47.4653 40.04 47.3713 39.9896 47.2702 39.9593C47.1691 39.929 47.0629 39.9194 46.958 39.9311L46.3529 39.9769C46.1478 39.9883 45.9553 40.0798 45.8169 40.2317C45.6785 40.3835 45.6052 40.5837 45.6128 40.789C45.6204 40.9943 45.7083 41.1885 45.8575 41.3297C46.0068 41.4709 46.2055 41.5479 46.4109 41.5442L46.4688 41.5429Z" fill="#4D4D4D"/>
<path d="M49.6474 47.0251C49.7083 46.8322 49.6924 46.6233 49.6031 46.4418C49.5138 46.2602 49.3579 46.1202 49.1679 46.0507C48.9779 45.9812 48.7685 45.9877 48.5831 46.0688C48.3978 46.1499 48.2509 46.2994 48.173 46.4861C48.1259 46.6114 46.9776 49.5736 43.9319 49.4887H43.9104C43.7074 49.494 43.5144 49.5778 43.3719 49.7223C43.2293 49.8668 43.1482 50.0609 43.1456 50.264C43.143 50.467 43.219 50.6631 43.3578 50.8112C43.4966 50.9594 43.6874 51.0481 43.8902 51.0587H44.0505C47.3024 51.0587 49.1312 48.4348 49.6474 47.0251Z" fill="#4D4D4D"/>
<path d="M46.3194 52.227C45.9973 52.8482 45.3841 53.6339 44.2871 53.8442C44.0956 53.8819 43.925 53.9896 43.8085 54.1462C43.692 54.3029 43.638 54.4973 43.6571 54.6915C43.6761 54.8858 43.7667 55.066 43.9113 55.1971C44.056 55.3282 44.2442 55.4008 44.4394 55.4007C44.491 55.4006 44.5425 55.3952 44.593 55.3845C45.9259 55.115 47.035 54.2539 47.7142 52.9439C47.8102 52.759 47.8287 52.5435 47.7658 52.3448C47.7029 52.1462 47.5636 51.9806 47.3786 51.8847C47.1937 51.7887 46.9782 51.7701 46.7795 51.8331C46.5809 51.896 46.4153 52.0353 46.3194 52.2202V52.227Z" fill="#4D4D4D"/>
<path d="M40.4665 48.998C39.9061 48.6711 39.4281 48.2203 39.069 47.68C38.3385 46.6127 37.4248 45.8849 36.3534 45.5237C36.2541 45.4812 36.147 45.4597 36.0389 45.4605C35.9309 45.4612 35.8241 45.4843 35.7254 45.5282C35.6266 45.5721 35.538 45.6359 35.465 45.7156C35.392 45.7953 35.3363 45.8892 35.3012 45.9914C35.2662 46.0936 35.2526 46.202 35.2614 46.3097C35.2701 46.4174 35.301 46.5222 35.3521 46.6174C35.4031 46.7127 35.4733 46.7963 35.5582 46.8632C35.6431 46.9301 35.7408 46.9788 35.8454 47.0062C36.5893 47.2609 37.2375 47.7865 37.7725 48.5681C38.2671 49.3056 38.9235 49.9204 39.6916 50.3659C39.7812 50.4168 39.88 50.4496 39.9823 50.4624C40.0846 50.4751 40.1884 50.4676 40.2878 50.4401C40.3872 50.4127 40.4802 50.366 40.5615 50.3026C40.6428 50.2392 40.7108 50.1604 40.7616 50.0707C40.8128 49.981 40.8458 49.882 40.8587 49.7794C40.8715 49.6769 40.8641 49.5728 40.8366 49.4731C40.8092 49.3735 40.7624 49.2802 40.6989 49.1987C40.6354 49.1172 40.5564 49.049 40.4665 48.998V48.998Z" fill="#4D4D4D"/>
<path d="M41.0471 53.8524C40.9069 53.7002 40.7124 53.6092 40.5056 53.5991C40.2988 53.589 40.0964 53.6606 39.942 53.7985C39.8948 53.8403 38.7749 54.8174 36.8491 54.2864C36.7483 54.254 36.642 54.2423 36.5365 54.2521C36.431 54.2619 36.3286 54.2929 36.2354 54.3432C36.1423 54.3935 36.0602 54.4622 35.9943 54.5451C35.9283 54.6279 35.8798 54.7233 35.8516 54.8254C35.8234 54.9275 35.8161 55.0342 35.8303 55.1392C35.8444 55.2441 35.8796 55.3452 35.9337 55.4362C35.9879 55.5272 36.0599 55.6063 36.1454 55.6688C36.2309 55.7313 36.3282 55.7759 36.4314 55.7998C36.93 55.9406 37.4455 56.0132 37.9637 56.0154C39.8436 56.0154 40.9501 55.006 41.008 54.9521C41.1585 54.8112 41.2471 54.6164 41.2544 54.4103C41.2617 54.2043 41.1872 54.0037 41.0471 53.8524V53.8524Z" fill="#4D4D4D"/>
<path d="M39.9419 59.7589C39.8947 59.8007 38.7748 60.7764 36.849 60.2454C36.7493 60.2171 36.6449 60.2087 36.5419 60.2209C36.439 60.2331 36.3394 60.2656 36.2491 60.3164C36.1587 60.3672 36.0793 60.4355 36.0154 60.5171C35.9516 60.5988 35.9045 60.6923 35.8769 60.7923C35.8493 60.8922 35.8418 60.9966 35.8548 61.0995C35.8678 61.2024 35.901 61.3017 35.9525 61.3916C36.0041 61.4816 36.0729 61.5605 36.1551 61.6237C36.2372 61.687 36.3311 61.7334 36.4312 61.7601C36.9299 61.9006 37.4454 61.9727 37.9635 61.9744C39.8435 61.9744 40.9499 60.965 41.0079 60.9125C41.154 60.7694 41.2385 60.5751 41.2436 60.3707C41.2487 60.1664 41.174 59.968 41.0352 59.8179C40.8965 59.6677 40.7047 59.5776 40.5005 59.5666C40.2964 59.5556 40.096 59.6245 39.9419 59.7589V59.7589Z" fill="#4D4D4D"/>
<path d="M38.8274 25.0664C38.3991 25.0321 37.9682 25.0862 37.5616 25.2253C37.155 25.3644 36.7813 25.5855 36.4637 25.875C36.2045 26.1081 35.9726 26.3699 35.7723 26.6552C35.6549 26.8274 35.6107 27.039 35.6494 27.2437C35.6881 27.4484 35.8064 27.6294 35.9785 27.7468C36.1088 27.8356 36.2629 27.8826 36.4205 27.8816C36.5485 27.8818 36.6746 27.8507 36.7878 27.791C36.901 27.7314 36.9979 27.6449 37.0701 27.5393C37.2036 27.3519 37.3578 27.1802 37.5297 27.0272C37.6874 26.8825 37.8733 26.7719 38.0757 26.7023C38.2782 26.6327 38.4928 26.6057 38.7062 26.6229C43.3327 26.98 48.7098 25.1405 48.9362 25.065C49.1218 24.9887 49.2711 24.8442 49.3535 24.6613C49.436 24.4784 49.4454 24.2709 49.3797 24.0813C49.314 23.8917 49.1783 23.7344 49.0004 23.6417C48.8224 23.5489 48.6158 23.5278 48.4228 23.5826C48.3702 23.6028 43.1251 25.3938 38.8274 25.0664Z" fill="#4D4D4D"/>
<path d="M41.0468 21.2702C41.0794 21.4514 41.1745 21.6155 41.3156 21.7337C41.4568 21.8519 41.6349 21.9168 41.819 21.9171C41.8642 21.9167 41.9093 21.9126 41.9538 21.905C42.1587 21.8682 42.3406 21.7516 42.4597 21.5808C42.5787 21.41 42.625 21.1989 42.5885 20.9939C42.346 19.6463 42.2179 18.269 42.2072 18.1477L41.9754 14.2947C41.9692 14.1917 41.9427 14.091 41.8976 13.9982C41.8525 13.9054 41.7895 13.8224 41.7123 13.7539C41.6351 13.6855 41.5451 13.6329 41.4476 13.5992C41.3501 13.5655 41.2469 13.5514 41.1439 13.5576C40.9358 13.5701 40.7413 13.6647 40.6031 13.8206C40.4648 13.9766 40.3942 14.1811 40.4067 14.3891L40.6398 18.2528C40.6398 18.2528 40.6398 18.2609 40.6398 18.2649C40.6398 18.269 40.6398 18.2717 40.6398 18.2744C40.652 18.3364 40.7827 19.7905 41.0468 21.2702Z" fill="#4D4D4D"/>
<path d="M12.9562 58.3618C13.0747 58.4701 13.2237 58.5393 13.3829 58.5599C13.5422 58.5805 13.7039 58.5517 13.8461 58.4772C13.9884 58.4026 14.1042 58.2862 14.1779 58.1435C14.2516 58.0009 14.2796 57.839 14.258 57.6799C14.2655 57.6429 14.2709 57.6056 14.2742 57.568C14.3672 55.2568 14.8281 50.9645 16.8698 48.1533C16.8698 48.1533 16.8698 48.1533 16.8698 48.1452C16.8879 48.1197 16.9046 48.0931 16.9196 48.0657C17.6226 46.7442 18.0443 45.2915 18.1581 43.799C18.6894 44.0492 19.2519 44.2269 19.8306 44.3273C21.3937 44.5986 22.977 44.7375 24.5635 44.7424C27.05 44.7424 29.9218 44.3812 32.5848 43.1777C32.7681 43.0879 32.9093 42.9303 32.9784 42.7382C33.0475 42.5461 33.0391 42.3346 32.9551 42.1486C32.871 41.9625 32.7178 41.8165 32.5279 41.7415C32.3381 41.6665 32.1265 41.6682 31.9379 41.7465C27.6416 43.6871 22.6768 43.2289 20.0988 42.7815C19.1403 42.6189 18.2515 42.1757 17.5449 41.508C16.2179 40.2421 15.1879 38.698 14.5289 36.9866C14.4586 36.7954 14.3169 36.639 14.1335 36.5503C13.9501 36.4616 13.7395 36.4476 13.546 36.5112C13.3525 36.5748 13.1913 36.7111 13.0963 36.8913C13.0014 37.0715 12.9801 37.2816 13.037 37.4771C13.7719 39.4394 14.9444 41.2083 16.4655 42.6494C16.5153 42.6966 16.5679 42.7397 16.6191 42.7842C16.6326 43.5079 16.5571 45.427 15.5625 47.2786C13.7001 49.8742 13.033 53.4698 12.7998 56.0384C10.0887 53.3023 7.91789 50.0794 6.40118 46.5388C6.40118 46.5226 6.41735 46.5064 6.42409 46.4876C6.86208 45.2221 7.26502 43.8165 7.6235 42.3098C7.94936 40.9434 8.114 39.5436 8.11405 38.1388V34.8708C8.11405 24.2553 14.9291 22.944 15.2162 22.8941H15.2539C18.4789 22.1988 22.3426 20.9279 25.0163 19.9846C25.2129 19.9152 25.3739 19.7706 25.4639 19.5826C25.5539 19.3946 25.5655 19.1785 25.4961 18.9819C25.4268 18.7853 25.2822 18.6243 25.0941 18.5344C24.9061 18.4444 24.69 18.4328 24.4935 18.5021C21.8669 19.4293 18.0786 20.6759 14.9372 21.3538C14.6852 21.3996 12.6759 21.8133 10.6813 23.6165C8.79461 25.324 6.54268 28.6635 6.54268 34.8762V38.1388C6.54266 39.4205 6.3925 40.6978 6.09526 41.9446C5.91333 42.7101 5.71387 43.4634 5.50499 44.1831C4.01859 39.7448 3.57197 35.0243 4.1996 30.386C4.82723 25.7478 6.51232 21.3157 9.12479 17.4321C9.1824 17.3466 9.2226 17.2506 9.24311 17.1496C9.26362 17.0486 9.26403 16.9445 9.24432 16.8433C9.22461 16.7422 9.18517 16.6459 9.12824 16.5599C9.07131 16.474 8.99801 16.4001 8.91253 16.3425C8.82705 16.2849 8.73107 16.2447 8.63005 16.2242C8.52903 16.2037 8.42496 16.2033 8.32379 16.223C8.22261 16.2427 8.1263 16.2821 8.04037 16.3391C7.95444 16.396 7.88056 16.4693 7.82295 16.5548C3.5059 22.9751 1.64844 30.7367 2.59131 38.4158C3.53418 46.0949 7.21415 53.1765 12.9562 58.3618V58.3618Z" fill="#4D4D4D"/>
<path d="M52.076 61.4222C52.1623 61.3658 52.2366 61.293 52.2947 61.2079C52.3529 61.1228 52.3937 61.0271 52.4148 60.9263C52.436 60.8254 52.4371 60.7214 52.418 60.6201C52.3989 60.5188 52.3601 60.4223 52.3037 60.336C52.2474 60.2497 52.1746 60.1754 52.0895 60.1172C52.0044 60.0591 51.9087 60.0183 51.8078 59.9971C51.7069 59.976 51.6029 59.9749 51.5016 59.994C51.4003 60.013 51.3038 60.0519 51.2175 60.1082C50.921 60.3005 50.6219 60.4883 50.32 60.6716C50.4251 57.9924 50.6084 55.4373 50.7418 53.967C50.7935 53.413 50.967 52.8773 51.2499 52.3983C51.479 52.0115 51.7121 51.5978 51.9439 51.1665C52.0328 50.9841 52.0477 50.7744 51.9855 50.5812C51.9232 50.3881 51.7886 50.2265 51.6099 50.1304C51.4312 50.0342 51.2222 50.0109 51.0268 50.0654C50.8313 50.1199 50.6644 50.2479 50.5612 50.4226C50.3389 50.8337 50.1165 51.2312 49.8982 51.5964C49.497 52.2769 49.2512 53.0376 49.1785 53.8241C49.0276 55.4777 48.816 58.4803 48.719 61.5058C48.7176 61.5277 48.7176 61.5498 48.719 61.5718C44.3316 63.8737 39.4511 65.0763 34.4965 65.0763C29.5419 65.0763 24.6614 63.8737 20.274 61.5718C20.274 61.5529 20.274 61.5341 20.274 61.5138C20.1743 58.107 19.9425 55.2324 19.8131 53.8214C19.741 53.0348 19.4952 52.2739 19.0934 51.5937C18.8765 51.2285 18.6541 50.8337 18.4304 50.4199C18.384 50.3248 18.3189 50.24 18.239 50.1707C18.159 50.1013 18.0659 50.0489 17.9652 50.0164C17.8645 49.9839 17.7582 49.9722 17.6528 49.9818C17.5475 49.9914 17.4451 50.0222 17.3519 50.0723C17.2587 50.1224 17.1766 50.1909 17.1105 50.2735C17.0444 50.3562 16.9957 50.4513 16.9673 50.5533C16.9389 50.6552 16.9314 50.7618 16.9452 50.8668C16.959 50.9717 16.9939 51.0727 17.0477 51.1638C17.2808 51.5978 17.5153 52.0129 17.7417 52.3956C18.0247 52.8746 18.1982 53.4103 18.2498 53.9643C18.3657 55.2311 18.5638 57.6986 18.6743 60.6675L18.487 60.557C18.3096 60.4507 18.0975 60.4186 17.8966 60.4677C17.6958 60.5168 17.5223 60.6431 17.414 60.8192C17.3056 60.9953 17.271 61.207 17.3178 61.4085C17.3645 61.6099 17.4887 61.7848 17.6636 61.8952C22.8552 65.0807 28.8443 66.727 34.9347 66.6428C41.025 66.5585 46.9664 64.7473 52.0679 61.4195L52.076 61.4222Z" fill="#4D4D4D"/>
<path d="M34.5001 2.35157C29.1259 2.3494 23.8368 3.693 19.1152 6.25977C19.0225 6.30803 18.9404 6.3743 18.8736 6.45469C18.8069 6.53509 18.7568 6.628 18.7264 6.72797C18.696 6.82795 18.6858 6.93299 18.6965 7.03695C18.7072 7.14091 18.7385 7.24169 18.7886 7.33339C18.8387 7.42509 18.9066 7.50588 18.9883 7.57102C19.07 7.63616 19.1639 7.68434 19.2645 7.71275C19.3651 7.74115 19.4703 7.74921 19.574 7.73645C19.6777 7.72368 19.7779 7.69036 19.8686 7.63842C21.5078 6.74454 23.2262 6.00421 25.0018 5.42692C25.4249 7.17887 25.9788 8.90657 26.2847 9.82028C26.476 10.3915 26.7871 10.9153 27.1971 11.3566L26.7928 18.1367C26.7928 18.2054 26.658 19.607 26.4114 20.9883C26.375 21.1935 26.4215 21.4047 26.5408 21.5755C26.6601 21.7464 26.8424 21.8629 27.0475 21.8993C27.092 21.9071 27.1371 21.9112 27.1823 21.9114C27.3664 21.9112 27.5446 21.8463 27.6857 21.728C27.8268 21.6098 27.922 21.4458 27.9545 21.2646C28.224 19.7822 28.3494 18.3307 28.3588 18.2687C28.3581 18.2656 28.3581 18.2624 28.3588 18.2593C28.3588 18.2593 28.3588 18.2512 28.3588 18.2472L28.7051 12.4981C28.9396 12.6427 29.1849 12.7851 29.441 12.9253C29.532 12.9812 29.6334 13.0179 29.7391 13.0332C29.8448 13.0486 29.9525 13.0422 30.0556 13.0146C30.1588 12.9869 30.2552 12.9385 30.339 12.8723C30.4228 12.8061 30.4923 12.7235 30.5431 12.6296C30.5939 12.5356 30.625 12.4323 30.6346 12.326C30.6441 12.2196 30.6319 12.1124 30.5986 12.0109C30.5653 11.9095 30.5117 11.8158 30.4411 11.7358C30.3704 11.6557 30.2841 11.5909 30.1876 11.5453C29.685 11.2763 29.1998 10.9761 28.7348 10.6464C28.284 10.3207 27.9476 9.86077 27.7739 9.33242C27.4707 8.43084 26.9208 6.71258 26.5085 4.99297C31.7421 3.57705 37.258 3.57705 42.4917 4.99297C42.0806 6.71123 41.5294 8.43354 41.2262 9.33377C41.0518 9.86177 40.715 10.3212 40.264 10.6464C38.7937 11.7056 36.8948 12.5075 35.5661 12.994C35.0518 13.1798 34.4976 13.2263 33.9597 13.1288C33.8564 13.1071 33.7499 13.1063 33.6464 13.1267C33.5429 13.147 33.4445 13.188 33.3572 13.2472C33.2699 13.3063 33.1954 13.3825 33.1381 13.4711C33.0808 13.5597 33.042 13.6589 33.0239 13.7628C33.0058 13.8667 33.0088 13.9732 33.0327 14.0759C33.0567 14.1787 33.101 14.2755 33.1632 14.3607C33.2254 14.4459 33.3041 14.5178 33.3946 14.5719C33.4851 14.626 33.5856 14.6614 33.6901 14.6759C34.5007 14.8194 35.3348 14.7459 36.1078 14.463C37.5323 13.9441 39.5686 13.0803 41.1844 11.9159C41.9043 11.3982 42.4421 10.6661 42.7208 9.82432C43.0267 8.9133 43.5819 7.18291 44.0037 5.435C56.2229 9.44024 65.077 20.9546 65.077 34.4999C65.0781 37.7981 64.5457 41.0748 63.5003 44.203C63.29 43.478 63.0879 42.7206 62.9046 41.9484C62.6071 40.7003 62.4569 39.4216 62.4572 38.1386V34.8705C62.4572 28.6578 60.2066 25.3183 58.3185 23.6108C56.324 21.8077 54.3147 21.3939 54.064 21.3481C50.9051 20.6743 47.0926 19.4115 44.4498 18.4763C44.3525 18.4419 44.2493 18.4271 44.1463 18.4326C44.0432 18.4382 43.9422 18.4639 43.8491 18.5085C43.756 18.553 43.6726 18.6155 43.6036 18.6923C43.5347 18.7691 43.4815 18.8587 43.4472 18.956C43.4128 19.0534 43.398 19.1565 43.4035 19.2596C43.4091 19.3627 43.4348 19.4636 43.4794 19.5567C43.5239 19.6498 43.5864 19.7333 43.6632 19.8022C43.74 19.8712 43.8296 19.9244 43.9269 19.9587C46.6222 20.9101 50.5035 22.1904 53.7473 22.8885H53.7837C53.8551 22.8993 60.8858 24.1849 60.8858 34.8651V38.1386C60.886 39.5455 61.0507 40.9476 61.3764 42.3163C61.72 43.761 62.1082 45.1167 62.5273 46.3485C62.5492 46.4116 62.5795 46.4715 62.6176 46.5264C61.9938 47.9889 61.2562 49.4002 60.4115 50.7472C60.3019 50.9232 60.2665 51.1354 60.313 51.3375C60.3595 51.5395 60.484 51.7149 60.6594 51.8254C60.7838 51.9047 60.9283 51.9468 61.0758 51.9467C61.2089 51.9467 61.3398 51.913 61.4562 51.8486C61.5727 51.7843 61.6708 51.6914 61.7416 51.5788C64.9536 46.4618 66.6546 40.5415 66.6484 34.4999C66.6484 16.7728 52.2271 2.35157 34.5001 2.35157Z" fill="#4D4D4D"/>
<path d="M13.1374 10.4766C13.035 10.5669 12.9339 10.6586 12.8329 10.7462C12.7543 10.8151 12.6902 10.8991 12.6445 10.9931C12.5988 11.0871 12.5723 11.1893 12.5666 11.2937C12.5609 11.3981 12.5761 11.5026 12.6113 11.6011C12.6464 11.6995 12.7009 11.79 12.7715 11.8671C12.8421 11.9442 12.9273 12.0065 13.0223 12.0502C13.1173 12.094 13.22 12.1184 13.3245 12.1219C13.429 12.1254 13.5331 12.1081 13.6308 12.0709C13.7285 12.0337 13.8178 11.9773 13.8935 11.9051L14.1819 11.645C14.2635 11.5778 14.3307 11.4948 14.3794 11.401C14.4282 11.3072 14.4575 11.2045 14.4657 11.0991C14.4738 10.9936 14.4606 10.8877 14.4268 10.7875C14.393 10.6873 14.3393 10.595 14.269 10.516C14.1987 10.4371 14.1131 10.3731 14.0175 10.328C13.9219 10.2829 13.8181 10.2576 13.7124 10.2535C13.6068 10.2495 13.5014 10.2668 13.4026 10.3044C13.3038 10.3421 13.2136 10.3993 13.1374 10.4726V10.4766Z" fill="#4D4D4D"/>
<path d="M35.2852 49.0288C35.2852 48.8205 35.2025 48.6206 35.0551 48.4733C34.9078 48.3259 34.7079 48.2432 34.4996 48.2432C34.2912 48.2432 34.0913 48.3259 33.944 48.4733C33.7966 48.6206 33.7139 48.8205 33.7139 49.0288V52.9087C33.7139 53.1171 33.7966 53.317 33.944 53.4643C34.0913 53.6117 34.2912 53.6944 34.4996 53.6944C34.7079 53.6944 34.9078 53.6117 35.0551 53.4643C35.2025 53.317 35.2852 53.1171 35.2852 52.9087V49.0288Z" fill="#4D4D4D"/>
<path d="M34.4996 55.897C34.2912 55.897 34.0913 55.9798 33.944 56.1271C33.7966 56.2744 33.7139 56.4743 33.7139 56.6827V59.2324C33.7139 59.4408 33.7966 59.6406 33.944 59.788C34.0913 59.9353 34.2912 60.0181 34.4996 60.0181C34.7079 60.0181 34.9078 59.9353 35.0551 59.788C35.2025 59.6406 35.2852 59.4408 35.2852 59.2324V56.6827C35.2852 56.5795 35.2649 56.4773 35.2254 56.382C35.1859 56.2867 35.1281 56.2001 35.0551 56.1271C34.9822 56.0541 34.8955 55.9963 34.8002 55.9568C34.7049 55.9173 34.6027 55.897 34.4996 55.897V55.897Z" fill="#4D4D4D"/>
<path d="M35.2852 31.0811C35.2852 30.8727 35.2025 30.6729 35.0551 30.5255C34.9078 30.3782 34.7079 30.2954 34.4996 30.2954C34.2912 30.2954 34.0913 30.3782 33.944 30.5255C33.7966 30.6729 33.7139 30.8727 33.7139 31.0811V39.477C33.7139 39.6854 33.7966 39.8852 33.944 40.0326C34.0913 40.1799 34.2912 40.2627 34.4996 40.2627C34.7079 40.2627 34.9078 40.1799 35.0551 40.0326C35.2025 39.8852 35.2852 39.6854 35.2852 39.477V31.0811Z" fill="#4D4D4D"/>
<path d="M37.6567 16.886C37.5682 16.8327 37.4701 16.7974 37.368 16.7821C37.2659 16.7668 37.1618 16.7718 37.0616 16.7969C36.9615 16.8219 36.8672 16.8665 36.7843 16.928C36.7014 16.9896 36.6315 17.0669 36.5785 17.1555L34.6918 20.2551C34.6575 20.3115 34.6103 20.359 34.5541 20.3936C34.4978 20.4281 34.4342 20.4488 34.3684 20.454C34.3025 20.4591 34.2365 20.4485 34.1755 20.4231C34.1146 20.3976 34.0606 20.3581 34.018 20.3077L33.1797 19.3158C33.1138 19.2349 33.0324 19.168 32.9402 19.1189C32.8481 19.0698 32.7472 19.0396 32.6432 19.03C32.5393 19.0204 32.4345 19.0315 32.3349 19.0629C32.2354 19.0942 32.143 19.1451 32.0634 19.2125C31.9837 19.2799 31.9182 19.3625 31.8708 19.4555C31.8234 19.5485 31.795 19.65 31.7873 19.7541C31.7796 19.8582 31.7927 19.9628 31.8258 20.0618C31.859 20.1608 31.9115 20.2521 31.9803 20.3306L32.8199 21.3211C33.0063 21.5415 33.2386 21.7186 33.5004 21.8401C33.7622 21.9616 34.0474 22.0245 34.336 22.0246C34.3872 22.0246 34.4385 22.0246 34.4897 22.0246C34.803 22 35.1061 21.9018 35.3743 21.7379C35.6424 21.5739 35.868 21.3489 36.0327 21.0812L37.9195 17.9816C37.9756 17.8928 38.0134 17.7937 38.0306 17.6901C38.0478 17.5865 38.044 17.4804 38.0195 17.3783C37.995 17.2761 37.9503 17.1799 37.888 17.0954C37.8256 17.0108 37.747 16.9396 37.6567 16.886V16.886Z" fill="#4D4D4D"/>
</svg>
