<svg width="69" height="69" viewBox="0 0 69 69" fill="none" xmlns="http://www.w3.org/2000/svg">
<path d="M39.032 14.9571C40.207 14.9537 41.3329 14.4854 42.1638 13.6546C42.9947 12.8237 43.4629 11.6978 43.4664 10.5228V7.91044C43.4629 6.73543 42.9947 5.60953 42.1638 4.77866C41.3329 3.9478 40.207 3.47951 39.032 3.47607C37.857 3.47951 36.7311 3.94781 35.9002 4.77867C35.0694 5.60953 34.6011 6.73543 34.5977 7.91044V10.5228C34.6011 11.6978 35.0694 12.8237 35.9002 13.6546C36.7311 14.4854 37.857 14.9537 39.032 14.9571V14.9571Z" fill="black"/>
<path d="M60.2263 58.7068H24.476V36.6068H24.9133C26.2792 36.6053 27.5886 36.062 28.5544 35.0962C29.5202 34.1304 30.0634 32.821 30.065 31.4552V29.1943C30.0658 28.4717 30.3532 27.7789 30.8641 27.268C31.3751 26.7571 32.0678 26.4696 32.7904 26.4688H35.6341L36.3554 32.8244L30.9276 40.486C30.3277 41.3328 29.9552 42.3194 29.8456 43.3514C29.736 44.3833 29.8931 45.4261 30.3018 46.38L34.565 56.3301H38.2517L34.83 45.3502C34.7406 45.0098 34.7364 44.6526 34.8177 44.3102C34.899 43.9678 35.0633 43.6506 35.2961 43.3866L39.4124 38.7202C39.4943 38.6273 39.5984 38.5567 39.7149 38.5148C39.8314 38.4729 39.9567 38.4611 40.079 38.4805C40.2012 38.4999 40.3166 38.5499 40.4144 38.6259C40.5122 38.7018 40.5893 38.8013 40.6384 38.9149L48.161 56.3301L51.2297 56.3299L46.0683 21.3942C45.927 20.1985 45.3179 19.1074 44.3742 18.3597C43.4305 17.6119 42.2291 17.2683 41.0327 17.404V17.404C37.4976 17.404 34.9314 20.278 35.3301 23.7905L35.4352 24.7169H32.7904C31.6034 24.7182 30.4653 25.1904 29.6259 26.0298C28.7865 26.8692 28.3144 28.0072 28.313 29.1943V31.4552C28.312 32.3565 27.9535 33.2207 27.3162 33.858C26.6788 34.4953 25.8147 34.8538 24.9133 34.8549H24.476V25.297C24.476 24.4393 24.1353 23.6168 23.5288 23.0103C22.9224 22.4039 22.0998 22.0632 21.2422 22.0632C20.3845 22.0632 19.562 22.4039 18.9555 23.0103C18.349 23.6168 18.0083 24.4393 18.0083 25.297V41.4853H11.383C11.244 41.4853 11.1071 41.5184 10.9834 41.5817C10.8598 41.6451 10.753 41.737 10.6719 41.8497L5.52917 48.9987C5.42192 49.1477 5.36423 49.3266 5.36426 49.5102V64.6128C5.36426 64.8451 5.45655 65.0679 5.62083 65.2322C5.7851 65.3965 6.00791 65.4888 6.24023 65.4888H17.9263V65.5246H60.2263C61.1304 65.5246 61.9974 65.1654 62.6367 64.5261C63.276 63.8868 63.6352 63.0198 63.6352 62.1157C63.6352 61.2116 63.276 60.3445 62.6367 59.7052C61.9974 59.0659 61.1304 58.7068 60.2263 58.7068V58.7068ZM19.7603 25.297C19.7603 24.904 19.9164 24.5271 20.1943 24.2491C20.4722 23.9712 20.8491 23.8151 21.2422 23.8151C21.6352 23.8151 22.0121 23.9712 22.29 24.2491C22.5679 24.5271 22.7241 24.904 22.7241 25.297V58.7068H19.7603V25.297ZM7.11625 49.7925L11.8319 43.2373H18.0083V63.7368H7.11625V49.7925ZM60.2263 63.7726H19.7603V60.4587H60.2263C60.6658 60.4587 61.0872 60.6333 61.398 60.944C61.7087 61.2548 61.8833 61.6762 61.8833 62.1157C61.8833 62.5551 61.7087 62.9766 61.398 63.2873C61.0872 63.598 60.6658 63.7726 60.2263 63.7726H60.2263Z" fill="black"/>
<path d="M10.514 61.78C11.2029 61.78 11.7614 61.2215 11.7614 60.5326C11.7614 59.8436 11.2029 59.2852 10.514 59.2852C9.82509 59.2852 9.2666 59.8436 9.2666 60.5326C9.2666 61.2215 9.82509 61.78 10.514 61.78Z" fill="black"/>
</svg>
