<svg width="69" height="69" viewBox="0 0 69 69" fill="none" xmlns="http://www.w3.org/2000/svg">
<path d="M11.8594 41.9687C11.8594 41.9687 24.0516 17.1719 53.1138 29.9989C53.1084 29.9989 47.3742 57.6528 11.8594 41.9687Z" fill="white"/>
<path d="M51.9508 33.422L51.9926 33.3249C52.0411 33.2104 52.0883 33.0972 52.1273 32.9867L52.1529 32.9274C52.312 32.5325 52.4481 32.1673 52.564 31.8371C52.5721 31.8115 52.5802 31.7873 52.5896 31.7616C52.6165 31.6808 52.6448 31.6013 52.6691 31.5258C52.6799 31.4921 52.6907 31.4625 52.7001 31.4301L52.7634 31.2374C52.7729 31.2037 52.7837 31.1727 52.7931 31.1404C52.8106 31.0838 52.8281 31.0285 52.8429 30.976C52.8578 30.9234 52.8618 30.914 52.8713 30.883C52.8807 30.852 52.8996 30.7859 52.913 30.7401C52.9265 30.6943 52.9278 30.6849 52.9359 30.6579C52.944 30.631 52.9588 30.5744 52.9696 30.5339L52.9898 30.4639C52.9993 30.4261 53.0087 30.3938 53.0168 30.3601C53.0249 30.3264 53.0276 30.3197 53.0316 30.3021C53.0357 30.2846 53.0464 30.2442 53.0518 30.2186L53.064 30.1728C53.064 30.1485 53.0734 30.1296 53.0788 30.1108C53.0842 30.0919 53.0788 30.0892 53.0855 30.0798L53.095 30.0393V30.0232V30.0043C52.7715 29.8695 52.4521 29.7267 52.1341 29.6L51.9333 29.5165C51.6206 29.3817 51.3093 29.2604 50.9994 29.1405L50.8888 29.0973C50.591 28.9828 50.2959 28.8709 50.0021 28.7645L49.8875 28.7213C49.5713 28.6063 49.2568 28.4963 48.9442 28.3912L48.8364 28.3548C48.1904 28.1374 47.5538 27.9392 46.9267 27.7605L46.8661 27.7429C46.2174 27.5632 45.5795 27.3984 44.9524 27.2483C21.7512 21.8442 11.8594 41.9688 11.8594 41.9688C12.1613 42.1027 12.4604 42.2325 12.7569 42.3583C16.2608 37.8207 25.747 28.5785 43.3069 31.4557C43.7746 31.5325 44.2503 31.6148 44.7247 31.7091C45.4602 31.9832 46.0981 32.4688 46.5584 33.1046C47.0186 33.7405 47.2806 34.4982 47.3112 35.2825C47.3419 36.0668 47.14 36.8427 46.7308 37.5126C46.3217 38.1824 45.7235 38.7163 45.0117 39.0471C44.8751 39.1109 44.7528 39.2016 44.6519 39.3138C44.5511 39.4259 44.4739 39.5571 44.4248 39.6997C44.3758 39.8423 44.356 39.9933 44.3665 40.1438C44.377 40.2942 44.4177 40.4409 44.4861 40.5753C44.7643 41.1265 45.0795 41.6583 45.4295 42.1669C48.7649 39.4837 50.7339 36.1537 51.8416 33.6551C51.8848 33.5742 51.9171 33.4961 51.9508 33.422Z" fill="#CCCCCC"/>
<path d="M39.038 26.3831C31.4493 25.9788 25.6409 28.4652 21.4093 31.5769C21.3971 31.7791 21.3877 31.9812 21.3877 32.1888C21.3857 33.1854 21.5357 34.1766 21.8324 35.128C22.1483 34.6478 22.574 34.2497 23.0743 33.9667C23.5745 33.6836 24.1349 33.5237 24.7092 33.5001C25.2835 33.4766 25.8552 33.5901 26.3769 33.8312C26.8986 34.0724 27.3555 34.4343 27.7097 34.887C28.0638 35.3397 28.3051 35.8702 28.4137 36.4346C28.5222 36.999 28.4948 37.5812 28.3337 38.1329C28.1726 38.6847 27.8826 39.1902 27.4874 39.6076C27.0923 40.025 26.6035 40.3424 26.0614 40.5335C27.9963 41.7165 30.2823 42.1902 32.528 41.8736C34.7737 41.557 36.8396 40.4698 38.3721 38.798C39.9046 37.1262 40.8084 34.9737 40.9289 32.709C41.0494 30.4442 40.3791 28.208 39.0326 26.3831H39.038Z" fill="#A4D9ED"/>
<path d="M40.8896 31.1307C40.7046 29.4131 40.0655 27.7757 39.038 26.387C31.4493 25.9827 25.6409 28.4691 21.4093 31.5808C21.3971 31.783 21.3877 31.9851 21.3877 32.1927C21.3877 33.0328 21.4959 33.8694 21.7098 34.6818C22.159 34.4311 22.6253 34.1886 23.1087 33.9541C23.242 33.8793 23.3802 33.8136 23.5224 33.7573C27.9589 31.6806 33.6918 30.3639 40.8896 31.1307Z" fill="#70B0C4"/>
<path d="M33.6712 41.6426C34.1377 40.7935 34.3304 39.821 34.2232 38.8582C34.1159 37.8953 33.7139 36.9891 33.072 36.2635C32.4301 35.5378 31.5798 35.0281 30.6372 34.8042C29.6947 34.5802 28.7059 34.6528 27.8062 35.0121C28.1351 35.4684 28.353 35.9952 28.4424 36.5506C28.5319 37.1059 28.4905 37.6745 28.3216 38.211C28.1526 38.7475 27.8608 39.2372 27.4693 39.6411C27.0778 40.045 26.5974 40.3519 26.0664 40.5375C27.194 41.225 28.449 41.6773 29.7559 41.8672C31.0628 42.0571 32.3946 41.9807 33.6712 41.6426V41.6426Z" fill="#C5EDF9"/>
<path d="M33.7659 35.674C35.2649 35.674 36.4801 34.4588 36.4801 32.9598C36.4801 31.4608 35.2649 30.2456 33.7659 30.2456C32.2669 30.2456 31.0518 31.4608 31.0518 32.9598C31.0518 34.4588 32.2669 35.674 33.7659 35.674Z" fill="white"/>
<path d="M34.5 2.35156C29.1258 2.34957 23.8367 3.69316 19.1151 6.25977C19.0224 6.30803 18.9403 6.3743 18.8735 6.45469C18.8068 6.53509 18.7567 6.628 18.7263 6.72797C18.6959 6.82795 18.6857 6.93299 18.6964 7.03695C18.7071 7.1409 18.7384 7.24168 18.7885 7.33339C18.8386 7.42509 18.9065 7.50588 18.9882 7.57102C19.0699 7.63616 19.1638 7.68434 19.2644 7.71275C19.365 7.74115 19.4702 7.74921 19.5739 7.73645C19.6776 7.72368 19.7778 7.69036 19.8684 7.63842C24.3591 5.1982 29.3891 3.92089 34.5 3.92293C51.3605 3.92293 65.0769 17.6394 65.0769 34.4999C65.0769 51.3604 51.3605 65.0769 34.5 65.0769C17.6394 65.0769 3.92298 51.3604 3.92298 34.4999C3.91276 28.4186 5.72463 22.4737 9.12493 17.4318C9.18254 17.3464 9.22274 17.2504 9.24325 17.1494C9.26376 17.0483 9.26417 16.9443 9.24446 16.8431C9.22475 16.7419 9.18531 16.6456 9.12838 16.5597C9.07145 16.4737 8.99815 16.3999 8.91267 16.3423C8.82719 16.2847 8.7312 16.2444 8.63019 16.2239C8.52917 16.2034 8.4251 16.203 8.32392 16.2227C8.22275 16.2424 8.12644 16.2819 8.04051 16.3388C7.95458 16.3957 7.8807 16.469 7.82309 16.5545C4.24659 21.855 2.34077 28.1057 2.35161 34.4999C2.35161 52.227 16.7715 66.6482 34.5 66.6482C52.2284 66.6482 66.6483 52.227 66.6483 34.4999C66.6483 16.7728 52.227 2.35156 34.5 2.35156Z" fill="#4D4D4D"/>
<path d="M13.8918 11.9104L14.1815 11.649C14.2632 11.5817 14.3304 11.4987 14.3791 11.4049C14.4279 11.3111 14.4572 11.2084 14.4654 11.103C14.4735 10.9976 14.4603 10.8916 14.4265 10.7914C14.3927 10.6912 14.339 10.5989 14.2687 10.5199C14.1983 10.441 14.1128 10.377 14.0172 10.3319C13.9215 10.2868 13.8178 10.2615 13.7121 10.2574C13.6065 10.2534 13.5011 10.2707 13.4023 10.3083C13.3035 10.346 13.2133 10.4032 13.1371 10.4765C13.0347 10.5668 12.9336 10.6584 12.8325 10.746C12.683 10.8876 12.595 11.0822 12.5874 11.288C12.5799 11.4938 12.6535 11.6943 12.7923 11.8464C12.9312 11.9985 13.1242 12.09 13.3298 12.1012C13.5354 12.1124 13.7372 12.0424 13.8918 11.9064V11.9104Z" fill="#4D4D4D"/>
<path d="M51.9598 34.1817C52.0694 34.1815 52.1776 34.1583 52.2777 34.1138C52.3778 34.0692 52.4674 34.0042 52.5409 33.923C52.6143 33.8417 52.67 33.746 52.7043 33.642C52.7386 33.5379 52.7507 33.4279 52.74 33.3189C52.7292 33.2099 52.6958 33.1043 52.6418 33.009C52.5879 32.9136 52.5146 32.8307 52.4266 32.7653C52.3387 32.7 52.2381 32.6538 52.1312 32.6297C52.0244 32.6055 51.9137 32.604 51.8062 32.6252C51.7561 32.6359 51.7069 32.6508 51.6593 32.6696C51.6126 32.6904 51.5675 32.7147 51.5245 32.7424C51.4813 32.7711 51.4411 32.804 51.4046 32.8408C51.2949 32.9507 51.2201 33.0906 51.1899 33.2429C51.1596 33.3953 51.1752 33.5531 51.2346 33.6966C51.294 33.8401 51.3946 33.9628 51.5237 34.0491C51.6528 34.1354 51.8045 34.1816 51.9598 34.1817V34.1817Z" fill="#4D4D4D"/>
<path d="M53.722 38.745C53.897 38.8512 54.1066 38.8848 54.306 38.8387C54.5055 38.7927 54.6791 38.6706 54.7899 38.4985C54.9007 38.3264 54.94 38.1179 54.8993 37.9172C54.8587 37.7166 54.7414 37.5398 54.5723 37.4243C53.5845 36.7628 52.4329 36.3874 51.245 36.3395C51.2457 36.1678 51.19 36.0006 51.0863 35.8637C50.9827 35.7268 50.837 35.6277 50.6716 35.5818C50.5061 35.5358 50.3302 35.5455 50.1708 35.6094C50.0114 35.6732 49.8775 35.7877 49.7895 35.9352C49.6062 36.2397 49.4135 36.5443 49.2114 36.8462V36.8529C44.5377 43.885 34.8817 50.1179 15.1157 42.501C14.922 42.4294 14.7078 42.4369 14.5196 42.522C14.3315 42.6071 14.1843 42.7628 14.1101 42.9556C14.0359 43.1483 14.0405 43.3625 14.123 43.5518C14.2056 43.7411 14.3593 43.8904 14.551 43.9672C20.699 46.335 26.2877 47.5223 31.2619 47.5223C34.2699 47.5223 37.0492 47.0875 39.5999 46.2178C40.4686 45.9204 41.3172 45.567 42.1402 45.1599C42.5041 45.2879 43.8154 45.8674 44.6037 47.7582C44.6633 47.9014 44.764 48.0237 44.893 48.1098C45.022 48.1959 45.1737 48.2419 45.3288 48.242C45.4325 48.2418 45.5352 48.2208 45.6307 48.18C45.726 48.1405 45.8125 48.0825 45.8854 48.0095C45.9583 47.9364 46.016 47.8497 46.0553 47.7543C46.0946 47.6589 46.1147 47.5567 46.1145 47.4535C46.1142 47.3504 46.0936 47.2483 46.0538 47.1531C45.4299 45.6585 44.5242 44.7731 43.7722 44.2597C44.9213 43.5559 46.0004 42.7435 46.9945 41.8339C47.3678 41.8339 48.8179 41.9309 50.1992 43.4255C50.3422 43.5715 50.5366 43.6561 50.7409 43.6612C50.9453 43.6663 51.1436 43.5915 51.2938 43.4528C51.4439 43.314 51.5341 43.1222 51.5451 42.9181C51.5561 42.714 51.4871 42.5136 51.3528 42.3595C50.5526 41.4624 49.5178 40.8067 48.365 40.466C49.0804 39.6843 49.7401 38.8535 50.3394 37.9796C50.8191 37.8691 52.1547 37.7343 53.722 38.745Z" fill="#4D4D4D"/>
<path d="M11.0267 45.4971C11.0686 45.5035 11.111 45.5067 11.1534 45.5065C11.3399 45.5063 11.5203 45.4398 11.6623 45.3188C11.8043 45.1978 11.8986 45.0303 11.9283 44.8462C12.0972 43.9648 12.3223 43.0951 12.6021 42.2425C12.9364 41.5997 15.5266 36.8451 20.6301 32.8547C20.683 33.7068 20.8386 34.5493 21.0937 35.3641C21.1383 35.5058 21.2221 35.632 21.3355 35.7281C21.4489 35.8241 21.5872 35.886 21.7343 35.9066C21.8815 35.9272 22.0315 35.9057 22.1669 35.8444C22.3023 35.7832 22.4176 35.6849 22.4993 35.5608C22.7476 35.1881 23.0809 34.8797 23.4716 34.6609C23.8623 34.4421 24.2994 34.3191 24.7469 34.3021C25.1944 34.285 25.6395 34.3745 26.0458 34.563C26.452 34.7515 26.8077 35.0337 27.0836 35.3864C27.3595 35.7391 27.5478 36.1523 27.6329 36.592C27.7181 37.0316 27.6977 37.4852 27.5734 37.9154C27.4491 38.3457 27.2245 38.7403 26.9181 39.0668C26.6116 39.3934 26.232 39.6425 25.8105 39.7938C25.6709 39.8434 25.5481 39.9316 25.4564 40.048C25.3647 40.1645 25.3078 40.3045 25.2923 40.4519C25.2768 40.5993 25.3033 40.7481 25.3688 40.8811C25.4343 41.0141 25.536 41.1258 25.6623 41.2034C27.4739 42.3101 29.5768 42.8456 31.6971 42.74C33.8174 42.6345 35.8568 41.8928 37.5496 40.6117C39.2423 39.3305 40.51 37.5692 41.1874 35.5573C41.8649 33.5454 41.9207 31.3761 41.3476 29.3319C41.3225 29.2297 41.277 29.1335 41.214 29.0491C41.1509 28.9647 41.0715 28.8939 40.9805 28.8408C40.8895 28.7878 40.7888 28.7535 40.6843 28.7402C40.5798 28.7268 40.4737 28.7346 40.3723 28.7631C40.2709 28.7916 40.1762 28.8401 40.094 28.9059C40.0117 28.9717 39.9435 29.0534 39.8935 29.146C39.8434 29.2387 39.8124 29.3405 39.8025 29.4454C39.7926 29.5502 39.8038 29.656 39.8356 29.7565C40.2916 31.3839 40.2801 33.1069 39.8024 34.7281C39.3246 36.3494 38.3999 37.8033 37.1341 38.9233C35.8684 40.0434 34.3128 40.7843 32.6455 41.0612C30.9781 41.3381 29.2665 41.1399 27.7067 40.4892C28.5733 39.7518 29.1211 38.7077 29.2354 37.5756C29.3497 36.4434 29.0216 35.3109 28.3199 34.4152C27.6181 33.5194 26.597 32.9299 25.4704 32.7699C24.3438 32.6099 23.199 32.8919 22.2756 33.5568C22.2077 33.1063 22.1734 32.6513 22.1732 32.1957C22.1732 32.1324 22.1732 32.0448 22.1732 31.9464C22.1732 31.8831 22.1732 31.8116 22.1732 31.7348C28.7686 27.2539 36.3654 26.0127 44.8367 28.0099C44.8882 28.0317 44.942 28.0475 44.9971 28.0571L45.1238 28.0773C47.7537 28.732 50.3206 29.6177 52.7946 30.7241H52.8054H52.8162C54.0516 31.2397 55.257 31.8246 56.4266 32.476C56.6071 32.5695 56.8169 32.5894 57.0118 32.5315C57.2066 32.4736 57.3715 32.3423 57.4716 32.1654C57.5718 31.9885 57.5995 31.7796 57.5488 31.5827C57.4982 31.3858 57.3732 31.2162 57.2001 31.1095C55.9728 30.4226 54.707 29.8066 53.4092 29.2646C52.4294 28.832 51.4591 28.4425 50.4942 28.0854C52.2556 27.8414 54.1679 27.2956 55.7945 26.1676C55.8822 26.1101 55.9575 26.0357 56.016 25.9486C56.0744 25.8615 56.1149 25.7636 56.1349 25.6607C56.1549 25.5577 56.1541 25.4518 56.1326 25.3492C56.111 25.2465 56.0692 25.1493 56.0094 25.0631C55.9497 24.9769 55.8733 24.9035 55.7847 24.8473C55.6962 24.7911 55.5973 24.7532 55.4939 24.7358C55.3904 24.7184 55.2846 24.7219 55.1825 24.7461C55.0805 24.7703 54.9843 24.8147 54.8997 24.8766C51.1572 27.4722 45.3313 26.5046 45.2666 26.4938H45.2478C41.4582 25.603 37.8047 25.3227 34.3317 25.669C29.5947 26.1348 25.0556 27.805 21.1463 30.5206C19.2629 31.8216 17.5244 33.3206 15.9605 34.9921C16.319 34.4274 16.7044 33.8587 17.1235 33.29C22.7257 25.7027 31.1149 21.8956 42.0552 21.9778C42.2577 21.9694 42.4492 21.883 42.5896 21.7367C42.7299 21.5904 42.8083 21.3955 42.8083 21.1928C42.8083 20.99 42.7299 20.7951 42.5896 20.6488C42.4492 20.5025 42.2577 20.4162 42.0552 20.4078C35.7481 20.366 30.15 21.5991 25.4264 24.0882C21.6268 26.0927 18.3362 28.9402 15.8069 32.4127C11.4108 38.4084 10.4176 44.3475 10.3772 44.5968C10.3441 44.8023 10.394 45.0125 10.5157 45.1813C10.6375 45.3501 10.8213 45.4637 11.0267 45.4971V45.4971Z" fill="#4D4D4D"/>
<path d="M48.4324 17.4752C48.2351 17.4088 48.0195 17.4233 47.8329 17.5155C47.6462 17.6077 47.5037 17.77 47.4365 17.9671C46.3112 21.2864 43.0606 22.7095 43.0216 22.727C42.8379 22.8134 42.6947 22.9676 42.6222 23.1572C42.5496 23.3468 42.5533 23.5571 42.6324 23.7441C42.7115 23.9311 42.8599 24.0802 43.0465 24.1601C43.2331 24.2401 43.4435 24.2447 43.6334 24.173C44.6862 23.6875 45.6501 23.0288 46.485 22.2243C47.8327 22.3591 49.2262 22.5397 50.6372 22.7782C50.6816 22.786 50.7268 22.7896 50.7719 22.789C50.9681 22.7883 51.157 22.7142 51.3013 22.5814C51.4457 22.4485 51.5351 22.2664 51.552 22.071C51.5689 21.8755 51.512 21.6808 51.3926 21.5251C51.2732 21.3694 51.0999 21.2641 50.9067 21.2298C49.8407 21.0492 48.7855 20.8996 47.7491 20.7796C48.2494 20.071 48.6439 19.2934 48.9202 18.4711C48.9872 18.2743 48.9735 18.059 48.882 17.8724C48.7906 17.6857 48.6289 17.5429 48.4324 17.4752V17.4752Z" fill="#4D4D4D"/>
<path d="M32.6715 31.3707C32.7604 31.3138 32.8368 31.2396 32.8964 31.1526C32.9559 31.0655 32.9973 30.9674 33.0181 30.864C33.0389 30.7606 33.0387 30.6541 33.0174 30.5508C32.9962 30.4474 32.9544 30.3495 32.8945 30.2627C32.8345 30.1759 32.7578 30.102 32.6687 30.0455C32.5796 29.9891 32.4801 29.9511 32.3761 29.9339C32.272 29.9167 32.1655 29.9206 32.063 29.9454C31.9605 29.9702 31.8641 30.0154 31.7794 30.0783C31.3062 30.4029 30.92 30.8388 30.6547 31.3476C30.3895 31.8564 30.2532 32.4226 30.2579 32.9964C30.2627 33.5702 30.4083 34.1341 30.6819 34.6385C30.9555 35.1428 31.3489 35.5723 31.8273 35.8891C32.3058 36.2059 32.8547 36.4003 33.4259 36.4553C33.9971 36.5103 34.5731 36.4242 35.1032 36.2045C35.6333 35.9848 36.1013 35.6383 36.4662 35.1954C36.831 34.7525 37.0815 34.2267 37.1956 33.6644C37.2196 33.5621 37.2227 33.456 37.2049 33.3525C37.1872 33.2489 37.1488 33.15 37.0921 33.0616C37.0354 32.9731 36.9616 32.8969 36.8749 32.8375C36.7883 32.7781 36.6906 32.7366 36.5877 32.7156C36.4847 32.6946 36.3786 32.6945 36.2756 32.7152C36.1726 32.7359 36.0748 32.7771 35.988 32.8363C35.9012 32.8955 35.8271 32.9715 35.7702 33.0598C35.7133 33.1481 35.6747 33.2469 35.6566 33.3504C35.5924 33.659 35.4536 33.9471 35.2522 34.1896C35.0509 34.4321 34.7932 34.6216 34.5016 34.7414C34.2101 34.8613 33.8937 34.9078 33.58 34.877C33.2663 34.8462 32.9649 34.7389 32.7023 34.5647C32.4396 34.3904 32.2237 34.1544 32.0734 33.8774C31.9231 33.6003 31.843 33.2907 31.8401 32.9755C31.8372 32.6603 31.9116 32.3492 32.0568 32.0694C32.202 31.7897 32.4135 31.5497 32.6729 31.3707H32.6715Z" fill="#4D4D4D"/>
<path d="M35.0742 31.543C35.2284 31.6776 35.429 31.7467 35.6334 31.7356C35.8378 31.7245 36.0298 31.6341 36.1685 31.4836C36.3072 31.3331 36.3817 31.1344 36.3762 30.9298C36.3707 30.7252 36.2855 30.5308 36.1388 30.3881C36.0607 30.3167 35.9785 30.2466 35.8936 30.1819C35.7279 30.0636 35.5227 30.0142 35.3213 30.0442C35.12 30.0742 34.9381 30.1812 34.8141 30.3426C34.69 30.5041 34.6335 30.7073 34.6563 30.9096C34.6792 31.112 34.7798 31.2975 34.9367 31.4271C34.9839 31.4649 35.0297 31.5026 35.0742 31.543Z" fill="#4D4D4D"/>
</svg>
