<svg width="69" height="69" viewBox="0 0 69 69" fill="none" xmlns="http://www.w3.org/2000/svg">
<path d="M27.3635 23.0609C27.5072 22.6602 27.9102 22.4134 28.3326 22.4686C28.7548 22.5236 29.0815 22.8652 29.1178 23.2894L30.5649 40.1958L33.2746 30.4287C33.3854 30.0293 33.7514 29.755 34.1673 29.7654C34.5814 29.7745 34.9366 30.0637 35.0297 30.4674L36.5387 37.0136L39.115 26.1888C39.2156 25.7653 39.6042 25.4753 40.0385 25.4938C40.4733 25.5145 40.8321 25.8417 40.8927 26.2727L42.8154 39.9804L43.6773 37.1945C43.7948 36.8153 44.1455 36.5569 44.5424 36.5569H64.9333V31.8892C64.9333 27.5803 61.4399 24.0861 57.1286 24.0861H44.7401V11.6973C44.7401 7.38645 41.2469 3.89355 36.9364 3.89355H32.429H31.718C27.4085 3.89355 23.9133 7.38662 23.9133 11.6973V24.086H11.5241C7.21673 24.086 3.72168 27.5802 3.72168 31.889V36.6563H22.485L27.3635 23.0609Z" fill="#E74424"/>
<path d="M43.3473 44.3892C43.2217 44.7941 42.8311 45.0585 42.4096 45.0241C41.9867 44.9897 41.6442 44.6673 41.5855 44.247L39.7662 31.2767L37.4059 41.1939C37.3088 41.6019 36.9441 41.8899 36.5251 41.8899C36.5241 41.8899 36.5229 41.8899 36.5218 41.8899C36.1012 41.8882 35.7371 41.5976 35.6426 41.1876L34.0668 34.3509L30.9652 45.5305C30.8554 45.9254 30.496 46.1938 30.0932 46.1938C30.0652 46.1938 30.0371 46.1924 30.0088 46.1901C29.5722 46.1494 29.2276 45.8023 29.1904 45.3656L27.6679 27.5767L23.9754 37.8681C23.8464 38.2281 23.5054 38.4678 23.1231 38.4678H3.84277C4.48633 42.1291 7.68094 44.9118 11.5249 44.9118H23.9141V57.3008C23.9141 61.6116 27.4093 65.1062 31.7188 65.1062H32.4298H36.9372C41.2477 65.1062 44.7409 61.6114 44.7409 57.3008V44.9118H57.1294C61.0118 44.9118 64.2294 42.0786 64.8316 38.3682H45.2106L43.3473 44.3892Z" fill="#E74424"/>
<path d="M68.0949 36.5569H64.9337H44.5428C44.1459 36.5569 43.795 36.8154 43.6777 37.1945L42.8158 39.9804L40.893 26.2727C40.8325 25.8418 40.4736 25.5145 40.0389 25.4938C39.6046 25.4753 39.216 25.7653 39.1154 26.1888L36.539 37.0136L35.0301 30.4674C34.9369 30.0637 34.5817 29.7746 34.1676 29.7655C33.7517 29.755 33.3858 30.0295 33.2749 30.4287L30.5652 40.1958L29.1181 23.2894C29.0819 22.8652 28.7552 22.5234 28.333 22.4686C27.9104 22.4134 27.5076 22.6602 27.3638 23.0609L22.4857 36.6565H3.7222H0.905609C0.405489 36.6565 0 37.0619 0 37.5622C0 38.0622 0.405324 38.4677 0.905609 38.4677H3.84247H23.1225C23.505 38.4677 23.8458 38.228 23.9748 37.868L27.6672 27.5765L29.1898 45.3655C29.2272 45.8022 29.5718 46.1493 30.0082 46.19C30.0365 46.1923 30.0646 46.1936 30.0926 46.1936C30.4956 46.1936 30.8547 45.9253 30.9646 45.5304L34.0662 34.3506L35.642 41.1873C35.7365 41.5974 36.1006 41.8879 36.5212 41.8896C36.5223 41.8896 36.5235 41.8896 36.5245 41.8896C36.9435 41.8896 37.3081 41.6017 37.4053 41.1936L39.7656 31.2766L41.5849 44.2469C41.6436 44.6671 41.9862 44.9897 42.4089 45.024C42.8305 45.0584 43.2211 44.794 43.3466 44.389L45.21 38.3677H64.8308H68.0947C68.5947 38.3677 69 37.9624 69 37.4623C69.0002 36.9622 68.595 36.5569 68.0949 36.5569Z" fill="#F7F1E6"/>
</svg>
