<svg width="69" height="69" viewBox="0 0 69 69" fill="none" xmlns="http://www.w3.org/2000/svg">
<path d="M65.8622 34.5C65.8622 17.3739 52.135 3.4567 35.0831 3.14404V7.17893C35.0836 8.10183 34.7445 8.99265 34.1303 9.68152L16.0973 29.9179C15.3947 30.7062 14.8936 31.6531 14.6371 32.6774C14.3806 33.7017 14.3762 34.7729 14.6243 35.7993C14.8725 36.8257 15.3658 37.7766 16.0619 38.5706C16.7581 39.3646 17.6363 39.978 18.6214 40.3582L26.1063 43.2463C26.1063 43.2463 29.0564 44.5279 27.9014 47.7353L25.3516 52.4238C25.1285 52.8334 24.9974 53.2868 24.9676 53.7524C24.9378 54.2179 25.01 54.6844 25.1791 55.1191C25.5444 56.0625 26.1346 57.309 27.0039 58.3777L25.2883 60.2402C24.8734 60.69 24.5904 61.2453 24.4704 61.8454C24.3503 62.4454 24.3978 63.0669 24.6077 63.6417C24.6913 63.8721 24.7883 64.1147 24.8975 64.3654C28.0008 65.3609 31.2405 65.8661 34.4995 65.8626C51.821 65.8626 65.8622 51.8214 65.8622 34.5Z" fill="#FFE2D4"/>
<path d="M30.6149 53.8026C28.7756 53.4063 26.8902 53.267 25.0127 53.3889C24.909 53.9683 24.9668 54.5651 25.1798 55.1139C25.545 56.0573 26.1353 57.3038 27.0045 58.3725L25.2889 60.2404C24.874 60.6902 24.591 61.2455 24.471 61.8456C24.3509 62.4456 24.3985 63.0671 24.6084 63.6419C24.6919 63.8723 24.789 64.1149 24.8981 64.3656C32.2292 66.7143 40.167 66.2933 47.2086 63.1823C39.8719 61.588 34.4705 56.7634 32.6054 54.901C32.0584 54.3549 31.3685 53.9743 30.6149 53.8026V53.8026Z" fill="#F7BDB5"/>
<path d="M26.4877 35.5687C26.221 35.5257 25.9477 35.5564 25.6972 35.6575C25.4468 35.7586 25.2286 35.9262 25.0665 36.1422C24.9043 36.3582 24.8042 36.6144 24.7771 36.8831C24.7499 37.1518 24.7966 37.4229 24.9123 37.667C25.4298 38.7208 26.6184 39.7922 29.2895 39.9876C29.2895 39.9876 32.4524 40.1601 33.6316 41.6048C33.6316 41.5994 31.5603 36.4783 26.4877 35.5687Z" fill="#EFB9AB"/>
<path d="M18.8978 38.6778C19.26 38.2064 19.5003 37.6529 19.5977 37.0665C19.695 36.48 19.6462 35.8786 19.4558 35.3154C18.79 33.3074 20.3519 31.7441 20.3519 31.7441L32.5051 18.2487C32.8352 17.8824 33.0864 17.4522 33.243 16.9846C33.3997 16.5171 33.4585 16.0224 33.4157 15.5312C33.373 15.04 33.2297 14.5628 32.9947 14.1294C32.7596 13.696 32.438 13.3155 32.0496 13.0117L31.5254 12.6074L16.0974 29.9181C15.4413 30.6542 14.9604 31.5293 14.6906 32.4778C14.4209 33.4262 14.3693 34.4235 14.5398 35.3947C14.7103 36.3659 15.0984 37.286 15.6751 38.0858C16.2517 38.8857 17.002 39.5447 17.8696 40.0134L18.8978 38.6778Z" fill="#FFF9F8"/>
<path d="M49.2915 19.623C46.3779 18.5786 42.653 16.7674 41.5829 14.0977L36.4147 24.9126C36.0126 25.7527 35.8311 26.6814 35.8872 27.611C35.9433 28.5407 36.2352 29.4408 36.7354 30.2264C37.8782 32.0215 39.4173 34.5295 40.6922 36.9256L41.552 38.6506C41.8767 40.3271 41.8107 42.354 40.5129 44.2097C40.5129 44.2097 37.9065 46.7797 33.8164 46.0614C33.8164 46.0614 35.7153 47.0775 38.8701 48.2365C42.2595 49.4804 46.9992 46.6813 46.417 43.3917C46.417 43.3917 46.2822 42.8041 46.1663 42.5103L42.0344 31.8786C41.639 30.8606 41.4536 29.7732 41.4892 28.6817C41.5249 27.5902 41.7809 26.5171 42.242 25.5271L43.6449 22.5138C43.9915 21.7695 44.5762 21.1618 45.3066 20.7867C46.037 20.4116 46.8715 20.2905 47.6784 20.4424C48.1016 20.5219 48.5584 20.5961 49.0368 20.6567C49.1646 20.6673 49.292 20.632 49.3961 20.5572C49.5002 20.4824 49.5742 20.3729 49.6049 20.2485C49.6355 20.124 49.6208 19.9927 49.5634 19.878C49.506 19.7634 49.4096 19.673 49.2915 19.623V19.623Z" fill="#EFB9AB"/>
<path d="M47.208 63.1794C45.0861 62.7063 43.0306 61.973 41.0883 60.9962C40.87 60.8965 40.6746 60.7981 40.5048 60.6997C40.0915 60.4814 39.6895 60.2568 39.2987 60.0259C38.3391 63.5864 35.1425 62.7899 35.005 62.7535C33.9062 62.3874 32.8321 61.9508 31.7895 61.4463C29.2438 62.1147 28.7047 63.8317 28.667 65.3181C34.9214 66.497 41.3863 65.7513 47.208 63.1794V63.1794Z" fill="#E89991"/>
<path d="M30.2874 56.1378L29.309 57.2753C29.2417 57.3542 29.1584 57.418 29.0647 57.4626C28.971 57.5071 28.869 57.5313 28.7652 57.5336C28.6615 57.5358 28.5585 57.5162 28.4629 57.4758C28.3673 57.4355 28.2814 57.3754 28.2106 57.2995C27.8894 56.9562 27.6843 56.5206 27.6244 56.0543C27.5301 55.2524 29.0138 55.2861 29.9949 55.3939C30.076 55.4042 30.1529 55.4361 30.2174 55.4863C30.2819 55.5365 30.3318 55.6031 30.3617 55.6792C30.3916 55.7553 30.4005 55.838 30.3874 55.9187C30.3743 55.9994 30.3398 56.0751 30.2874 56.1378V56.1378Z" fill="white"/>
<path d="M31.5649 57.0746L30.6297 58.3764C30.5936 58.4267 30.5681 58.4838 30.5548 58.5443C30.5414 58.6047 30.5404 58.6672 30.5519 58.7281C30.5633 58.7889 30.587 58.8468 30.6214 58.8982C30.6559 58.9496 30.7004 58.9936 30.7523 59.0273L31.1957 59.3144C31.252 59.3514 31.3159 59.3755 31.3827 59.3849C31.4494 59.3944 31.5175 59.3889 31.5819 59.369C31.6463 59.349 31.7055 59.315 31.7552 59.2695C31.805 59.2239 31.844 59.1679 31.8695 59.1055L32.4476 57.7107C32.4947 57.5976 32.5084 57.4734 32.4872 57.3528C32.4659 57.2322 32.4106 57.1202 32.3277 57.0301V57.0301C32.2786 56.9755 32.2179 56.9328 32.15 56.9049C32.0822 56.877 32.0089 56.8647 31.9356 56.869C31.8624 56.8733 31.791 56.894 31.7269 56.9295C31.6627 56.9651 31.6073 57.0147 31.5649 57.0746V57.0746Z" fill="white"/>
<path d="M27.1468 61.0113C26.8921 61.1986 26.5026 61.6353 26.345 62.6069C26.3275 62.7141 26.3478 62.824 26.4024 62.9179C26.4569 63.0118 26.5424 63.0838 26.6441 63.1217L26.7007 63.1419C26.7685 63.1673 26.8413 63.1765 26.9133 63.1687C26.9852 63.161 27.0543 63.1364 27.1151 63.0971C27.1759 63.0578 27.2266 63.0049 27.2633 62.9424C27.2999 62.88 27.3214 62.8099 27.3261 62.7377C27.3627 62.2773 27.4705 61.8254 27.6454 61.3981C27.6705 61.3348 27.6752 61.2652 27.6591 61.1991C27.6429 61.1329 27.6066 61.0734 27.5552 61.0288V61.0288C27.4992 60.98 27.4282 60.9517 27.354 60.9485C27.2799 60.9454 27.2068 60.9675 27.1468 61.0113V61.0113Z" fill="white"/>
<path d="M24.5691 65.0768C24.6202 65.0991 24.6735 65.1163 24.7281 65.128C30.3517 66.9215 36.3606 67.1324 42.0961 65.7375C47.8316 64.3426 53.0724 61.3958 57.2443 57.22C57.3916 57.0726 57.4743 56.8727 57.4741 56.6643C57.474 56.4559 57.3911 56.2561 57.2437 56.1089C57.0962 55.9616 56.8963 55.8789 56.688 55.8791C56.4796 55.8792 56.2798 55.9621 56.1325 56.1095C52.1986 60.046 47.2654 62.8347 41.8641 64.1754C36.4629 65.5162 30.7982 65.3582 25.4801 63.7184C25.4329 63.6025 25.3871 63.4852 25.3453 63.3694C25.1846 62.9301 25.1481 62.455 25.2399 61.9964C25.3316 61.5377 25.5481 61.1133 25.8655 60.7697L27.0595 59.4733C28.4449 60.6188 29.9818 61.5676 31.6267 62.2926C31.7264 62.3371 31.8343 62.3601 31.9434 62.36C32.1235 62.3599 32.2982 62.298 32.438 62.1845C32.5779 62.0711 32.6746 61.913 32.7118 61.7368C32.7491 61.5606 32.7247 61.377 32.6427 61.2166C32.5607 61.0563 32.4261 60.9289 32.2615 60.856C30.5535 60.1093 28.9764 59.0933 27.5905 57.8467C26.7819 56.8373 26.2294 55.6513 25.9113 54.8306C25.8274 54.61 25.7757 54.3786 25.7577 54.1433C27.3298 54.0905 28.9025 54.2331 30.4395 54.5678C31.0491 54.7065 31.6073 55.0143 32.0499 55.4559C33.4218 56.8197 37.1468 60.228 42.3164 62.4273C42.4137 62.4682 42.5181 62.4892 42.6236 62.4893C42.8045 62.4889 42.9796 62.4261 43.1195 62.3116C43.2595 62.197 43.3556 62.0377 43.3917 61.8605C43.4278 61.6833 43.4017 61.4991 43.3177 61.3389C43.2338 61.1787 43.0972 61.0524 42.9309 60.9813C38.0187 58.8897 34.4649 55.6432 33.1644 54.3441C32.5128 53.6935 31.6906 53.2404 30.7925 53.0369C29.2754 52.7029 27.7248 52.5447 26.1714 52.5652L28.5972 48.1031C28.6161 48.068 28.6323 48.0315 28.6457 47.9939C29.7562 44.9092 27.6795 43.0642 26.4248 42.5184L26.3951 42.5063L18.9049 39.621C18.038 39.2866 17.2652 38.747 16.6526 38.0484C16.04 37.3499 15.6059 36.5132 15.3875 35.6101C15.1692 34.707 15.1731 33.7644 15.3989 32.8631C15.6246 31.9619 16.0656 31.1288 16.6839 30.4353L34.7169 10.203C35.4595 9.37073 35.8697 8.2942 35.8692 7.17882V6.60337C35.8736 6.49755 35.8565 6.39193 35.819 6.29286C35.7816 6.1938 35.7244 6.10333 35.6511 6.0269C35.5778 5.95047 35.4898 5.88966 35.3923 5.84812C35.2949 5.80657 35.1901 5.78516 35.0842 5.78516C34.9782 5.78516 34.8734 5.80657 34.776 5.84812C34.6786 5.88966 34.5905 5.95047 34.5172 6.0269C34.4439 6.10333 34.3868 6.1938 34.3493 6.29286C34.3118 6.39193 34.2948 6.49755 34.2992 6.60337V7.18286C34.2996 7.91352 34.0309 8.61874 33.5445 9.16392L15.5115 29.3882C14.7243 30.2714 14.1631 31.3324 13.8758 32.48C13.5886 33.6277 13.5839 34.8279 13.8621 35.9778C14.1403 37.1277 14.6932 38.193 15.4734 39.0824C16.2535 39.9718 17.2377 40.6588 18.3416 41.0845L25.8076 43.9644C26.003 44.0534 28.0042 45.0304 27.1835 47.4077L24.6621 52.0463C24.3846 52.5557 24.2216 53.1195 24.1843 53.6984C24.1471 54.2772 24.2365 54.8572 24.4464 55.398C24.8406 56.4308 25.3563 57.4129 25.9828 58.3237L24.7106 59.701C24.2941 60.1512 23.9838 60.6889 23.8026 61.2748C23.6214 61.8606 23.5739 62.4797 23.6634 63.0863C12.1356 58.7078 3.92298 47.5465 3.92298 34.4999C3.91276 28.4186 5.72463 22.4736 9.12493 17.4318C9.18254 17.3463 9.22274 17.2503 9.24325 17.1493C9.26376 17.0483 9.26417 16.9442 9.24446 16.843C9.22475 16.7419 9.18531 16.6456 9.12838 16.5596C9.07145 16.4737 8.99815 16.3998 8.91267 16.3422C8.82719 16.2846 8.7312 16.2444 8.63019 16.2239C8.52917 16.2034 8.4251 16.203 8.32392 16.2227C8.22275 16.2424 8.12644 16.2818 8.04051 16.3388C7.95458 16.3957 7.8807 16.469 7.82309 16.5545C4.24659 21.8549 2.34077 28.1056 2.35161 34.4999C2.35161 48.7621 11.6882 60.8829 24.5691 65.0768Z" fill="#4D4D4D"/>
<path d="M34.5001 2.35157C29.1259 2.3494 23.8368 3.693 19.1152 6.25977C19.0225 6.30803 18.9404 6.3743 18.8736 6.45469C18.8069 6.53509 18.7568 6.628 18.7264 6.72797C18.696 6.82795 18.6858 6.93299 18.6965 7.03695C18.7072 7.14091 18.7385 7.24169 18.7886 7.33339C18.8387 7.42509 18.9066 7.50588 18.9883 7.57102C19.07 7.63616 19.1639 7.68434 19.2645 7.71275C19.3651 7.74115 19.4703 7.74921 19.574 7.73645C19.6777 7.72368 19.7779 7.69036 19.8686 7.63842C24.359 5.19761 29.3892 3.92026 34.5001 3.92293C51.3606 3.92293 65.077 17.6394 65.077 34.4999C65.0774 35.7404 65.0031 36.9798 64.8547 38.2114C64.8422 38.3138 64.8501 38.4177 64.8779 38.5172C64.9056 38.6166 64.9527 38.7096 65.0164 38.7908C65.0801 38.872 65.1592 38.9399 65.2491 38.9906C65.3391 39.0412 65.4381 39.0736 65.5406 39.086C65.572 39.088 65.6035 39.088 65.635 39.086C65.8268 39.0857 66.0119 39.0153 66.1554 38.8879C66.2989 38.7606 66.3909 38.5851 66.4139 38.3946C66.5696 37.1022 66.6479 35.8017 66.6484 34.4999C66.6484 16.7728 52.2271 2.35157 34.5001 2.35157Z" fill="#4D4D4D"/>
<path d="M13.362 12.1154C13.5587 12.1161 13.7483 12.0424 13.893 11.9092L14.1814 11.6491C14.3336 11.5097 14.4248 11.316 14.4353 11.1099C14.4458 10.9038 14.3748 10.7018 14.2376 10.5476C14.1004 10.3934 13.908 10.2994 13.7021 10.2859C13.4961 10.2723 13.2931 10.3404 13.137 10.4753L12.8324 10.7449C12.7137 10.8513 12.6302 10.9914 12.593 11.1465C12.5558 11.3015 12.5666 11.4642 12.6241 11.613C12.6816 11.7617 12.783 11.8894 12.9148 11.9792C13.0466 12.0689 13.2026 12.1165 13.362 12.1154V12.1154Z" fill="#4D4D4D"/>
<path d="M35.5172 61.9138C35.3168 61.8792 35.1109 61.9236 34.9425 62.0376C34.7742 62.1517 34.6567 62.3266 34.6146 62.5255C34.5726 62.7245 34.6093 62.9319 34.717 63.1044C34.8248 63.2768 34.9952 63.4008 35.1924 63.4502C35.3487 63.4839 35.5078 63.5149 35.6668 63.5432C35.7112 63.5519 35.7563 63.5564 35.8015 63.5566C35.9977 63.5559 36.1866 63.4819 36.3309 63.349C36.4753 63.2161 36.5647 63.0341 36.5816 62.8386C36.5985 62.6431 36.5416 62.4484 36.4222 62.2927C36.3028 62.1371 36.1295 62.0317 35.9363 61.9974C35.8029 61.9718 35.6587 61.9435 35.5172 61.9138Z" fill="#4D4D4D"/>
<path d="M28.5054 39.7719C28.494 39.9799 28.5657 40.1839 28.7047 40.3391C28.8437 40.4943 29.0386 40.5879 29.2466 40.5994C29.9784 40.6398 32.2411 40.9686 33.02 41.9255C33.0938 42.0154 33.1865 42.0879 33.2916 42.1378C33.3967 42.1876 33.5115 42.2136 33.6278 42.2139C33.756 42.2133 33.8822 42.1814 33.9953 42.121C34.1083 42.0606 34.2049 41.9734 34.2767 41.8672C34.3484 41.7609 34.3931 41.6387 34.4068 41.5112C34.4206 41.3838 34.403 41.2549 34.3556 41.1357C34.2653 40.9107 32.0646 35.6023 26.6227 34.6266C26.212 34.5537 25.7892 34.5959 25.401 34.7485C25.0128 34.901 24.6744 35.1581 24.4233 35.4911C24.1722 35.8241 24.0181 36.2201 23.9782 36.6353C23.9382 37.0505 24.0139 37.4686 24.1969 37.8434C24.462 38.3843 24.8397 38.8621 25.3047 39.245C25.3843 39.3109 25.4762 39.3605 25.575 39.3909C25.6738 39.4214 25.7776 39.432 25.8806 39.4223C25.9835 39.4126 26.0835 39.3828 26.1749 39.3344C26.2663 39.2861 26.3472 39.2202 26.4132 39.1405C26.4791 39.0609 26.5287 38.9691 26.5591 38.8703C26.5895 38.7714 26.6002 38.6676 26.5905 38.5647C26.5808 38.4618 26.5509 38.3617 26.5026 38.2704C26.4542 38.179 26.3883 38.098 26.3087 38.0321C26.0147 37.7902 25.7758 37.4884 25.6079 37.1467C25.552 37.0323 25.5293 36.9045 25.5421 36.7778C25.555 36.6512 25.603 36.5306 25.6807 36.4297C25.7541 36.328 25.8549 36.2493 25.9713 36.2027C26.0878 36.1562 26.2151 36.1438 26.3384 36.1669C28.7062 36.5915 30.3813 38.0537 31.4365 39.373C30.7443 39.1911 30.0363 39.0756 29.3221 39.028C29.1158 39.021 28.915 39.0948 28.7624 39.2338C28.6098 39.3728 28.5176 39.5659 28.5054 39.7719V39.7719Z" fill="#4D4D4D"/>
<path d="M33.9854 45.1032C33.7844 45.0644 33.5763 45.1055 33.4052 45.2179C33.2341 45.3302 33.1136 45.5049 33.0694 45.7047C33.0251 45.9046 33.0606 46.1138 33.1682 46.2879C33.2759 46.4619 33.4472 46.5871 33.6458 46.6368C34.3556 46.7792 35.0781 46.8492 35.802 46.8457C37.1214 46.8457 38.806 46.6098 40.1509 45.6328C41.4191 44.7123 42.1508 43.3229 42.326 41.5022C42.539 39.2961 42.008 37.0994 40.7466 34.9715C40.6982 34.8751 40.6304 34.7898 40.5476 34.7207C40.4648 34.6517 40.3686 34.6004 40.2651 34.5702C40.1616 34.5399 40.053 34.5313 39.946 34.5448C39.8391 34.5583 39.736 34.5937 39.6433 34.6488C39.5506 34.7038 39.4702 34.7774 39.4072 34.8649C39.3441 34.9523 39.2997 35.0519 39.2768 35.1572C39.2539 35.2626 39.2529 35.3716 39.2739 35.4773C39.2949 35.5831 39.3375 35.6834 39.3989 35.772C40.4865 37.6075 40.9474 39.4834 40.7668 41.3513C40.632 42.7205 40.1347 43.7043 39.2372 44.3579C37.2535 45.7986 34.0191 45.1113 33.9854 45.1032Z" fill="#4D4D4D"/>
<path d="M41.6424 12.4306C41.4934 12.8233 41.2882 13.1924 41.0333 13.5263C40.2975 14.4696 39.1964 14.9683 37.6641 15.0329C37.461 15.0444 37.2702 15.1343 37.132 15.2836C36.9937 15.433 36.9188 15.6301 36.923 15.8335C36.9272 16.037 37.0102 16.2309 37.1544 16.3744C37.2987 16.5179 37.493 16.5998 37.6965 16.603H37.7342C39.7288 16.5194 41.2583 15.8065 42.2812 14.4844C42.3998 14.3296 42.51 14.1686 42.6114 14.002C44.0642 15.2661 47.4845 17.4911 53.5746 17.4911C54.0463 17.4911 54.5341 17.4771 55.0381 17.4493C55.2439 17.4345 55.4357 17.3394 55.5719 17.1844C55.7082 17.0295 55.778 16.8271 55.7663 16.6211C55.7547 16.4151 55.6624 16.222 55.5095 16.0834C55.3566 15.9449 55.1553 15.872 54.9492 15.8806C47.7864 16.2849 44.2461 13.4211 43.2839 12.4791C44.0035 10.0924 43.4752 7.5521 43.4456 7.41464C43.3919 7.22184 43.2666 7.0568 43.0953 6.95323C42.9241 6.84965 42.7197 6.81535 42.524 6.85731C42.3283 6.89927 42.156 7.01433 42.0423 7.17902C41.9285 7.3437 41.8819 7.54559 41.912 7.74347C41.912 7.77446 42.451 10.3539 41.6424 12.4252V12.4306Z" fill="#4D4D4D"/>
<path d="M42.812 17.0801C42.3869 17.7041 41.7947 18.1958 41.1032 18.4992C40.9381 18.5715 40.8028 18.6985 40.7202 18.8587C40.6376 19.019 40.6126 19.2028 40.6494 19.3793C40.6862 19.5558 40.7826 19.7142 40.9224 19.8281C41.0622 19.9419 41.2369 20.0042 41.4172 20.0045C41.5248 20.0049 41.6313 19.9829 41.7299 19.9398C42.6925 19.5157 43.5167 18.8298 44.1085 17.9601C44.171 17.8749 44.2156 17.7779 44.2397 17.6751C44.2639 17.5722 44.267 17.4655 44.2489 17.3614C44.2309 17.2573 44.192 17.1579 44.1347 17.0692C44.0773 16.9804 44.0026 16.9042 43.9151 16.8449C43.8276 16.7857 43.7291 16.7448 43.6253 16.7245C43.5216 16.7043 43.4149 16.7052 43.3116 16.7271C43.2082 16.7491 43.1103 16.7916 43.0238 16.8523C42.9373 16.9129 42.8639 16.9904 42.808 17.0801H42.812Z" fill="#4D4D4D"/>
<path d="M45.9467 18.7188C45.6947 19.4291 45.2483 20.0543 44.6583 20.5233C44.4998 20.6539 44.3987 20.8413 44.3766 21.0455C44.3546 21.2497 44.4134 21.4544 44.5404 21.6158C44.6674 21.7772 44.8526 21.8824 45.0562 21.909C45.2599 21.9355 45.4659 21.8812 45.63 21.7578C46.453 21.1031 47.0762 20.231 47.4291 19.2404C47.4634 19.143 47.4781 19.0399 47.4725 18.9369C47.4669 18.8338 47.441 18.7329 47.3964 18.6399C47.3518 18.5468 47.2893 18.4635 47.2125 18.3946C47.1357 18.3257 47.046 18.2726 46.9487 18.2384C46.8513 18.2041 46.7482 18.1894 46.6452 18.195C46.5421 18.2006 46.4412 18.2265 46.3482 18.2711C46.2551 18.3157 46.1718 18.3782 46.1029 18.455C46.034 18.5318 45.9809 18.6215 45.9467 18.7188V18.7188Z" fill="#4D4D4D"/>
<path d="M49.6654 22.7431C49.761 22.7817 49.8633 22.801 49.9664 22.7999C50.0695 22.7988 50.1714 22.7773 50.2662 22.7367C50.361 22.6962 50.4468 22.6373 50.5188 22.5634C50.5907 22.4896 50.6474 22.4023 50.6855 22.3065C51.0194 21.4723 51.1475 20.57 51.0588 19.6759C51.0353 19.4708 50.9319 19.2832 50.771 19.1537C50.6102 19.0242 50.4049 18.9632 50.1995 18.9839C49.994 19.0047 49.805 19.1054 49.6733 19.2644C49.5416 19.4234 49.4777 19.6279 49.4956 19.8335C49.5589 20.475 49.4664 21.1222 49.226 21.7203C49.1877 21.8163 49.1687 21.9189 49.17 22.0223C49.1713 22.1256 49.193 22.2277 49.2338 22.3227C49.2746 22.4177 49.3337 22.5037 49.4078 22.5759C49.4818 22.648 49.5693 22.7048 49.6654 22.7431V22.7431Z" fill="#4D4D4D"/>
</svg>
