<svg width="69" height="69" viewBox="0 0 69 69" fill="none" xmlns="http://www.w3.org/2000/svg">
<path d="M58.238 54.9978C56.2313 46.4739 56.5682 32.0419 56.7367 27.4302C56.8093 25.7699 56.5462 24.112 55.9631 22.5557C55.2591 20.7145 54.1484 19.0561 52.7139 17.7041C50.0563 15.18 46.4864 13.8431 42.8208 13.8431H38.104C32.3535 13.7461 27.1152 8.81365 27.1152 8.81365V4.01465C13.3583 7.33527 3.1377 19.7229 3.1377 34.5C3.1377 51.8214 17.1789 65.8626 34.5004 65.8626C36.4691 65.8629 38.4336 65.6788 40.368 65.3128C38.5918 54.3833 40.8788 44.9699 40.8788 44.9699C43.3437 46.8176 44.0633 50.9266 44.0633 50.9266L45.7425 63.7845C50.5672 61.9283 54.8592 58.9102 58.238 54.9978Z" fill="#FFE2D4"/>
<path d="M44.0683 50.9264L45.7475 63.7844C47.109 63.2606 48.4321 62.6418 49.7069 61.9327C48.9859 56.9976 47.3485 45.8336 46.8566 42.9051C46.5413 41.0278 46.8782 39.0562 47.2986 37.5441C47.6032 36.4485 46.3553 35.6008 45.4294 36.2679C41.3999 39.191 40.8838 44.9697 40.8838 44.9697C43.3433 46.8174 44.0683 50.9264 44.0683 50.9264Z" fill="#EFB9AB"/>
<path d="M35.4972 45.0548C35.0848 44.3248 34.4569 43.74 33.6994 43.3805C32.9419 43.0211 32.0918 42.9045 31.2655 43.0468L29.585 43.3352C28.8473 43.4447 28.1031 43.5042 27.3573 43.5131C22.5678 43.5482 18.6973 39.6049 18.6973 34.8113V28.5622C18.6973 24.9802 20.6002 23.3185 21.3791 22.7875C27.1431 23.6931 31.8235 21.2957 31.8235 21.2957C27.6228 21.5652 23.1675 20.4534 20.9398 19.789C20.4802 19.651 19.995 19.6209 19.5219 19.7011C19.0488 19.7813 18.6006 19.9695 18.2121 20.2512L15.7136 22.0638C15.5316 22.1957 15.3204 22.2818 15.098 22.3148C14.8757 22.3478 14.6486 22.3267 14.4362 22.2533C14.2237 22.1799 14.032 22.0564 13.8774 21.8932C13.7228 21.73 13.6097 21.532 13.5479 21.3159C12.7568 18.5599 13.0857 13.9887 13.3821 11.3203L13.366 11.3365L13.2999 11.3998C13.1113 11.5723 12.9244 11.7475 12.7393 11.9254C12.6706 11.9914 12.6045 12.0602 12.5358 12.1262C12.4011 12.261 12.2663 12.3957 12.1315 12.5305L11.8903 12.7812C11.7717 12.9052 11.6531 13.0291 11.5359 13.1545C11.4496 13.2475 11.3647 13.3418 11.2798 13.4348L10.9564 13.7946C10.8688 13.8943 10.7825 13.9954 10.6963 14.0965C10.61 14.1976 10.4955 14.331 10.3971 14.4496C10.2987 14.5682 10.2205 14.6625 10.1276 14.7703C10.0346 14.8781 9.94023 15.0035 9.84725 15.1207C9.75426 15.2379 9.6734 15.3417 9.5885 15.4536C9.50359 15.5654 9.40926 15.6908 9.31896 15.8094L9.0683 16.149C9.0373 16.1921 9.00496 16.2339 8.97531 16.2837C7.45472 18.405 6.20519 20.7081 5.25578 23.1393C7.37699 22.3414 9.51303 22.6541 10.924 23.0517C15.0708 24.8845 15.1557 28.5622 15.1557 28.5622V34.9407C15.1557 39.7356 13.1072 40.8313 12.1827 41.0806C11.0507 41.4647 7.5468 42.501 4.06445 42.0819C5.9148 49.4931 10.4033 55.9757 16.6893 60.3157L19.4102 60.1985V56.2795C19.4102 52.9898 19.4911 51.0452 19.4911 51.0452V51.0196C19.4933 50.7731 19.5498 50.5301 19.6564 50.3078C19.763 50.0855 19.9171 49.8893 20.1079 49.7333C20.2988 49.5772 20.5215 49.4649 20.7606 49.4045C20.9996 49.344 21.2489 49.3369 21.491 49.3835C24.6971 49.99 28.1457 49.6679 29.9341 49.4186C30.7132 49.3096 31.4442 48.9778 32.0391 48.4631L35.6562 45.3379L35.4972 45.0548Z" fill="#EFB9AB"/>
<path d="M52.715 17.7082C50.0574 15.184 46.4875 13.8472 42.8218 13.8472H42.6413C42.6345 14.079 42.6278 14.3269 42.6197 14.583C42.5957 15.3893 42.855 16.1786 43.3526 16.8136C43.8502 17.4486 44.5546 17.8891 45.3433 18.0586C47.6653 18.5653 50.7905 20.0113 52.1881 24.0543C52.4406 24.7626 52.9195 25.3678 53.5508 25.7764C54.182 26.1849 54.9303 26.374 55.6798 26.3143L56.727 26.2362C56.6668 24.9788 56.4094 23.7386 55.9642 22.5611C55.2604 20.7194 54.1497 19.0605 52.715 17.7082V17.7082Z" fill="#FFF9F8"/>
<path d="M32.2982 25.2754H34.5676C35.1531 25.2754 35.7146 25.508 36.1285 25.9219C36.5425 26.3359 36.7751 26.8974 36.7751 27.4829V30.1256C36.7751 32.174 34.2267 33.1174 32.8925 31.5636L30.6244 28.9208C30.3493 28.6004 30.172 28.2079 30.1132 27.7898C30.0545 27.3717 30.117 26.9455 30.2932 26.5617C30.4693 26.178 30.7519 25.8529 31.1073 25.6249C31.4626 25.3969 31.8759 25.2756 32.2982 25.2754V25.2754Z" fill="#FFF9F8"/>
<path d="M8.50799 26.5181H9.97289C10.3522 26.5181 10.7161 26.6687 10.9844 26.9368C11.2528 27.2049 11.4037 27.5686 11.4041 27.9479V29.6621C11.4018 29.9525 11.3112 30.2353 11.1444 30.4729C10.9777 30.7106 10.7425 30.8919 10.4703 30.9928C10.198 31.0937 9.90148 31.1094 9.62008 31.0378C9.33869 30.9662 9.08572 30.8108 8.89477 30.592L7.42313 28.8805C7.24457 28.673 7.12934 28.4186 7.09114 28.1475C7.05294 27.8764 7.09336 27.6 7.20761 27.3512C7.32186 27.1024 7.50512 26.8917 7.73564 26.744C7.96615 26.5963 8.23422 26.5179 8.50799 26.5181V26.5181Z" fill="#FFF9F8"/>
<path d="M43.675 47.3204C43.6295 47.2278 43.5662 47.145 43.4888 47.0768C43.4113 47.0086 43.3212 46.9564 43.2235 46.923C43.1258 46.8897 43.0225 46.8759 42.9195 46.8825C42.8165 46.889 42.7158 46.9158 42.6232 46.9613C42.5305 47.0068 42.4477 47.0701 42.3796 47.1475C42.3114 47.225 42.2591 47.3152 42.2258 47.4128C42.1924 47.5105 42.1786 47.6138 42.1852 47.7168C42.1918 47.8198 42.2185 47.9205 42.264 48.0131C42.7281 48.979 43.0716 49.9983 43.2869 51.0481L44.9647 63.8872C44.9893 64.0761 45.0817 64.2496 45.2248 64.3753C45.3679 64.501 45.5518 64.5704 45.7423 64.5704C45.7766 64.5708 45.8108 64.5686 45.8447 64.5637C46.0507 64.5362 46.2374 64.4281 46.3637 64.2631C46.4901 64.0981 46.5458 63.8897 46.5186 63.6837L44.8394 50.8257C44.8394 50.8136 44.8394 50.8028 44.8394 50.792C44.6009 49.5899 44.2096 48.4232 43.675 47.3204V47.3204Z" fill="#4D4D4D"/>
<path d="M15.6921 60.5556C15.7573 60.6242 15.8345 60.6804 15.9198 60.7214C21.3447 64.5844 27.8402 66.6574 34.4999 66.6511C36.5079 66.6503 38.5115 66.4631 40.4849 66.0918H40.4943H40.5065C40.9808 66.0028 41.4498 65.9058 41.9215 65.7953C42.025 65.7747 42.1234 65.7335 42.2107 65.6741C42.2979 65.6147 42.3723 65.5383 42.4294 65.4496C42.4865 65.3608 42.5251 65.2614 42.5429 65.1573C42.5608 65.0533 42.5574 64.9467 42.5332 64.8439C42.5089 64.7412 42.4641 64.6444 42.4016 64.5593C42.3391 64.4743 42.2601 64.4027 42.1693 64.3488C42.0785 64.295 41.9778 64.26 41.8731 64.246C41.7685 64.2319 41.6621 64.2391 41.5603 64.2671C41.3797 64.3088 41.1991 64.3466 41.0213 64.3857C39.5281 54.0936 41.621 45.2489 41.6425 45.1627C41.6432 45.1542 41.6432 45.1456 41.6425 45.1371C41.6458 45.1269 41.6485 45.1166 41.6506 45.1061C42.4484 40.3246 44.6613 38.1724 44.6963 38.1373C44.8403 37.9933 44.9228 37.799 44.9263 37.5954C44.9298 37.3917 44.8541 37.1947 44.7152 37.0458C44.5762 36.8969 44.3849 36.8077 44.1815 36.7972C43.9781 36.7866 43.7786 36.8554 43.6249 36.9891C43.5185 37.0889 41.0078 39.4729 40.1075 44.815C39.9566 45.4443 37.9351 54.2176 39.4715 64.6794C37.8271 64.9486 36.1635 65.0838 34.4973 65.0837C29.0532 65.0875 23.7082 63.6289 19.0208 60.8602C19.8855 60.7063 20.7231 60.4271 21.5072 60.0314C21.6821 59.928 21.8101 59.7609 21.8644 59.5651C21.9187 59.3694 21.8951 59.1602 21.7985 58.9815C21.7019 58.8028 21.5398 58.6684 21.3463 58.6066C21.1528 58.5448 20.9429 58.5604 20.7606 58.65C20.739 58.6608 18.6461 59.7632 16.6327 59.2982C14.3335 57.6385 12.2738 55.6699 10.5117 53.4481C10.7415 53.1984 10.9531 52.9327 11.1451 52.653C11.7812 51.7231 12.5534 51.0978 13.4428 50.7945C13.6259 50.7169 13.7727 50.5727 13.8537 50.3911C13.9346 50.2095 13.9437 50.0039 13.8791 49.8159C13.8145 49.6278 13.681 49.4713 13.5055 49.3778C13.33 49.2843 13.1255 49.2608 12.9334 49.3121C11.7205 49.7285 10.6801 50.5547 9.84863 51.7702C9.75429 51.905 9.65322 52.0398 9.5481 52.1678C5.95948 47.1065 3.9964 41.0727 3.91985 34.8687C3.8433 28.6647 5.6569 22.5844 9.11954 17.436C9.17715 17.3505 9.21735 17.2545 9.23786 17.1535C9.25837 17.0525 9.25879 16.9484 9.23908 16.8472C9.21937 16.7461 9.17992 16.6498 9.12299 16.5638C9.06606 16.4779 8.99277 16.404 8.90729 16.3464C8.82181 16.2888 8.72582 16.2486 8.6248 16.2281C8.52378 16.2076 8.41972 16.2072 8.31854 16.2269C8.21736 16.2466 8.12106 16.286 8.03512 16.343C7.94919 16.3999 7.87531 16.4732 7.81771 16.5587C4.24389 21.8586 2.33999 28.1077 2.35162 34.5C2.35162 45.2085 7.61691 54.7149 15.6921 60.5556Z" fill="#4D4D4D"/>
<path d="M34.5001 2.35156C31.9769 2.35146 29.4625 2.64773 27.0084 3.23428C26.9575 3.24101 26.9074 3.25274 26.8588 3.26932C24.1587 3.92559 21.5556 4.93087 19.1152 6.25976C19.0225 6.30803 18.9404 6.3743 18.8736 6.45469C18.8069 6.53509 18.7568 6.62799 18.7264 6.72797C18.696 6.82795 18.6858 6.93299 18.6965 7.03695C18.7072 7.1409 18.7385 7.24168 18.7886 7.33339C18.8387 7.42509 18.9066 7.50588 18.9883 7.57102C19.07 7.63615 19.1639 7.68434 19.2645 7.71274C19.3651 7.74115 19.4703 7.74921 19.574 7.73644C19.6777 7.72368 19.7779 7.69035 19.8686 7.63842C21.9152 6.52435 24.0829 5.64893 26.3292 5.02935V13.2447C26.3292 13.453 26.412 13.6529 26.5593 13.8002C26.7067 13.9476 26.9065 14.0303 27.1149 14.0303C27.3233 14.0303 27.5231 13.9476 27.6705 13.8002C27.8178 13.6529 27.9006 13.453 27.9006 13.2447V4.64258C30.0692 4.16449 32.2834 3.92319 34.5041 3.92293C51.3646 3.92293 65.0811 17.6394 65.0811 34.4999C65.0699 41.2753 62.8151 47.8562 58.6689 53.2148C57.0517 44.6087 57.3779 31.4744 57.5261 27.4584C57.6044 25.6927 57.3238 23.9295 56.7013 22.2753C55.9543 20.3269 54.7784 18.5715 53.2608 17.1394C50.4927 14.5101 46.792 13.0614 42.8259 13.0614H38.1199C35.1874 13.0088 32.364 11.579 30.511 10.4011C30.3356 10.295 30.1257 10.2617 29.9261 10.3082C29.7264 10.3547 29.5529 10.4774 29.4425 10.6501C29.332 10.8228 29.2934 11.0318 29.335 11.2325C29.3765 11.4332 29.4948 11.6098 29.6647 11.7245C31.6861 13.0183 34.7925 14.5735 38.105 14.6328H42.8218C46.3783 14.6328 49.6949 15.9265 52.1746 18.2782C53.5224 19.5494 54.5671 21.1076 55.231 22.8373C55.7781 24.2938 56.0234 25.8462 55.952 27.4004C55.7957 31.6577 55.4426 46.0507 57.3806 54.77C55.9114 56.4354 54.2647 57.9352 52.4697 59.2429C52.3792 59.3006 52.3015 59.3762 52.2413 59.4651C52.1812 59.554 52.1399 59.6543 52.12 59.7598C52.1001 59.8652 52.1021 59.9737 52.1257 60.0784C52.1493 60.1831 52.1942 60.2818 52.2574 60.3685C52.3207 60.4552 52.4011 60.528 52.4936 60.5825C52.5861 60.6369 52.6888 60.6718 52.7953 60.685C52.9018 60.6983 53.0099 60.6895 53.1129 60.6594C53.2159 60.6292 53.3116 60.5782 53.3942 60.5097C55.373 59.0664 57.1815 57.4031 58.7848 55.5516L58.8428 55.4869C63.8862 49.659 66.6577 42.2071 66.6484 34.4999C66.6484 16.7728 52.2271 2.35156 34.5001 2.35156Z" fill="#4D4D4D"/>
<path d="M14.2462 10.5402C14.1077 10.3846 13.9131 10.2903 13.7051 10.2782C13.4971 10.2661 13.2928 10.337 13.1371 10.4755L12.8325 10.745C12.683 10.8866 12.595 11.0812 12.5874 11.287C12.5799 11.4928 12.6535 11.6933 12.7923 11.8454C12.9312 11.9975 13.1242 12.089 13.3298 12.1002C13.5354 12.1114 13.7372 12.0415 13.8918 11.9054L14.1815 11.6439C14.3356 11.5056 14.4288 11.3121 14.4409 11.1054C14.453 10.8987 14.383 10.6956 14.2462 10.5402V10.5402Z" fill="#4D4D4D"/>
<path d="M35.4808 20.2284C35.6384 20.2292 35.7925 20.1822 35.9228 20.0937L36.1061 19.967C36.2697 19.8448 36.3793 19.6638 36.4117 19.4622C36.4442 19.2607 36.3969 19.0544 36.2798 18.8871C36.1628 18.7198 35.9853 18.6046 35.7848 18.566C35.5843 18.5273 35.3767 18.5682 35.2059 18.68L35.0361 18.7972C34.8976 18.8921 34.7931 19.0288 34.738 19.1873C34.6828 19.3458 34.6799 19.5179 34.7296 19.6782C34.7793 19.8385 34.8791 19.9787 35.0143 20.0782C35.1494 20.1777 35.3129 20.2313 35.4808 20.2311V20.2284Z" fill="#4D4D4D"/>
<path d="M32.5954 20.2065C28.0322 22.3978 23.6671 22.1189 21.4705 21.7577C20.7456 21.6359 20.0026 21.6792 19.2968 21.8843C18.591 22.0894 17.9405 22.451 17.3938 22.9423L16.1715 24.046C16.0231 24.1869 15.9355 24.3802 15.9274 24.5846C15.9193 24.7891 15.9912 24.9887 16.128 25.1409C16.2648 25.2931 16.4555 25.386 16.6597 25.3997C16.8639 25.4134 17.0654 25.347 17.2213 25.2144L18.4504 24.1107C18.8214 23.7759 19.2634 23.5292 19.7432 23.3892C20.223 23.2492 20.7282 23.2194 21.2211 23.3021C23.5998 23.6943 28.3287 23.9948 33.2813 21.6175C33.4565 21.5208 33.5882 21.3608 33.6495 21.1703C33.7108 20.9797 33.6971 20.773 33.6111 20.5922C33.5251 20.4114 33.3733 20.2703 33.1868 20.1977C33.0003 20.125 32.7931 20.1262 32.6075 20.2012L32.5954 20.2065Z" fill="#4D4D4D"/>
<path d="M16.0238 28.5622C16.0154 28.3597 15.929 28.1682 15.7827 28.0278C15.6364 27.8875 15.4416 27.8091 15.2388 27.8091C15.0361 27.8091 14.8412 27.8875 14.6949 28.0278C14.5486 28.1682 14.4622 28.3597 14.4538 28.5622V42.0927C14.4494 42.1985 14.4665 42.3041 14.5039 42.4032C14.5414 42.5023 14.5985 42.5927 14.6719 42.6692C14.7452 42.7456 14.8332 42.8064 14.9306 42.848C15.0281 42.8895 15.1329 42.9109 15.2388 42.9109C15.3447 42.9109 15.4495 42.8895 15.547 42.848C15.6444 42.8064 15.7324 42.7456 15.8058 42.6692C15.8791 42.5927 15.9362 42.5023 15.9737 42.4032C16.0111 42.3041 16.0282 42.1985 16.0238 42.0927V28.5622Z" fill="#4D4D4D"/>
<path d="M31.4952 46.4737C24.5345 47.1476 18.0873 44.9751 18.0186 44.9536C17.8265 44.9023 17.6221 44.9258 17.4466 45.0192C17.2711 45.1127 17.1375 45.2693 17.0729 45.4573C17.0083 45.6454 17.0174 45.851 17.0983 46.0326C17.1793 46.2142 17.3261 46.3584 17.5092 46.436C17.7464 46.5182 22.6478 48.1731 28.6813 48.1731C29.6435 48.1731 30.6367 48.1313 31.6461 48.0384C32.6211 47.9448 33.56 47.6215 34.3859 47.095L36.6567 45.6301C36.832 45.5173 36.9554 45.3395 36.9996 45.1358C37.0438 44.9321 37.0053 44.7192 36.8925 44.5439C36.7798 44.3686 36.602 44.2452 36.3983 44.201C36.1946 44.1568 35.9816 44.1953 35.8063 44.308L33.5396 45.7676C32.9233 46.1608 32.2228 46.4028 31.4952 46.4737Z" fill="#4D4D4D"/>
<path d="M14.2337 25.1554C14.3728 25.0004 14.4447 24.7965 14.4336 24.5885C14.4225 24.3806 14.3293 24.1855 14.1744 24.0462L12.9453 22.9425C12.3989 22.4508 11.7484 22.0889 11.0425 21.8838C10.3366 21.6787 9.59353 21.6357 8.86867 21.7579C8.7649 21.7754 8.65574 21.793 8.54254 21.8091C8.43748 21.8204 8.33578 21.8528 8.24352 21.9043C8.15126 21.9558 8.07033 22.0254 8.00559 22.1089C7.94084 22.1924 7.89361 22.2881 7.86671 22.3903C7.83981 22.4925 7.83379 22.599 7.84903 22.7036C7.86427 22.8082 7.90043 22.9086 7.95538 22.9988C8.01032 23.0891 8.0829 23.1673 8.16878 23.2289C8.25466 23.2905 8.35208 23.3341 8.4552 23.3571C8.55832 23.3801 8.66503 23.3821 8.76895 23.363C8.89158 23.3455 9.01018 23.3266 9.12473 23.3077C9.61765 23.2249 10.1229 23.2546 10.6027 23.3947C11.0826 23.5347 11.5245 23.7814 11.8955 24.1163L13.1246 25.22C13.2795 25.3592 13.4834 25.4311 13.6914 25.42C13.8994 25.4089 14.0944 25.3156 14.2337 25.1608V25.1554Z" fill="#4D4D4D"/>
<path d="M12.319 44.9537C11.2569 45.2935 10.1772 45.5756 9.08462 45.7987C8.89531 45.8393 8.72768 45.9485 8.61388 46.1051C8.50008 46.2618 8.44814 46.4549 8.46802 46.6475C8.4879 46.8401 8.5782 47.0186 8.72159 47.1487C8.86498 47.2788 9.05137 47.3514 9.24499 47.3525C9.29982 47.3526 9.3545 47.3468 9.40806 47.335C10.5656 47.1014 11.7089 46.8022 12.8325 46.4388C12.9366 46.411 13.0339 46.3621 13.1184 46.295C13.2028 46.228 13.2725 46.1443 13.3232 46.0491C13.3739 45.954 13.4045 45.8494 13.413 45.7419C13.4215 45.6344 13.4079 45.5264 13.3728 45.4244C13.3378 45.3224 13.2821 45.2288 13.2094 45.1492C13.1366 45.0697 13.0482 45.006 12.9497 44.9621C12.8512 44.9182 12.7448 44.8951 12.637 44.8941C12.5292 44.8931 12.4223 44.9143 12.323 44.9564L12.319 44.9537Z" fill="#4D4D4D"/>
<path d="M29.7831 44.0158C29.8919 44.0259 30.0017 44.0132 30.1053 43.9784C30.209 43.9437 30.3042 43.8878 30.385 43.8141C30.4658 43.7405 30.5304 43.6508 30.5745 43.5508C30.6187 43.4509 30.6415 43.3427 30.6415 43.2334C30.6415 43.1241 30.6187 43.016 30.5745 42.916C30.5304 42.8161 30.4658 42.7264 30.385 42.6527C30.3042 42.5791 30.209 42.5232 30.1053 42.4884C30.0017 42.4537 29.8919 42.441 29.7831 42.4511H29.2144C29.006 42.4511 28.8062 42.5339 28.6588 42.6812C28.5115 42.8286 28.4287 43.0284 28.4287 43.2368C28.4287 43.4452 28.5115 43.645 28.6588 43.7924C28.8062 43.9397 29.006 44.0225 29.2144 44.0225L29.7831 44.0158Z" fill="#4D4D4D"/>
<path d="M15.2381 51.2476C15.03 51.2479 14.8305 51.3309 14.6834 51.4782C14.5364 51.6255 14.4538 51.8251 14.4538 52.0332V55.9913C14.4494 56.0971 14.4665 56.2028 14.5039 56.3018C14.5414 56.4009 14.5985 56.4914 14.6719 56.5678C14.7452 56.6442 14.8332 56.705 14.9306 56.7466C15.0281 56.7881 15.1329 56.8095 15.2388 56.8095C15.3447 56.8095 15.4495 56.7881 15.547 56.7466C15.6444 56.705 15.7324 56.6442 15.8058 56.5678C15.8791 56.4914 15.9362 56.4009 15.9737 56.3018C16.0111 56.2028 16.0282 56.0971 16.0238 55.9913V52.0332C16.0238 51.9301 16.0035 51.8279 15.964 51.7326C15.9245 51.6373 15.8667 51.5506 15.7937 51.4777C15.7207 51.4047 15.6341 51.3469 15.5388 51.3074C15.4435 51.2679 15.3413 51.2476 15.2381 51.2476V51.2476Z" fill="#4D4D4D"/>
<path d="M35.5678 51.4802C35.3917 51.3711 35.1796 51.3359 34.9777 51.3823C34.7758 51.4287 34.6004 51.5531 34.4897 51.7282C33.1299 53.8952 30.878 54.5583 29.657 54.755C29.4628 54.7875 29.2879 54.8917 29.1669 55.047C29.0459 55.2023 28.9876 55.3973 29.0036 55.5935C29.0195 55.7897 29.1085 55.9728 29.2529 56.1065C29.3974 56.2402 29.5868 56.3149 29.7837 56.3156C29.8266 56.3153 29.8694 56.3117 29.9117 56.3048C31.3941 56.0622 34.1312 55.2537 35.8198 52.5637C35.8745 52.4761 35.9114 52.3785 35.9284 52.2766C35.9453 52.1746 35.942 52.0703 35.9186 51.9697C35.8952 51.8691 35.8521 51.774 35.7919 51.69C35.7318 51.606 35.6556 51.5347 35.5678 51.4802Z" fill="#4D4D4D"/>
<path d="M34.4699 56.5556C34.2879 56.4547 34.0734 56.4301 33.8733 56.4872C33.6732 56.5443 33.5039 56.6784 33.4026 56.8602C32.8391 57.8597 31.9438 58.6306 30.8717 59.0394C30.7025 59.1074 30.5622 59.2323 30.4751 59.3925C30.388 59.5527 30.3595 59.7383 30.3944 59.9173C30.4294 60.0964 30.5256 60.2576 30.6666 60.3733C30.8075 60.489 30.9844 60.552 31.1668 60.5514C31.2681 60.552 31.3684 60.5323 31.462 60.4935C32.8644 59.9478 34.0351 58.9342 34.7758 57.6243C34.826 57.5341 34.8578 57.4348 34.8696 57.3323C34.8813 57.2297 34.8728 57.1258 34.8443 57.0266C34.8159 56.9273 34.7682 56.8346 34.704 56.7538C34.6398 56.673 34.5602 56.6057 34.4699 56.5556V56.5556Z" fill="#4D4D4D"/>
<path d="M20.6193 51.7661C19.7878 50.5532 18.7501 49.7244 17.5331 49.3079C17.4338 49.2654 17.3267 49.2439 17.2186 49.2446C17.1106 49.2454 17.0038 49.2685 16.9051 49.3123C16.8063 49.3562 16.7177 49.42 16.6447 49.4997C16.5717 49.5794 16.516 49.6734 16.4809 49.7756C16.4459 49.8778 16.4323 49.9862 16.4411 50.0939C16.4498 50.2016 16.4807 50.3064 16.5317 50.4016C16.5828 50.4969 16.653 50.5805 16.7379 50.6474C16.8227 50.7143 16.9205 50.763 17.0251 50.7904C17.9145 51.0936 18.6867 51.7189 19.3161 52.6488C19.8785 53.4876 20.6247 54.1872 21.4979 54.6945C21.5878 54.7483 21.6875 54.7835 21.7912 54.7982C21.8949 54.8129 22.0004 54.8067 22.1017 54.78C22.2029 54.7533 22.2978 54.7066 22.3808 54.6427C22.4637 54.5788 22.5331 54.4989 22.5847 54.4078C22.6364 54.3167 22.6693 54.2162 22.6816 54.1122C22.6938 54.0083 22.6852 53.9029 22.6561 53.8023C22.627 53.7017 22.5782 53.6079 22.5124 53.5264C22.4465 53.445 22.3651 53.3775 22.2728 53.328C21.6103 52.9395 21.0448 52.4054 20.6193 51.7661V51.7661Z" fill="#4D4D4D"/>
</svg>
