<svg width="64" height="64" viewBox="0 0 64 64" fill="none" xmlns="http://www.w3.org/2000/svg">
<path d="M52 35C52.005 23.415 55.404 12.195 61.832 2.555L62.868 1H59.586L59.293 1.293C50.721 9.865 46 21.262 46 33.385V35H33.868C35.251 27.014 38.277 19.387 42.832 12.555L43.868 11H40.586L40.293 11.293C33.732 17.854 29.438 26.071 27.779 35H14.315C15.285 25.564 18.522 16.52 23.832 8.555L24.868 7H21.586L21.293 7.293C13.763 14.823 9.208 24.533 8.211 35H1V63H63V35H52ZM61 39.052C58.786 39.29 57.513 40.307 56.374 41.218C55.18 42.174 54.148 42.998 52 43V37H61V39.052ZM48 48.223V33.385C48 23.825 51.07 14.739 56.745 7.25C52.315 15.812 50 25.295 50 35.027V48.222L50.33 48.52C50.762 48.91 51 49.436 51 50C51 51.103 50.103 52 49 52C47.897 52 47 51.103 47 50C47 49.436 47.238 48.91 47.67 48.521L48 48.223ZM46 37V40.049C45.005 39.455 43.766 39 41.991 39C39.14 39 37.667 40.179 36.367 41.219C35.387 42.004 34.506 42.692 33.038 42.917C33.109 40.929 33.287 38.956 33.556 37.001L46 37ZM29 43.385C29 33.825 32.07 24.739 37.745 17.25C33.315 25.812 31 35.295 31 45.027V49.076L31.599 49.338C33.058 49.977 34 51.414 34 53C34 55.206 32.206 57 30 57C27.794 57 26 55.206 26 53C26 51.414 26.942 49.977 28.401 49.338L29 49.076V43.385ZM27.45 37C27.275 38.254 27.15 39.52 27.079 40.796C25.894 39.884 24.46 39 21.992 39C19.142 39 17.669 40.179 16.369 41.219C15.613 41.824 14.931 42.366 14 42.69V41.028C14 39.68 14.051 38.337 14.142 37.001L27.45 37ZM10 47.223V39.385C10 29.825 13.07 20.739 18.745 13.25C14.315 21.812 12 31.295 12 41.027V47.222L12.33 47.52C12.762 47.91 13 48.436 13 49C13 50.103 12.103 51 11 51C9.897 51 9 50.103 9 49C9 48.436 9.238 47.91 9.67 47.521L10 47.223ZM8.064 37C8.023 37.792 8 38.586 8 39.385V41.51C7.875 41.412 7.75 41.321 7.623 41.22C6.485 40.309 5.213 39.291 3 39.052V37H8.064ZM3 61V55.076C4.495 55.293 5.383 55.988 6.372 56.78C7.672 57.821 9.145 59 11.995 59C14.845 59 16.318 57.821 17.618 56.781C18.812 55.825 19.844 55 21.992 55V53C19.141 53 17.668 54.179 16.368 55.22C15.174 56.175 14.144 57 11.995 57C9.846 57 8.815 56.175 7.622 55.219C6.484 54.308 5.212 53.291 3 53.052V41.076C4.496 41.293 5.384 41.988 6.373 42.781C6.875 43.182 7.392 43.593 8 43.954V46.37C7.359 47.099 7 48.034 7 49C7 51.206 8.794 53 11 53C13.206 53 15 51.206 15 49C15 48.034 14.641 47.099 14 46.37V44.768C15.617 44.374 16.674 43.536 17.619 42.78C18.812 41.825 19.844 41 21.992 41C24.14 41 25.173 41.825 26.367 42.78C26.575 42.946 26.79 43.105 27.003 43.267C27.003 43.306 27 43.345 27 43.384V47.808C25.158 48.872 24 50.844 24 52.999C24 56.308 26.691 58.999 30 58.999C33.309 58.999 36 56.308 36 52.999C36 50.844 34.842 48.872 33 47.808V45.027C33 45 33.001 44.974 33.001 44.947C35.21 44.707 36.48 43.691 37.617 42.781C38.812 41.825 39.843 41 41.991 41C43.924 41 44.949 41.664 46 42.489V47.37C45.359 48.099 45 49.034 45 50C45 52.206 46.794 54 49 54C51.206 54 53 52.206 53 50C53 49.034 52.641 48.099 52 47.37V45C54.849 44.999 56.322 43.821 57.623 42.781C58.614 41.988 59.502 41.293 61 41.076V53.052C58.786 53.29 57.513 54.307 56.374 55.218C55.179 56.175 54.146 57 51.995 57C49.845 57 48.812 56.175 47.618 55.219C46.317 54.179 44.843 53 41.991 53C40.357 53 38.997 53.388 37.711 54.22L38.797 55.9C39.484 55.454 40.401 55 41.991 55C44.141 55 45.174 55.825 46.368 56.781C47.669 57.821 49.144 59 51.995 59C54.848 59 56.321 57.821 57.623 56.781C58.614 55.988 59.502 55.293 61 55.076V61H3Z" fill="black"/>
</svg>
